G04 #@! TF.GenerationSoftware,KiCad,Pcbnew,9.0.7*
G04 #@! TF.CreationDate,2026-04-22T00:05:46-05:00*
G04 #@! TF.ProjectId,controller,636f6e74-726f-46c6-9c65-722e6b696361,rev?*
G04 #@! TF.SameCoordinates,Original*
G04 #@! TF.FileFunction,Copper,L1,Top*
G04 #@! TF.FilePolarity,Positive*
%FSLAX46Y46*%
G04 Gerber Fmt 4.6, Leading zero omitted, Abs format (unit mm)*
G04 Created by KiCad (PCBNEW 9.0.7) date 2026-04-22 00:05:46*
%MOMM*%
%LPD*%
G01*
G04 APERTURE LIST*
G04 #@! TA.AperFunction,ComponentPad*
%ADD10C,6.350000*%
G04 #@! TD*
G04 #@! TA.AperFunction,SMDPad,CuDef*
%ADD11R,6.000000X6.000000*%
G04 #@! TD*
G04 #@! TA.AperFunction,SMDPad,CuDef*
%ADD12R,1.500000X0.900000*%
G04 #@! TD*
G04 #@! TA.AperFunction,SMDPad,CuDef*
%ADD13R,1.400000X0.800000*%
G04 #@! TD*
G04 #@! TA.AperFunction,SMDPad,CuDef*
%ADD14R,9.000000X6.000000*%
G04 #@! TD*
G04 #@! TA.AperFunction,SMDPad,CuDef*
%ADD15R,1.600000X0.900000*%
G04 #@! TD*
G04 #@! TA.AperFunction,SMDPad,CuDef*
%ADD16R,3.500000X1.600000*%
G04 #@! TD*
G04 #@! TA.AperFunction,SMDPad,CuDef*
%ADD17R,1.500000X0.600000*%
G04 #@! TD*
G04 #@! TA.AperFunction,ComponentPad*
%ADD18C,2.500000*%
G04 #@! TD*
G04 #@! TA.AperFunction,SMDPad,CuDef*
%ADD19R,1.800000X2.200000*%
G04 #@! TD*
G04 #@! TA.AperFunction,ComponentPad*
%ADD20C,1.800000*%
G04 #@! TD*
G04 #@! TA.AperFunction,ComponentPad*
%ADD21C,1.600000*%
G04 #@! TD*
G04 #@! TA.AperFunction,SMDPad,CuDef*
%ADD22R,2.500000X3.000000*%
G04 #@! TD*
G04 #@! TA.AperFunction,SMDPad,CuDef*
%ADD23R,0.950000X0.950000*%
G04 #@! TD*
G04 #@! TA.AperFunction,SMDPad,CuDef*
%ADD24R,1.200000X1.400000*%
G04 #@! TD*
G04 #@! TA.AperFunction,SMDPad,CuDef*
%ADD25R,1.100000X1.200000*%
G04 #@! TD*
G04 #@! TA.AperFunction,ComponentPad*
%ADD26C,2.200000*%
G04 #@! TD*
G04 #@! TA.AperFunction,ComponentPad*
%ADD27C,1.500000*%
G04 #@! TD*
G04 #@! TA.AperFunction,ComponentPad*
%ADD28C,2.000000*%
G04 #@! TD*
G04 #@! TA.AperFunction,ComponentPad*
%ADD29C,2.600000*%
G04 #@! TD*
G04 #@! TA.AperFunction,ComponentPad*
%ADD30C,1.200000*%
G04 #@! TD*
G04 #@! TA.AperFunction,ComponentPad*
%ADD31C,1.700000*%
G04 #@! TD*
G04 APERTURE END LIST*
D10*
G04 #@! TO.P,H1,1*
G04 #@! TO.N,GND*
X4000000Y-4000000D03*
G04 #@! TD*
G04 #@! TO.P,H2,1*
G04 #@! TO.N,GND*
X96000000Y-4000000D03*
G04 #@! TD*
G04 #@! TO.P,H3,1*
G04 #@! TO.N,GND*
X4000000Y-76000000D03*
G04 #@! TD*
G04 #@! TO.P,H4,1*
G04 #@! TO.N,GND*
X96000000Y-76000000D03*
G04 #@! TD*
D11*
G04 #@! TO.P,U1,1*
G04 #@! TO.N,GND*
X50000000Y-30000000D03*
D12*
G04 #@! TO.P,U1,2*
G04 #@! TO.N,+3V3*
X41500000Y-19200000D03*
G04 #@! TO.P,U1,3*
G04 #@! TO.N,ESP_EN*
X41500000Y-20470000D03*
G04 #@! TO.P,U1,15*
G04 #@! TO.N,GND*
X41500000Y-35710000D03*
G04 #@! TO.P,U1,4*
G04 #@! TO.N,HEATER_SSR_MCU*
X41500000Y-21740000D03*
G04 #@! TO.P,U1,5*
G04 #@! TO.N,FAN_PWM*
X41500000Y-23010000D03*
G04 #@! TO.P,U1,6*
G04 #@! TO.N,CO2_SOL_PWM*
X41500000Y-24280000D03*
G04 #@! TO.P,U1,7*
G04 #@! TO.N,SCL*
X41500000Y-25550000D03*
G04 #@! TO.P,U1,8*
G04 #@! TO.N,SDA*
X41500000Y-26820000D03*
G04 #@! TO.P,U1,9*
G04 #@! TO.N,DS18B20_DATA*
X41500000Y-28090000D03*
G04 #@! TO.P,U1,10*
G04 #@! TO.N,OVERTEMP_SW*
X41500000Y-29360000D03*
G04 #@! TO.P,U1,11*
G04 #@! TO.N,WINDOW_HEATER*
X41500000Y-30630000D03*
G04 #@! TO.P,U1,12*
G04 #@! TO.N,LED_HEAT_DRV*
X41500000Y-31900000D03*
G04 #@! TO.P,U1,13*
G04 #@! TO.N,STEP*
X41500000Y-33170000D03*
G04 #@! TO.P,U1,14*
G04 #@! TO.N,DIR*
X41500000Y-34440000D03*
G04 #@! TO.P,U1,20*
G04 #@! TO.N,EN_N*
X58500000Y-40800000D03*
G04 #@! TO.P,U1,21*
G04 #@! TO.N,TMC_UART_TX*
X58500000Y-39530000D03*
G04 #@! TO.P,U1,22*
G04 #@! TO.N,MHZ19_RX*
X58500000Y-38260000D03*
G04 #@! TO.P,U1,23*
G04 #@! TO.N,MHZ19_TX*
X58500000Y-36990000D03*
G04 #@! TO.P,U1,24*
G04 #@! TO.N,USB_DN*
X58500000Y-35720000D03*
G04 #@! TO.P,U1,25*
G04 #@! TO.N,USB_DP*
X58500000Y-34450000D03*
G04 #@! TO.P,U1,26*
G04 #@! TO.N,TMC_UART_RX*
X58500000Y-33180000D03*
G04 #@! TO.P,U1,27*
G04 #@! TO.N,ESP_BOOT*
X58500000Y-31910000D03*
G04 #@! TO.P,U1,28*
G04 #@! TO.N,LED_WIFI_DRV*
X58500000Y-30640000D03*
G04 #@! TO.P,U1,29*
G04 #@! TO.N,LED_FAULT_DRV*
X58500000Y-29370000D03*
G04 #@! TD*
D13*
G04 #@! TO.P,U2,1*
G04 #@! TO.N,+24V_SW*
X11500000Y-15000000D03*
G04 #@! TO.P,U2,2*
G04 #@! TO.N,+12V*
X13250000Y-15000000D03*
G04 #@! TO.P,U2,3*
G04 #@! TO.N,GND*
X15000000Y-15000000D03*
G04 #@! TO.P,U2,4*
G04 #@! TO.N,+5V*
X16750000Y-15000000D03*
G04 #@! TO.P,U2,5*
G04 #@! TO.N,+24V_SW*
X18500000Y-15000000D03*
D14*
G04 #@! TO.P,U2,TAB*
G04 #@! TO.N,GND*
X15000000Y-21000000D03*
G04 #@! TD*
D15*
G04 #@! TO.P,U3,1*
G04 #@! TO.N,GND*
X27700000Y-21100000D03*
G04 #@! TO.P,U3,2*
G04 #@! TO.N,+3V3*
X30000000Y-21100000D03*
G04 #@! TO.P,U3,3*
G04 #@! TO.N,+5V*
X32300000Y-21100000D03*
D16*
G04 #@! TO.P,U3,TAB*
G04 #@! TO.N,+3V3*
X30000000Y-14900000D03*
G04 #@! TD*
D17*
G04 #@! TO.P,U4,1*
G04 #@! TO.N,USB_DP*
X82300000Y-38095000D03*
G04 #@! TO.P,U4,2*
G04 #@! TO.N,USB_DN*
X82300000Y-39365000D03*
G04 #@! TO.P,U4,3*
G04 #@! TO.N,GND*
X82300000Y-40635000D03*
G04 #@! TO.P,U4,4*
G04 #@! TO.N,+3V3*
X82300000Y-41905000D03*
G04 #@! TO.P,U4,5*
G04 #@! TO.N,TMC_UART_TX*
X87700000Y-41905000D03*
G04 #@! TO.P,U4,6*
G04 #@! TO.N,TMC_UART_RX*
X87700000Y-40635000D03*
G04 #@! TO.P,U4,7*
G04 #@! TO.N,N/C*
X87700000Y-39365000D03*
G04 #@! TO.P,U4,8*
G04 #@! TO.N,+5V*
X87700000Y-38095000D03*
G04 #@! TD*
D18*
G04 #@! TO.P,J1,1*
G04 #@! TO.N,+24V_IN*
X8000000Y-8000000D03*
G04 #@! TO.P,J1,2*
G04 #@! TO.N,GND*
X3500000Y-13700000D03*
G04 #@! TO.P,J1,3*
X12500000Y-13700000D03*
G04 #@! TD*
D19*
G04 #@! TO.P,D1,1*
G04 #@! TO.N,+24V_SW*
X8000000Y-22000000D03*
G04 #@! TO.P,D1,2*
G04 #@! TO.N,+24V_IN*
X8000000Y-18000000D03*
G04 #@! TD*
G04 #@! TO.P,D2,1*
G04 #@! TO.N,+24V_SW*
X8000000Y-30000000D03*
G04 #@! TO.P,D2,2*
G04 #@! TO.N,GND*
X8000000Y-26000000D03*
G04 #@! TD*
D20*
G04 #@! TO.P,C1,1*
G04 #@! TO.N,+24V_SW*
X15500000Y-10000000D03*
G04 #@! TO.P,C1,2*
G04 #@! TO.N,GND*
X20500000Y-10000000D03*
G04 #@! TD*
D21*
G04 #@! TO.P,C2,1*
G04 #@! TO.N,+5V*
X20000000Y-22000000D03*
G04 #@! TO.P,C2,2*
G04 #@! TO.N,GND*
X24000000Y-22000000D03*
G04 #@! TD*
D22*
G04 #@! TO.P,L1,1*
G04 #@! TO.N,+12V*
X17000000Y-13000000D03*
G04 #@! TO.P,L1,2*
G04 #@! TO.N,+5V*
X23000000Y-13000000D03*
G04 #@! TD*
D23*
G04 #@! TO.P,C3,1*
G04 #@! TO.N,+3V3*
X44200000Y-17000000D03*
G04 #@! TO.P,C3,2*
G04 #@! TO.N,GND*
X45800000Y-17000000D03*
G04 #@! TD*
G04 #@! TO.P,C4,1*
G04 #@! TO.N,+3V3*
X49200000Y-17000000D03*
G04 #@! TO.P,C4,2*
G04 #@! TO.N,GND*
X50800000Y-17000000D03*
G04 #@! TD*
G04 #@! TO.P,C5,1*
G04 #@! TO.N,+3V3*
X54200000Y-17000000D03*
G04 #@! TO.P,C5,2*
G04 #@! TO.N,GND*
X55800000Y-17000000D03*
G04 #@! TD*
D24*
G04 #@! TO.P,C6,1*
G04 #@! TO.N,+3V3*
X39000000Y-17000000D03*
G04 #@! TO.P,C6,2*
G04 #@! TO.N,GND*
X41000000Y-17000000D03*
G04 #@! TD*
D23*
G04 #@! TO.P,C7,1*
G04 #@! TO.N,+5V*
X84200000Y-46000000D03*
G04 #@! TO.P,C7,2*
G04 #@! TO.N,GND*
X85800000Y-46000000D03*
G04 #@! TD*
G04 #@! TO.P,R1,1*
G04 #@! TO.N,+3V3*
X41200000Y-21000000D03*
G04 #@! TO.P,R1,2*
G04 #@! TO.N,ESP_EN*
X42800000Y-21000000D03*
G04 #@! TD*
G04 #@! TO.P,R2,1*
G04 #@! TO.N,+3V3*
X57200000Y-21000000D03*
G04 #@! TO.P,R2,2*
G04 #@! TO.N,ESP_BOOT*
X58800000Y-21000000D03*
G04 #@! TD*
G04 #@! TO.P,R3,1*
G04 #@! TO.N,+3V3*
X43200000Y-25000000D03*
G04 #@! TO.P,R3,2*
G04 #@! TO.N,SDA*
X44800000Y-25000000D03*
G04 #@! TD*
G04 #@! TO.P,R4,1*
G04 #@! TO.N,+3V3*
X46200000Y-25000000D03*
G04 #@! TO.P,R4,2*
G04 #@! TO.N,SCL*
X47800000Y-25000000D03*
G04 #@! TD*
G04 #@! TO.P,R5,1*
G04 #@! TO.N,+3V3*
X49200000Y-25000000D03*
G04 #@! TO.P,R5,2*
G04 #@! TO.N,DS18B20_DATA*
X50800000Y-25000000D03*
G04 #@! TD*
G04 #@! TO.P,R6,1*
G04 #@! TO.N,HEATER_SSR_MCU*
X69200000Y-65000000D03*
G04 #@! TO.P,R6,2*
G04 #@! TO.N,HEATER_SSR_PRE*
X70800000Y-65000000D03*
G04 #@! TD*
G04 #@! TO.P,R7,1*
G04 #@! TO.N,FAN_PWM*
X41200000Y-65000000D03*
G04 #@! TO.P,R7,2*
G04 #@! TO.N,FAN_GATE*
X42800000Y-65000000D03*
G04 #@! TD*
G04 #@! TO.P,R8,1*
G04 #@! TO.N,FAN_GATE*
X43200000Y-67000000D03*
G04 #@! TO.P,R8,2*
G04 #@! TO.N,GND*
X44800000Y-67000000D03*
G04 #@! TD*
G04 #@! TO.P,R9,1*
G04 #@! TO.N,LED_PWR*
X71200000Y-15000000D03*
G04 #@! TO.P,R9,2*
G04 #@! TO.N,+3V3*
X72800000Y-15000000D03*
G04 #@! TD*
G04 #@! TO.P,R10,1*
G04 #@! TO.N,LED_WIFI_DRV*
X75200000Y-15000000D03*
G04 #@! TO.P,R10,2*
G04 #@! TO.N,LED_WIFI*
X76800000Y-15000000D03*
G04 #@! TD*
G04 #@! TO.P,R11,1*
G04 #@! TO.N,LED_HEAT_DRV*
X79200000Y-15000000D03*
G04 #@! TO.P,R11,2*
G04 #@! TO.N,LED_HEAT*
X80800000Y-15000000D03*
G04 #@! TD*
G04 #@! TO.P,R12,1*
G04 #@! TO.N,LED_FAULT_DRV*
X83200000Y-15000000D03*
G04 #@! TO.P,R12,2*
G04 #@! TO.N,LED_FAULT*
X84800000Y-15000000D03*
G04 #@! TD*
D25*
G04 #@! TO.P,LD1,1*
G04 #@! TO.N,LED_PWR*
X71000000Y-11000000D03*
G04 #@! TO.P,LD1,2*
G04 #@! TO.N,GND*
X73000000Y-11000000D03*
G04 #@! TD*
G04 #@! TO.P,LD2,1*
G04 #@! TO.N,LED_WIFI*
X75000000Y-11000000D03*
G04 #@! TO.P,LD2,2*
G04 #@! TO.N,GND*
X77000000Y-11000000D03*
G04 #@! TD*
G04 #@! TO.P,LD3,1*
G04 #@! TO.N,LED_HEAT*
X79000000Y-11000000D03*
G04 #@! TO.P,LD3,2*
G04 #@! TO.N,GND*
X81000000Y-11000000D03*
G04 #@! TD*
G04 #@! TO.P,LD4,1*
G04 #@! TO.N,LED_FAULT*
X83000000Y-11000000D03*
G04 #@! TO.P,LD4,2*
G04 #@! TO.N,GND*
X85000000Y-11000000D03*
G04 #@! TD*
D26*
G04 #@! TO.P,Q1,1*
G04 #@! TO.N,FAN_GATE*
X47460000Y-65000000D03*
G04 #@! TO.P,Q1,2*
G04 #@! TO.N,FAN_OUT_N*
X50000000Y-65000000D03*
G04 #@! TO.P,Q1,3*
G04 #@! TO.N,GND*
X52540000Y-65000000D03*
G04 #@! TD*
D19*
G04 #@! TO.P,D3,1*
G04 #@! TO.N,+12V*
X46000000Y-70000000D03*
G04 #@! TO.P,D3,2*
G04 #@! TO.N,FAN_OUT_N*
X50000000Y-70000000D03*
G04 #@! TD*
D26*
G04 #@! TO.P,Q2,1*
G04 #@! TO.N,CO2_SOL_PWM*
X59460000Y-65000000D03*
G04 #@! TO.P,Q2,2*
G04 #@! TO.N,CO2_SOL_OUT_N*
X62000000Y-65000000D03*
G04 #@! TO.P,Q2,3*
G04 #@! TO.N,GND*
X64540000Y-65000000D03*
G04 #@! TD*
D19*
G04 #@! TO.P,D4,1*
G04 #@! TO.N,+12V*
X58000000Y-70000000D03*
G04 #@! TO.P,D4,2*
G04 #@! TO.N,CO2_SOL_OUT_N*
X62000000Y-70000000D03*
G04 #@! TD*
D27*
G04 #@! TO.P,K1,1*
G04 #@! TO.N,+5V*
X75460000Y-61190000D03*
G04 #@! TO.P,K1,2*
G04 #@! TO.N,CO2_SOL_PWM*
X80540000Y-61190000D03*
G04 #@! TO.P,K1,3*
G04 #@! TO.N,+12V*
X75460000Y-65000000D03*
G04 #@! TO.P,K1,4*
G04 #@! TO.N,CO2_SOL_OUT_N*
X80540000Y-65000000D03*
G04 #@! TO.P,K1,5*
G04 #@! TO.N,N/C*
X75460000Y-68810000D03*
G04 #@! TO.P,K1,6*
X80540000Y-68810000D03*
G04 #@! TD*
D28*
G04 #@! TO.P,J2,1*
G04 #@! TO.N,HEATER_SSR_PRE*
X74500000Y-55000000D03*
G04 #@! TO.P,J2,2*
G04 #@! TO.N,HEATER_SSR_OUT*
X89500000Y-55000000D03*
G04 #@! TD*
D29*
G04 #@! TO.P,J3,1*
G04 #@! TO.N,HEATER_SSR_OUT*
X90460000Y-65000000D03*
G04 #@! TO.P,J3,2*
G04 #@! TO.N,GND*
X95540000Y-65000000D03*
G04 #@! TD*
G04 #@! TO.P,J4,1*
G04 #@! TO.N,+12V*
X47460000Y-75000000D03*
G04 #@! TO.P,J4,2*
G04 #@! TO.N,FAN_OUT_N*
X52540000Y-75000000D03*
G04 #@! TD*
G04 #@! TO.P,J5,1*
G04 #@! TO.N,+12V*
X59460000Y-75000000D03*
G04 #@! TO.P,J5,2*
G04 #@! TO.N,CO2_SOL_OUT_N*
X64540000Y-75000000D03*
G04 #@! TD*
D21*
G04 #@! TO.P,J6,1*
G04 #@! TO.N,+3V3*
X21250000Y-5000000D03*
G04 #@! TO.P,J6,2*
G04 #@! TO.N,SDA*
X23750000Y-5000000D03*
G04 #@! TO.P,J6,3*
G04 #@! TO.N,SCL*
X26250000Y-5000000D03*
G04 #@! TO.P,J6,4*
G04 #@! TO.N,GND*
X28750000Y-5000000D03*
G04 #@! TD*
G04 #@! TO.P,J7,1*
G04 #@! TO.N,+5V*
X41250000Y-5000000D03*
G04 #@! TO.P,J7,2*
G04 #@! TO.N,MHZ19_TX*
X43750000Y-5000000D03*
G04 #@! TO.P,J7,3*
G04 #@! TO.N,MHZ19_RX*
X46250000Y-5000000D03*
G04 #@! TO.P,J7,4*
G04 #@! TO.N,GND*
X48750000Y-5000000D03*
G04 #@! TD*
G04 #@! TO.P,J8,1*
G04 #@! TO.N,+3V3*
X62500000Y-5000000D03*
G04 #@! TO.P,J8,2*
G04 #@! TO.N,DS18B20_DATA*
X65000000Y-5000000D03*
G04 #@! TO.P,J8,3*
G04 #@! TO.N,GND*
X67500000Y-5000000D03*
G04 #@! TD*
G04 #@! TO.P,J9,1*
G04 #@! TO.N,+12V*
X80750000Y-5000000D03*
G04 #@! TO.P,J9,2*
G04 #@! TO.N,WINDOW_HEATER*
X83250000Y-5000000D03*
G04 #@! TD*
G04 #@! TO.P,J10,VBUS*
G04 #@! TO.N,VBUS*
X95000000Y-43000000D03*
G04 #@! TO.P,J10,GND*
G04 #@! TO.N,GND*
X95000000Y-41000000D03*
D30*
G04 #@! TO.P,J10,D+*
G04 #@! TO.N,USB_DP*
X95000000Y-39000000D03*
G04 #@! TO.P,J10,D-*
G04 #@! TO.N,USB_DN*
X95000000Y-37000000D03*
G04 #@! TO.P,J10,CC1*
G04 #@! TO.N,USB_CC1*
X95000000Y-35000000D03*
G04 #@! TO.P,J10,CC2*
G04 #@! TO.N,USB_CC2*
X95000000Y-45000000D03*
D28*
G04 #@! TO.P,J10,M1*
G04 #@! TO.N,GND*
X92500000Y-46500000D03*
G04 #@! TO.P,J10,M2*
X92500000Y-33500000D03*
G04 #@! TD*
D31*
G04 #@! TO.P,J11,1*
G04 #@! TO.N,STEP*
X18650000Y-72000000D03*
G04 #@! TO.P,J11,2*
G04 #@! TO.N,DIR*
X21190000Y-72000000D03*
G04 #@! TO.P,J11,3*
G04 #@! TO.N,EN_N*
X23730000Y-72000000D03*
G04 #@! TO.P,J11,4*
G04 #@! TO.N,+24V_SW*
X26270000Y-72000000D03*
G04 #@! TO.P,J11,5*
G04 #@! TO.N,TMC_UART_TX*
X28810000Y-72000000D03*
G04 #@! TO.P,J11,6*
G04 #@! TO.N,TMC_UART_RX*
X31350000Y-72000000D03*
G04 #@! TD*
G04 #@! TO.P,J12,1*
G04 #@! TO.N,+3V3*
X84190000Y-25000000D03*
G04 #@! TO.P,J12,2*
G04 #@! TO.N,SWDIO*
X86730000Y-25000000D03*
G04 #@! TO.P,J12,3*
G04 #@! TO.N,SWCLK*
X89270000Y-25000000D03*
G04 #@! TO.P,J12,4*
G04 #@! TO.N,GND*
X91810000Y-25000000D03*
G04 #@! TD*
D23*
G04 #@! TO.P,R13,1*
G04 #@! TO.N,USB_CC1*
X89200000Y-45000000D03*
G04 #@! TO.P,R13,2*
G04 #@! TO.N,GND*
X90800000Y-45000000D03*
G04 #@! TD*
G04 #@! TO.P,R14,1*
G04 #@! TO.N,USB_CC2*
X89200000Y-35000000D03*
G04 #@! TO.P,R14,2*
G04 #@! TO.N,GND*
X90800000Y-35000000D03*
G04 #@! TD*
D19*
G04 #@! TO.P,D5,1*
G04 #@! TO.N,+5V*
X86000000Y-30000000D03*
G04 #@! TO.P,D5,2*
G04 #@! TO.N,VBUS*
X90000000Y-30000000D03*
G04 #@! TD*
M02*
