G04 #@! TF.GenerationSoftware,KiCad,Pcbnew,9.0.7*
G04 #@! TF.CreationDate,2026-04-22T00:05:46-05:00*
G04 #@! TF.ProjectId,controller,636f6e74-726f-46c6-9c65-722e6b696361,rev?*
G04 #@! TF.SameCoordinates,Original*
G04 #@! TF.FileFunction,Copper,L2,Bot*
G04 #@! TF.FilePolarity,Positive*
%FSLAX46Y46*%
G04 Gerber Fmt 4.6, Leading zero omitted, Abs format (unit mm)*
G04 Created by KiCad (PCBNEW 9.0.7) date 2026-04-22 00:05:46*
%MOMM*%
%LPD*%
G01*
G04 APERTURE LIST*
G04 #@! TA.AperFunction,ComponentPad*
%ADD10C,6.350000*%
G04 #@! TD*
G04 #@! TA.AperFunction,ComponentPad*
%ADD11C,2.500000*%
G04 #@! TD*
G04 #@! TA.AperFunction,ComponentPad*
%ADD12C,1.800000*%
G04 #@! TD*
G04 #@! TA.AperFunction,ComponentPad*
%ADD13C,1.600000*%
G04 #@! TD*
G04 #@! TA.AperFunction,ComponentPad*
%ADD14C,2.200000*%
G04 #@! TD*
G04 #@! TA.AperFunction,ComponentPad*
%ADD15C,1.500000*%
G04 #@! TD*
G04 #@! TA.AperFunction,ComponentPad*
%ADD16C,2.000000*%
G04 #@! TD*
G04 #@! TA.AperFunction,ComponentPad*
%ADD17C,2.600000*%
G04 #@! TD*
G04 #@! TA.AperFunction,ComponentPad*
%ADD18C,1.200000*%
G04 #@! TD*
G04 #@! TA.AperFunction,ComponentPad*
%ADD19C,1.700000*%
G04 #@! TD*
G04 APERTURE END LIST*
D10*
G04 #@! TO.P,H1,1*
G04 #@! TO.N,GND*
X4000000Y-4000000D03*
G04 #@! TD*
G04 #@! TO.P,H2,1*
G04 #@! TO.N,GND*
X96000000Y-4000000D03*
G04 #@! TD*
G04 #@! TO.P,H3,1*
G04 #@! TO.N,GND*
X4000000Y-76000000D03*
G04 #@! TD*
G04 #@! TO.P,H4,1*
G04 #@! TO.N,GND*
X96000000Y-76000000D03*
G04 #@! TD*
D11*
G04 #@! TO.P,J1,1*
G04 #@! TO.N,+24V_IN*
X8000000Y-8000000D03*
G04 #@! TO.P,J1,2*
G04 #@! TO.N,GND*
X3500000Y-13700000D03*
G04 #@! TO.P,J1,3*
X12500000Y-13700000D03*
G04 #@! TD*
D12*
G04 #@! TO.P,C1,1*
G04 #@! TO.N,+24V_SW*
X15500000Y-10000000D03*
G04 #@! TO.P,C1,2*
G04 #@! TO.N,GND*
X20500000Y-10000000D03*
G04 #@! TD*
D13*
G04 #@! TO.P,C2,1*
G04 #@! TO.N,+5V*
X20000000Y-22000000D03*
G04 #@! TO.P,C2,2*
G04 #@! TO.N,GND*
X24000000Y-22000000D03*
G04 #@! TD*
D14*
G04 #@! TO.P,Q1,1*
G04 #@! TO.N,FAN_GATE*
X47460000Y-65000000D03*
G04 #@! TO.P,Q1,2*
G04 #@! TO.N,FAN_OUT_N*
X50000000Y-65000000D03*
G04 #@! TO.P,Q1,3*
G04 #@! TO.N,GND*
X52540000Y-65000000D03*
G04 #@! TD*
G04 #@! TO.P,Q2,1*
G04 #@! TO.N,CO2_SOL_PWM*
X59460000Y-65000000D03*
G04 #@! TO.P,Q2,2*
G04 #@! TO.N,CO2_SOL_OUT_N*
X62000000Y-65000000D03*
G04 #@! TO.P,Q2,3*
G04 #@! TO.N,GND*
X64540000Y-65000000D03*
G04 #@! TD*
D15*
G04 #@! TO.P,K1,1*
G04 #@! TO.N,+5V*
X75460000Y-61190000D03*
G04 #@! TO.P,K1,2*
G04 #@! TO.N,CO2_SOL_PWM*
X80540000Y-61190000D03*
G04 #@! TO.P,K1,3*
G04 #@! TO.N,+12V*
X75460000Y-65000000D03*
G04 #@! TO.P,K1,4*
G04 #@! TO.N,CO2_SOL_OUT_N*
X80540000Y-65000000D03*
G04 #@! TO.P,K1,5*
G04 #@! TO.N,N/C*
X75460000Y-68810000D03*
G04 #@! TO.P,K1,6*
X80540000Y-68810000D03*
G04 #@! TD*
D16*
G04 #@! TO.P,J2,1*
G04 #@! TO.N,HEATER_SSR_PRE*
X74500000Y-55000000D03*
G04 #@! TO.P,J2,2*
G04 #@! TO.N,HEATER_SSR_OUT*
X89500000Y-55000000D03*
G04 #@! TD*
D17*
G04 #@! TO.P,J3,1*
G04 #@! TO.N,HEATER_SSR_OUT*
X90460000Y-65000000D03*
G04 #@! TO.P,J3,2*
G04 #@! TO.N,GND*
X95540000Y-65000000D03*
G04 #@! TD*
G04 #@! TO.P,J4,1*
G04 #@! TO.N,+12V*
X47460000Y-75000000D03*
G04 #@! TO.P,J4,2*
G04 #@! TO.N,FAN_OUT_N*
X52540000Y-75000000D03*
G04 #@! TD*
G04 #@! TO.P,J5,1*
G04 #@! TO.N,+12V*
X59460000Y-75000000D03*
G04 #@! TO.P,J5,2*
G04 #@! TO.N,CO2_SOL_OUT_N*
X64540000Y-75000000D03*
G04 #@! TD*
D13*
G04 #@! TO.P,J6,1*
G04 #@! TO.N,+3V3*
X21250000Y-5000000D03*
G04 #@! TO.P,J6,2*
G04 #@! TO.N,SDA*
X23750000Y-5000000D03*
G04 #@! TO.P,J6,3*
G04 #@! TO.N,SCL*
X26250000Y-5000000D03*
G04 #@! TO.P,J6,4*
G04 #@! TO.N,GND*
X28750000Y-5000000D03*
G04 #@! TD*
G04 #@! TO.P,J7,1*
G04 #@! TO.N,+5V*
X41250000Y-5000000D03*
G04 #@! TO.P,J7,2*
G04 #@! TO.N,MHZ19_TX*
X43750000Y-5000000D03*
G04 #@! TO.P,J7,3*
G04 #@! TO.N,MHZ19_RX*
X46250000Y-5000000D03*
G04 #@! TO.P,J7,4*
G04 #@! TO.N,GND*
X48750000Y-5000000D03*
G04 #@! TD*
G04 #@! TO.P,J8,1*
G04 #@! TO.N,+3V3*
X62500000Y-5000000D03*
G04 #@! TO.P,J8,2*
G04 #@! TO.N,DS18B20_DATA*
X65000000Y-5000000D03*
G04 #@! TO.P,J8,3*
G04 #@! TO.N,GND*
X67500000Y-5000000D03*
G04 #@! TD*
G04 #@! TO.P,J9,1*
G04 #@! TO.N,+12V*
X80750000Y-5000000D03*
G04 #@! TO.P,J9,2*
G04 #@! TO.N,WINDOW_HEATER*
X83250000Y-5000000D03*
G04 #@! TD*
G04 #@! TO.P,J10,VBUS*
G04 #@! TO.N,VBUS*
X95000000Y-43000000D03*
G04 #@! TO.P,J10,GND*
G04 #@! TO.N,GND*
X95000000Y-41000000D03*
D18*
G04 #@! TO.P,J10,D+*
G04 #@! TO.N,USB_DP*
X95000000Y-39000000D03*
G04 #@! TO.P,J10,D-*
G04 #@! TO.N,USB_DN*
X95000000Y-37000000D03*
G04 #@! TO.P,J10,CC1*
G04 #@! TO.N,USB_CC1*
X95000000Y-35000000D03*
G04 #@! TO.P,J10,CC2*
G04 #@! TO.N,USB_CC2*
X95000000Y-45000000D03*
D16*
G04 #@! TO.P,J10,M1*
G04 #@! TO.N,GND*
X92500000Y-46500000D03*
G04 #@! TO.P,J10,M2*
X92500000Y-33500000D03*
G04 #@! TD*
D19*
G04 #@! TO.P,J11,1*
G04 #@! TO.N,STEP*
X18650000Y-72000000D03*
G04 #@! TO.P,J11,2*
G04 #@! TO.N,DIR*
X21190000Y-72000000D03*
G04 #@! TO.P,J11,3*
G04 #@! TO.N,EN_N*
X23730000Y-72000000D03*
G04 #@! TO.P,J11,4*
G04 #@! TO.N,+24V_SW*
X26270000Y-72000000D03*
G04 #@! TO.P,J11,5*
G04 #@! TO.N,TMC_UART_TX*
X28810000Y-72000000D03*
G04 #@! TO.P,J11,6*
G04 #@! TO.N,TMC_UART_RX*
X31350000Y-72000000D03*
G04 #@! TD*
G04 #@! TO.P,J12,1*
G04 #@! TO.N,+3V3*
X84190000Y-25000000D03*
G04 #@! TO.P,J12,2*
G04 #@! TO.N,SWDIO*
X86730000Y-25000000D03*
G04 #@! TO.P,J12,3*
G04 #@! TO.N,SWCLK*
X89270000Y-25000000D03*
G04 #@! TO.P,J12,4*
G04 #@! TO.N,GND*
X91810000Y-25000000D03*
G04 #@! TD*
M02*
