G04 #@! TF.GenerationSoftware,KiCad,Pcbnew,9.0.7*
G04 #@! TF.CreationDate,2026-04-22T00:19:40-05:00*
G04 #@! TF.ProjectId,controller,636f6e74-726f-46c6-9c65-722e6b696361,rev?*
G04 #@! TF.SameCoordinates,Original*
G04 #@! TF.FileFunction,Legend,Top*
G04 #@! TF.FilePolarity,Positive*
%FSLAX46Y46*%
G04 Gerber Fmt 4.6, Leading zero omitted, Abs format (unit mm)*
G04 Created by KiCad (PCBNEW 9.0.7) date 2026-04-22 00:19:40*
%MOMM*%
%LPD*%
G01*
G04 APERTURE LIST*
%ADD10C,6.350000*%
%ADD11R,6.000000X6.000000*%
%ADD12R,1.500000X0.900000*%
%ADD13R,1.400000X0.800000*%
%ADD14R,9.000000X6.000000*%
%ADD15R,1.600000X0.900000*%
%ADD16R,3.500000X1.600000*%
%ADD17R,1.500000X0.600000*%
%ADD18C,2.500000*%
%ADD19R,1.800000X2.200000*%
%ADD20C,1.800000*%
%ADD21C,1.600000*%
%ADD22R,2.500000X3.000000*%
%ADD23R,0.950000X0.950000*%
%ADD24R,1.200000X1.400000*%
%ADD25R,1.100000X1.200000*%
%ADD26C,2.200000*%
%ADD27C,1.500000*%
%ADD28C,2.000000*%
%ADD29C,2.600000*%
%ADD30C,1.200000*%
%ADD31C,1.700000*%
G04 APERTURE END LIST*
%LPC*%
D10*
G04 #@! TO.C,H1*
X4000000Y-4000000D03*
G04 #@! TD*
G04 #@! TO.C,H2*
X96000000Y-4000000D03*
G04 #@! TD*
G04 #@! TO.C,H3*
X4000000Y-76000000D03*
G04 #@! TD*
G04 #@! TO.C,H4*
X96000000Y-76000000D03*
G04 #@! TD*
D11*
G04 #@! TO.C,U1*
X50000000Y-30000000D03*
D12*
X41500000Y-19200000D03*
X41500000Y-20470000D03*
X41500000Y-21740000D03*
X41500000Y-23010000D03*
X41500000Y-24280000D03*
X41500000Y-25550000D03*
X41500000Y-26820000D03*
X41500000Y-28090000D03*
X41500000Y-29360000D03*
X41500000Y-30630000D03*
X41500000Y-31900000D03*
X41500000Y-33170000D03*
X41500000Y-34440000D03*
X41500000Y-35710000D03*
X58500000Y-40800000D03*
X58500000Y-39530000D03*
X58500000Y-38260000D03*
X58500000Y-36990000D03*
X58500000Y-35720000D03*
X58500000Y-34450000D03*
X58500000Y-33180000D03*
X58500000Y-31910000D03*
X58500000Y-30640000D03*
X58500000Y-29370000D03*
G04 #@! TD*
D13*
G04 #@! TO.C,U2*
X11500000Y-15000000D03*
X13250000Y-15000000D03*
X15000000Y-15000000D03*
X16750000Y-15000000D03*
X18500000Y-15000000D03*
D14*
X15000000Y-21000000D03*
G04 #@! TD*
D15*
G04 #@! TO.C,U3*
X27700000Y-21100000D03*
X30000000Y-21100000D03*
X32300000Y-21100000D03*
D16*
X30000000Y-14900000D03*
G04 #@! TD*
D17*
G04 #@! TO.C,U4*
X82300000Y-38095000D03*
X82300000Y-39365000D03*
X82300000Y-40635000D03*
X82300000Y-41905000D03*
X87700000Y-41905000D03*
X87700000Y-40635000D03*
X87700000Y-39365000D03*
X87700000Y-38095000D03*
G04 #@! TD*
D18*
G04 #@! TO.C,J1*
X10000000Y-5000000D03*
X5500000Y-10700000D03*
X14500000Y-10700000D03*
G04 #@! TD*
D19*
G04 #@! TO.C,D1*
X8000000Y-22000000D03*
X8000000Y-18000000D03*
G04 #@! TD*
G04 #@! TO.C,D2*
X8000000Y-30000000D03*
X8000000Y-26000000D03*
G04 #@! TD*
D20*
G04 #@! TO.C,C1*
X33500000Y-10000000D03*
X38500000Y-10000000D03*
G04 #@! TD*
D21*
G04 #@! TO.C,C2*
X23000000Y-28000000D03*
X27000000Y-28000000D03*
G04 #@! TD*
D22*
G04 #@! TO.C,L1*
X24000000Y-11000000D03*
X30000000Y-11000000D03*
G04 #@! TD*
D23*
G04 #@! TO.C,C3*
X44200000Y-17000000D03*
X45800000Y-17000000D03*
G04 #@! TD*
G04 #@! TO.C,C4*
X49200000Y-17000000D03*
X50800000Y-17000000D03*
G04 #@! TD*
G04 #@! TO.C,C5*
X54200000Y-17000000D03*
X55800000Y-17000000D03*
G04 #@! TD*
D24*
G04 #@! TO.C,C6*
X39000000Y-17000000D03*
X41000000Y-17000000D03*
G04 #@! TD*
D23*
G04 #@! TO.C,C7*
X84200000Y-46000000D03*
X85800000Y-46000000D03*
G04 #@! TD*
G04 #@! TO.C,R1*
X41200000Y-43000000D03*
X42800000Y-43000000D03*
G04 #@! TD*
G04 #@! TO.C,R2*
X57200000Y-43000000D03*
X58800000Y-43000000D03*
G04 #@! TD*
G04 #@! TO.C,R3*
X43200000Y-25000000D03*
X44800000Y-25000000D03*
G04 #@! TD*
G04 #@! TO.C,R4*
X46200000Y-25000000D03*
X47800000Y-25000000D03*
G04 #@! TD*
G04 #@! TO.C,R5*
X49200000Y-25000000D03*
X50800000Y-25000000D03*
G04 #@! TD*
G04 #@! TO.C,R6*
X69200000Y-65000000D03*
X70800000Y-65000000D03*
G04 #@! TD*
G04 #@! TO.C,R7*
X41200000Y-65000000D03*
X42800000Y-65000000D03*
G04 #@! TD*
G04 #@! TO.C,R8*
X43200000Y-67000000D03*
X44800000Y-67000000D03*
G04 #@! TD*
G04 #@! TO.C,R9*
X71200000Y-15000000D03*
X72800000Y-15000000D03*
G04 #@! TD*
G04 #@! TO.C,R10*
X75200000Y-15000000D03*
X76800000Y-15000000D03*
G04 #@! TD*
G04 #@! TO.C,R11*
X79200000Y-15000000D03*
X80800000Y-15000000D03*
G04 #@! TD*
G04 #@! TO.C,R12*
X83200000Y-15000000D03*
X84800000Y-15000000D03*
G04 #@! TD*
D25*
G04 #@! TO.C,LD1*
X71000000Y-11000000D03*
X73000000Y-11000000D03*
G04 #@! TD*
G04 #@! TO.C,LD2*
X75000000Y-11000000D03*
X77000000Y-11000000D03*
G04 #@! TD*
G04 #@! TO.C,LD3*
X79000000Y-11000000D03*
X81000000Y-11000000D03*
G04 #@! TD*
G04 #@! TO.C,LD4*
X83000000Y-11000000D03*
X85000000Y-11000000D03*
G04 #@! TD*
D26*
G04 #@! TO.C,Q1*
X47460000Y-65000000D03*
X50000000Y-65000000D03*
X52540000Y-65000000D03*
G04 #@! TD*
D19*
G04 #@! TO.C,D3*
X46000000Y-70000000D03*
X50000000Y-70000000D03*
G04 #@! TD*
D26*
G04 #@! TO.C,Q2*
X59460000Y-65000000D03*
X62000000Y-65000000D03*
X64540000Y-65000000D03*
G04 #@! TD*
D19*
G04 #@! TO.C,D4*
X58000000Y-70000000D03*
X62000000Y-70000000D03*
G04 #@! TD*
D27*
G04 #@! TO.C,K1*
X75460000Y-61190000D03*
X80540000Y-61190000D03*
X75460000Y-65000000D03*
X80540000Y-65000000D03*
X75460000Y-68810000D03*
X80540000Y-68810000D03*
G04 #@! TD*
D28*
G04 #@! TO.C,J2*
X74500000Y-55000000D03*
X89500000Y-55000000D03*
G04 #@! TD*
D29*
G04 #@! TO.C,J3*
X90460000Y-65000000D03*
X95540000Y-65000000D03*
G04 #@! TD*
G04 #@! TO.C,J4*
X47460000Y-75000000D03*
X52540000Y-75000000D03*
G04 #@! TD*
G04 #@! TO.C,J5*
X59460000Y-75000000D03*
X64540000Y-75000000D03*
G04 #@! TD*
D21*
G04 #@! TO.C,J6*
X21250000Y-5000000D03*
X23750000Y-5000000D03*
X26250000Y-5000000D03*
X28750000Y-5000000D03*
G04 #@! TD*
G04 #@! TO.C,J7*
X41250000Y-5000000D03*
X43750000Y-5000000D03*
X46250000Y-5000000D03*
X48750000Y-5000000D03*
G04 #@! TD*
G04 #@! TO.C,J8*
X62500000Y-5000000D03*
X65000000Y-5000000D03*
X67500000Y-5000000D03*
G04 #@! TD*
G04 #@! TO.C,J9*
X80750000Y-5000000D03*
X83250000Y-5000000D03*
G04 #@! TD*
D30*
G04 #@! TO.C,J10*
X95000000Y-35000000D03*
X95000000Y-45000000D03*
X95000000Y-39000000D03*
X95000000Y-37000000D03*
D21*
X95000000Y-41000000D03*
D28*
X92500000Y-46500000D03*
X92500000Y-33500000D03*
D21*
X95000000Y-43000000D03*
G04 #@! TD*
D31*
G04 #@! TO.C,J11*
X18650000Y-72000000D03*
X21190000Y-72000000D03*
X23730000Y-72000000D03*
X26270000Y-72000000D03*
X28810000Y-72000000D03*
X31350000Y-72000000D03*
G04 #@! TD*
G04 #@! TO.C,J12*
X84190000Y-25000000D03*
X86730000Y-25000000D03*
X89270000Y-25000000D03*
X91810000Y-25000000D03*
G04 #@! TD*
D23*
G04 #@! TO.C,R13*
X89200000Y-45000000D03*
X90800000Y-45000000D03*
G04 #@! TD*
G04 #@! TO.C,R14*
X89200000Y-35000000D03*
X90800000Y-35000000D03*
G04 #@! TD*
D19*
G04 #@! TO.C,D5*
X86000000Y-30000000D03*
X90000000Y-30000000D03*
G04 #@! TD*
%LPD*%
M02*
