G04 #@! TF.GenerationSoftware,KiCad,Pcbnew,9.0.7*
G04 #@! TF.CreationDate,2026-04-22T00:05:46-05:00*
G04 #@! TF.ProjectId,controller,636f6e74-726f-46c6-9c65-722e6b696361,rev?*
G04 #@! TF.SameCoordinates,Original*
G04 #@! TF.FileFunction,Soldermask,Bot*
G04 #@! TF.FilePolarity,Negative*
%FSLAX46Y46*%
G04 Gerber Fmt 4.6, Leading zero omitted, Abs format (unit mm)*
G04 Created by KiCad (PCBNEW 9.0.7) date 2026-04-22 00:05:46*
%MOMM*%
%LPD*%
G01*
G04 APERTURE LIST*
%ADD10C,6.350000*%
%ADD11C,2.500000*%
%ADD12C,1.800000*%
%ADD13C,1.600000*%
%ADD14C,2.200000*%
%ADD15C,1.500000*%
%ADD16C,2.000000*%
%ADD17C,2.600000*%
%ADD18C,1.200000*%
%ADD19C,1.700000*%
G04 APERTURE END LIST*
D10*
G04 #@! TO.C,H1*
X4000000Y-4000000D03*
G04 #@! TD*
G04 #@! TO.C,H2*
X96000000Y-4000000D03*
G04 #@! TD*
G04 #@! TO.C,H3*
X4000000Y-76000000D03*
G04 #@! TD*
G04 #@! TO.C,H4*
X96000000Y-76000000D03*
G04 #@! TD*
D11*
G04 #@! TO.C,J1*
X8000000Y-8000000D03*
X3500000Y-13700000D03*
X12500000Y-13700000D03*
G04 #@! TD*
D12*
G04 #@! TO.C,C1*
X15500000Y-10000000D03*
X20500000Y-10000000D03*
G04 #@! TD*
D13*
G04 #@! TO.C,C2*
X20000000Y-22000000D03*
X24000000Y-22000000D03*
G04 #@! TD*
D14*
G04 #@! TO.C,Q1*
X47460000Y-65000000D03*
X50000000Y-65000000D03*
X52540000Y-65000000D03*
G04 #@! TD*
G04 #@! TO.C,Q2*
X59460000Y-65000000D03*
X62000000Y-65000000D03*
X64540000Y-65000000D03*
G04 #@! TD*
D15*
G04 #@! TO.C,K1*
X75460000Y-61190000D03*
X80540000Y-61190000D03*
X75460000Y-65000000D03*
X80540000Y-65000000D03*
X75460000Y-68810000D03*
X80540000Y-68810000D03*
G04 #@! TD*
D16*
G04 #@! TO.C,J2*
X74500000Y-55000000D03*
X89500000Y-55000000D03*
G04 #@! TD*
D17*
G04 #@! TO.C,J3*
X90460000Y-65000000D03*
X95540000Y-65000000D03*
G04 #@! TD*
G04 #@! TO.C,J4*
X47460000Y-75000000D03*
X52540000Y-75000000D03*
G04 #@! TD*
G04 #@! TO.C,J5*
X59460000Y-75000000D03*
X64540000Y-75000000D03*
G04 #@! TD*
D13*
G04 #@! TO.C,J6*
X21250000Y-5000000D03*
X23750000Y-5000000D03*
X26250000Y-5000000D03*
X28750000Y-5000000D03*
G04 #@! TD*
G04 #@! TO.C,J7*
X41250000Y-5000000D03*
X43750000Y-5000000D03*
X46250000Y-5000000D03*
X48750000Y-5000000D03*
G04 #@! TD*
G04 #@! TO.C,J8*
X62500000Y-5000000D03*
X65000000Y-5000000D03*
X67500000Y-5000000D03*
G04 #@! TD*
G04 #@! TO.C,J9*
X80750000Y-5000000D03*
X83250000Y-5000000D03*
G04 #@! TD*
G04 #@! TO.C,J10*
X95000000Y-43000000D03*
X95000000Y-41000000D03*
D18*
X95000000Y-39000000D03*
X95000000Y-37000000D03*
X95000000Y-35000000D03*
X95000000Y-45000000D03*
D16*
X92500000Y-46500000D03*
X92500000Y-33500000D03*
G04 #@! TD*
D19*
G04 #@! TO.C,J11*
X18650000Y-72000000D03*
X21190000Y-72000000D03*
X23730000Y-72000000D03*
X26270000Y-72000000D03*
X28810000Y-72000000D03*
X31350000Y-72000000D03*
G04 #@! TD*
G04 #@! TO.C,J12*
X84190000Y-25000000D03*
X86730000Y-25000000D03*
X89270000Y-25000000D03*
X91810000Y-25000000D03*
G04 #@! TD*
M02*
