G04 #@! TF.GenerationSoftware,KiCad,Pcbnew,9.0.7*
G04 #@! TF.CreationDate,2026-04-22T00:19:40-05:00*
G04 #@! TF.ProjectId,controller,636f6e74-726f-46c6-9c65-722e6b696361,rev?*
G04 #@! TF.SameCoordinates,Original*
G04 #@! TF.FileFunction,Copper,L1,Top*
G04 #@! TF.FilePolarity,Positive*
%FSLAX46Y46*%
G04 Gerber Fmt 4.6, Leading zero omitted, Abs format (unit mm)*
G04 Created by KiCad (PCBNEW 9.0.7) date 2026-04-22 00:19:40*
%MOMM*%
%LPD*%
G01*
G04 APERTURE LIST*
G04 #@! TA.AperFunction,ComponentPad*
%ADD10C,6.350000*%
G04 #@! TD*
G04 #@! TA.AperFunction,SMDPad,CuDef*
%ADD11R,6.000000X6.000000*%
G04 #@! TD*
G04 #@! TA.AperFunction,SMDPad,CuDef*
%ADD12R,1.500000X0.900000*%
G04 #@! TD*
G04 #@! TA.AperFunction,SMDPad,CuDef*
%ADD13R,1.400000X0.800000*%
G04 #@! TD*
G04 #@! TA.AperFunction,SMDPad,CuDef*
%ADD14R,9.000000X6.000000*%
G04 #@! TD*
G04 #@! TA.AperFunction,SMDPad,CuDef*
%ADD15R,1.600000X0.900000*%
G04 #@! TD*
G04 #@! TA.AperFunction,SMDPad,CuDef*
%ADD16R,3.500000X1.600000*%
G04 #@! TD*
G04 #@! TA.AperFunction,SMDPad,CuDef*
%ADD17R,1.500000X0.600000*%
G04 #@! TD*
G04 #@! TA.AperFunction,ComponentPad*
%ADD18C,2.500000*%
G04 #@! TD*
G04 #@! TA.AperFunction,SMDPad,CuDef*
%ADD19R,1.800000X2.200000*%
G04 #@! TD*
G04 #@! TA.AperFunction,ComponentPad*
%ADD20C,1.800000*%
G04 #@! TD*
G04 #@! TA.AperFunction,ComponentPad*
%ADD21C,1.600000*%
G04 #@! TD*
G04 #@! TA.AperFunction,SMDPad,CuDef*
%ADD22R,2.500000X3.000000*%
G04 #@! TD*
G04 #@! TA.AperFunction,SMDPad,CuDef*
%ADD23R,0.950000X0.950000*%
G04 #@! TD*
G04 #@! TA.AperFunction,SMDPad,CuDef*
%ADD24R,1.200000X1.400000*%
G04 #@! TD*
G04 #@! TA.AperFunction,SMDPad,CuDef*
%ADD25R,1.100000X1.200000*%
G04 #@! TD*
G04 #@! TA.AperFunction,ComponentPad*
%ADD26C,2.200000*%
G04 #@! TD*
G04 #@! TA.AperFunction,ComponentPad*
%ADD27C,1.500000*%
G04 #@! TD*
G04 #@! TA.AperFunction,ComponentPad*
%ADD28C,2.000000*%
G04 #@! TD*
G04 #@! TA.AperFunction,ComponentPad*
%ADD29C,2.600000*%
G04 #@! TD*
G04 #@! TA.AperFunction,ComponentPad*
%ADD30C,1.200000*%
G04 #@! TD*
G04 #@! TA.AperFunction,ComponentPad*
%ADD31C,1.700000*%
G04 #@! TD*
G04 #@! TA.AperFunction,ViaPad*
%ADD32C,0.600000*%
G04 #@! TD*
G04 #@! TA.AperFunction,Conductor*
%ADD33C,0.250000*%
G04 #@! TD*
G04 APERTURE END LIST*
D10*
G04 #@! TO.P,H1,1*
G04 #@! TO.N,GND*
X4000000Y-4000000D03*
G04 #@! TD*
G04 #@! TO.P,H2,1*
G04 #@! TO.N,GND*
X96000000Y-4000000D03*
G04 #@! TD*
G04 #@! TO.P,H3,1*
G04 #@! TO.N,GND*
X4000000Y-76000000D03*
G04 #@! TD*
G04 #@! TO.P,H4,1*
G04 #@! TO.N,GND*
X96000000Y-76000000D03*
G04 #@! TD*
D11*
G04 #@! TO.P,U1,1*
G04 #@! TO.N,GND*
X50000000Y-30000000D03*
D12*
G04 #@! TO.P,U1,2*
G04 #@! TO.N,+3V3*
X41500000Y-19200000D03*
G04 #@! TO.P,U1,3*
G04 #@! TO.N,ESP_EN*
X41500000Y-20470000D03*
G04 #@! TO.P,U1,4*
G04 #@! TO.N,HEATER_SSR_MCU*
X41500000Y-21740000D03*
G04 #@! TO.P,U1,5*
G04 #@! TO.N,FAN_PWM*
X41500000Y-23010000D03*
G04 #@! TO.P,U1,6*
G04 #@! TO.N,CO2_SOL_PWM*
X41500000Y-24280000D03*
G04 #@! TO.P,U1,7*
G04 #@! TO.N,SCL*
X41500000Y-25550000D03*
G04 #@! TO.P,U1,8*
G04 #@! TO.N,SDA*
X41500000Y-26820000D03*
G04 #@! TO.P,U1,9*
G04 #@! TO.N,DS18B20_DATA*
X41500000Y-28090000D03*
G04 #@! TO.P,U1,10*
G04 #@! TO.N,OVERTEMP_SW*
X41500000Y-29360000D03*
G04 #@! TO.P,U1,11*
G04 #@! TO.N,WINDOW_HEATER*
X41500000Y-30630000D03*
G04 #@! TO.P,U1,12*
G04 #@! TO.N,LED_HEAT_DRV*
X41500000Y-31900000D03*
G04 #@! TO.P,U1,13*
G04 #@! TO.N,STEP*
X41500000Y-33170000D03*
G04 #@! TO.P,U1,14*
G04 #@! TO.N,DIR*
X41500000Y-34440000D03*
G04 #@! TO.P,U1,15*
G04 #@! TO.N,GND*
X41500000Y-35710000D03*
G04 #@! TO.P,U1,20*
G04 #@! TO.N,EN_N*
X58500000Y-40800000D03*
G04 #@! TO.P,U1,21*
G04 #@! TO.N,TMC_UART_TX*
X58500000Y-39530000D03*
G04 #@! TO.P,U1,22*
G04 #@! TO.N,MHZ19_RX*
X58500000Y-38260000D03*
G04 #@! TO.P,U1,23*
G04 #@! TO.N,MHZ19_TX*
X58500000Y-36990000D03*
G04 #@! TO.P,U1,24*
G04 #@! TO.N,USB_DN*
X58500000Y-35720000D03*
G04 #@! TO.P,U1,25*
G04 #@! TO.N,USB_DP*
X58500000Y-34450000D03*
G04 #@! TO.P,U1,26*
G04 #@! TO.N,TMC_UART_RX*
X58500000Y-33180000D03*
G04 #@! TO.P,U1,27*
G04 #@! TO.N,ESP_BOOT*
X58500000Y-31910000D03*
G04 #@! TO.P,U1,28*
G04 #@! TO.N,LED_WIFI_DRV*
X58500000Y-30640000D03*
G04 #@! TO.P,U1,29*
G04 #@! TO.N,LED_FAULT_DRV*
X58500000Y-29370000D03*
G04 #@! TD*
D13*
G04 #@! TO.P,U2,1*
G04 #@! TO.N,+24V_SW*
X11500000Y-15000000D03*
G04 #@! TO.P,U2,2*
G04 #@! TO.N,+12V*
X13250000Y-15000000D03*
G04 #@! TO.P,U2,3*
G04 #@! TO.N,GND*
X15000000Y-15000000D03*
G04 #@! TO.P,U2,4*
G04 #@! TO.N,+5V*
X16750000Y-15000000D03*
G04 #@! TO.P,U2,5*
G04 #@! TO.N,+24V_SW*
X18500000Y-15000000D03*
D14*
G04 #@! TO.P,U2,TAB*
G04 #@! TO.N,GND*
X15000000Y-21000000D03*
G04 #@! TD*
D15*
G04 #@! TO.P,U3,1*
G04 #@! TO.N,GND*
X27700000Y-21100000D03*
G04 #@! TO.P,U3,2*
G04 #@! TO.N,+3V3*
X30000000Y-21100000D03*
G04 #@! TO.P,U3,3*
G04 #@! TO.N,+5V*
X32300000Y-21100000D03*
D16*
G04 #@! TO.P,U3,TAB*
G04 #@! TO.N,+3V3*
X30000000Y-14900000D03*
G04 #@! TD*
D17*
G04 #@! TO.P,U4,1*
G04 #@! TO.N,USB_DP*
X82300000Y-38095000D03*
G04 #@! TO.P,U4,2*
G04 #@! TO.N,USB_DN*
X82300000Y-39365000D03*
G04 #@! TO.P,U4,3*
G04 #@! TO.N,GND*
X82300000Y-40635000D03*
G04 #@! TO.P,U4,4*
G04 #@! TO.N,+3V3*
X82300000Y-41905000D03*
G04 #@! TO.P,U4,5*
G04 #@! TO.N,TMC_UART_TX*
X87700000Y-41905000D03*
G04 #@! TO.P,U4,6*
G04 #@! TO.N,TMC_UART_RX*
X87700000Y-40635000D03*
G04 #@! TO.P,U4,7*
G04 #@! TO.N,N/C*
X87700000Y-39365000D03*
G04 #@! TO.P,U4,8*
G04 #@! TO.N,+5V*
X87700000Y-38095000D03*
G04 #@! TD*
D18*
G04 #@! TO.P,J1,1*
G04 #@! TO.N,+24V_IN*
X10000000Y-5000000D03*
G04 #@! TO.P,J1,2*
G04 #@! TO.N,GND*
X5500000Y-10700000D03*
G04 #@! TO.P,J1,3*
X14500000Y-10700000D03*
G04 #@! TD*
D19*
G04 #@! TO.P,D1,1*
G04 #@! TO.N,+24V_SW*
X8000000Y-22000000D03*
G04 #@! TO.P,D1,2*
G04 #@! TO.N,+24V_IN*
X8000000Y-18000000D03*
G04 #@! TD*
G04 #@! TO.P,D2,1*
G04 #@! TO.N,+24V_SW*
X8000000Y-30000000D03*
G04 #@! TO.P,D2,2*
G04 #@! TO.N,GND*
X8000000Y-26000000D03*
G04 #@! TD*
D20*
G04 #@! TO.P,C1,1*
G04 #@! TO.N,+24V_SW*
X33500000Y-10000000D03*
G04 #@! TO.P,C1,2*
G04 #@! TO.N,GND*
X38500000Y-10000000D03*
G04 #@! TD*
D21*
G04 #@! TO.P,C2,1*
G04 #@! TO.N,+5V*
X23000000Y-28000000D03*
G04 #@! TO.P,C2,2*
G04 #@! TO.N,GND*
X27000000Y-28000000D03*
G04 #@! TD*
D22*
G04 #@! TO.P,L1,1*
G04 #@! TO.N,+12V*
X24000000Y-11000000D03*
G04 #@! TO.P,L1,2*
G04 #@! TO.N,+5V*
X30000000Y-11000000D03*
G04 #@! TD*
D23*
G04 #@! TO.P,C3,1*
G04 #@! TO.N,+3V3*
X44200000Y-17000000D03*
G04 #@! TO.P,C3,2*
G04 #@! TO.N,GND*
X45800000Y-17000000D03*
G04 #@! TD*
G04 #@! TO.P,C4,1*
G04 #@! TO.N,+3V3*
X49200000Y-17000000D03*
G04 #@! TO.P,C4,2*
G04 #@! TO.N,GND*
X50800000Y-17000000D03*
G04 #@! TD*
G04 #@! TO.P,C5,1*
G04 #@! TO.N,+3V3*
X54200000Y-17000000D03*
G04 #@! TO.P,C5,2*
G04 #@! TO.N,GND*
X55800000Y-17000000D03*
G04 #@! TD*
D24*
G04 #@! TO.P,C6,1*
G04 #@! TO.N,+3V3*
X39000000Y-17000000D03*
G04 #@! TO.P,C6,2*
G04 #@! TO.N,GND*
X41000000Y-17000000D03*
G04 #@! TD*
D23*
G04 #@! TO.P,C7,1*
G04 #@! TO.N,+5V*
X84200000Y-46000000D03*
G04 #@! TO.P,C7,2*
G04 #@! TO.N,GND*
X85800000Y-46000000D03*
G04 #@! TD*
G04 #@! TO.P,R1,1*
G04 #@! TO.N,+3V3*
X41200000Y-43000000D03*
G04 #@! TO.P,R1,2*
G04 #@! TO.N,ESP_EN*
X42800000Y-43000000D03*
G04 #@! TD*
G04 #@! TO.P,R2,1*
G04 #@! TO.N,+3V3*
X57200000Y-43000000D03*
G04 #@! TO.P,R2,2*
G04 #@! TO.N,ESP_BOOT*
X58800000Y-43000000D03*
G04 #@! TD*
G04 #@! TO.P,R3,1*
G04 #@! TO.N,+3V3*
X43200000Y-25000000D03*
G04 #@! TO.P,R3,2*
G04 #@! TO.N,SDA*
X44800000Y-25000000D03*
G04 #@! TD*
G04 #@! TO.P,R4,1*
G04 #@! TO.N,+3V3*
X46200000Y-25000000D03*
G04 #@! TO.P,R4,2*
G04 #@! TO.N,SCL*
X47800000Y-25000000D03*
G04 #@! TD*
G04 #@! TO.P,R5,1*
G04 #@! TO.N,+3V3*
X49200000Y-25000000D03*
G04 #@! TO.P,R5,2*
G04 #@! TO.N,DS18B20_DATA*
X50800000Y-25000000D03*
G04 #@! TD*
G04 #@! TO.P,R6,1*
G04 #@! TO.N,HEATER_SSR_MCU*
X69200000Y-65000000D03*
G04 #@! TO.P,R6,2*
G04 #@! TO.N,HEATER_SSR_PRE*
X70800000Y-65000000D03*
G04 #@! TD*
G04 #@! TO.P,R7,1*
G04 #@! TO.N,FAN_PWM*
X41200000Y-65000000D03*
G04 #@! TO.P,R7,2*
G04 #@! TO.N,FAN_GATE*
X42800000Y-65000000D03*
G04 #@! TD*
G04 #@! TO.P,R8,1*
G04 #@! TO.N,FAN_GATE*
X43200000Y-67000000D03*
G04 #@! TO.P,R8,2*
G04 #@! TO.N,GND*
X44800000Y-67000000D03*
G04 #@! TD*
G04 #@! TO.P,R9,1*
G04 #@! TO.N,LED_PWR*
X71200000Y-15000000D03*
G04 #@! TO.P,R9,2*
G04 #@! TO.N,+3V3*
X72800000Y-15000000D03*
G04 #@! TD*
G04 #@! TO.P,R10,1*
G04 #@! TO.N,LED_WIFI_DRV*
X75200000Y-15000000D03*
G04 #@! TO.P,R10,2*
G04 #@! TO.N,LED_WIFI*
X76800000Y-15000000D03*
G04 #@! TD*
G04 #@! TO.P,R11,1*
G04 #@! TO.N,LED_HEAT_DRV*
X79200000Y-15000000D03*
G04 #@! TO.P,R11,2*
G04 #@! TO.N,LED_HEAT*
X80800000Y-15000000D03*
G04 #@! TD*
G04 #@! TO.P,R12,1*
G04 #@! TO.N,LED_FAULT_DRV*
X83200000Y-15000000D03*
G04 #@! TO.P,R12,2*
G04 #@! TO.N,LED_FAULT*
X84800000Y-15000000D03*
G04 #@! TD*
D25*
G04 #@! TO.P,LD1,1*
G04 #@! TO.N,LED_PWR*
X71000000Y-11000000D03*
G04 #@! TO.P,LD1,2*
G04 #@! TO.N,GND*
X73000000Y-11000000D03*
G04 #@! TD*
G04 #@! TO.P,LD2,1*
G04 #@! TO.N,LED_WIFI*
X75000000Y-11000000D03*
G04 #@! TO.P,LD2,2*
G04 #@! TO.N,GND*
X77000000Y-11000000D03*
G04 #@! TD*
G04 #@! TO.P,LD3,1*
G04 #@! TO.N,LED_HEAT*
X79000000Y-11000000D03*
G04 #@! TO.P,LD3,2*
G04 #@! TO.N,GND*
X81000000Y-11000000D03*
G04 #@! TD*
G04 #@! TO.P,LD4,1*
G04 #@! TO.N,LED_FAULT*
X83000000Y-11000000D03*
G04 #@! TO.P,LD4,2*
G04 #@! TO.N,GND*
X85000000Y-11000000D03*
G04 #@! TD*
D26*
G04 #@! TO.P,Q1,1*
G04 #@! TO.N,FAN_GATE*
X47460000Y-65000000D03*
G04 #@! TO.P,Q1,2*
G04 #@! TO.N,FAN_OUT_N*
X50000000Y-65000000D03*
G04 #@! TO.P,Q1,3*
G04 #@! TO.N,GND*
X52540000Y-65000000D03*
G04 #@! TD*
D19*
G04 #@! TO.P,D3,1*
G04 #@! TO.N,+12V*
X46000000Y-70000000D03*
G04 #@! TO.P,D3,2*
G04 #@! TO.N,FAN_OUT_N*
X50000000Y-70000000D03*
G04 #@! TD*
D26*
G04 #@! TO.P,Q2,1*
G04 #@! TO.N,CO2_SOL_PWM*
X59460000Y-65000000D03*
G04 #@! TO.P,Q2,2*
G04 #@! TO.N,CO2_SOL_OUT_N*
X62000000Y-65000000D03*
G04 #@! TO.P,Q2,3*
G04 #@! TO.N,GND*
X64540000Y-65000000D03*
G04 #@! TD*
D19*
G04 #@! TO.P,D4,1*
G04 #@! TO.N,+12V*
X58000000Y-70000000D03*
G04 #@! TO.P,D4,2*
G04 #@! TO.N,CO2_SOL_OUT_N*
X62000000Y-70000000D03*
G04 #@! TD*
D27*
G04 #@! TO.P,K1,1*
G04 #@! TO.N,+5V*
X75460000Y-61190000D03*
G04 #@! TO.P,K1,2*
G04 #@! TO.N,CO2_SOL_PWM*
X80540000Y-61190000D03*
G04 #@! TO.P,K1,3*
G04 #@! TO.N,+12V*
X75460000Y-65000000D03*
G04 #@! TO.P,K1,4*
G04 #@! TO.N,CO2_SOL_OUT_N*
X80540000Y-65000000D03*
G04 #@! TO.P,K1,5*
G04 #@! TO.N,N/C*
X75460000Y-68810000D03*
G04 #@! TO.P,K1,6*
X80540000Y-68810000D03*
G04 #@! TD*
D28*
G04 #@! TO.P,J2,1*
G04 #@! TO.N,HEATER_SSR_PRE*
X74500000Y-55000000D03*
G04 #@! TO.P,J2,2*
G04 #@! TO.N,HEATER_SSR_OUT*
X89500000Y-55000000D03*
G04 #@! TD*
D29*
G04 #@! TO.P,J3,1*
G04 #@! TO.N,HEATER_SSR_OUT*
X90460000Y-65000000D03*
G04 #@! TO.P,J3,2*
G04 #@! TO.N,GND*
X95540000Y-65000000D03*
G04 #@! TD*
G04 #@! TO.P,J4,1*
G04 #@! TO.N,+12V*
X47460000Y-75000000D03*
G04 #@! TO.P,J4,2*
G04 #@! TO.N,FAN_OUT_N*
X52540000Y-75000000D03*
G04 #@! TD*
G04 #@! TO.P,J5,1*
G04 #@! TO.N,+12V*
X59460000Y-75000000D03*
G04 #@! TO.P,J5,2*
G04 #@! TO.N,CO2_SOL_OUT_N*
X64540000Y-75000000D03*
G04 #@! TD*
D21*
G04 #@! TO.P,J6,1*
G04 #@! TO.N,+3V3*
X21250000Y-5000000D03*
G04 #@! TO.P,J6,2*
G04 #@! TO.N,SDA*
X23750000Y-5000000D03*
G04 #@! TO.P,J6,3*
G04 #@! TO.N,SCL*
X26250000Y-5000000D03*
G04 #@! TO.P,J6,4*
G04 #@! TO.N,GND*
X28750000Y-5000000D03*
G04 #@! TD*
G04 #@! TO.P,J7,1*
G04 #@! TO.N,+5V*
X41250000Y-5000000D03*
G04 #@! TO.P,J7,2*
G04 #@! TO.N,MHZ19_TX*
X43750000Y-5000000D03*
G04 #@! TO.P,J7,3*
G04 #@! TO.N,MHZ19_RX*
X46250000Y-5000000D03*
G04 #@! TO.P,J7,4*
G04 #@! TO.N,GND*
X48750000Y-5000000D03*
G04 #@! TD*
G04 #@! TO.P,J8,1*
G04 #@! TO.N,+3V3*
X62500000Y-5000000D03*
G04 #@! TO.P,J8,2*
G04 #@! TO.N,DS18B20_DATA*
X65000000Y-5000000D03*
G04 #@! TO.P,J8,3*
G04 #@! TO.N,GND*
X67500000Y-5000000D03*
G04 #@! TD*
G04 #@! TO.P,J9,1*
G04 #@! TO.N,+12V*
X80750000Y-5000000D03*
G04 #@! TO.P,J9,2*
G04 #@! TO.N,WINDOW_HEATER*
X83250000Y-5000000D03*
G04 #@! TD*
D30*
G04 #@! TO.P,J10,CC1*
G04 #@! TO.N,USB_CC1*
X95000000Y-35000000D03*
G04 #@! TO.P,J10,CC2*
G04 #@! TO.N,USB_CC2*
X95000000Y-45000000D03*
G04 #@! TO.P,J10,D+*
G04 #@! TO.N,USB_DP*
X95000000Y-39000000D03*
G04 #@! TO.P,J10,D-*
G04 #@! TO.N,USB_DN*
X95000000Y-37000000D03*
D21*
G04 #@! TO.P,J10,GND*
G04 #@! TO.N,GND*
X95000000Y-41000000D03*
D28*
G04 #@! TO.P,J10,M1*
X92500000Y-46500000D03*
G04 #@! TO.P,J10,M2*
X92500000Y-33500000D03*
D21*
G04 #@! TO.P,J10,VBUS*
G04 #@! TO.N,VBUS*
X95000000Y-43000000D03*
G04 #@! TD*
D31*
G04 #@! TO.P,J11,1*
G04 #@! TO.N,STEP*
X18650000Y-72000000D03*
G04 #@! TO.P,J11,2*
G04 #@! TO.N,DIR*
X21190000Y-72000000D03*
G04 #@! TO.P,J11,3*
G04 #@! TO.N,EN_N*
X23730000Y-72000000D03*
G04 #@! TO.P,J11,4*
G04 #@! TO.N,+24V_SW*
X26270000Y-72000000D03*
G04 #@! TO.P,J11,5*
G04 #@! TO.N,TMC_UART_TX*
X28810000Y-72000000D03*
G04 #@! TO.P,J11,6*
G04 #@! TO.N,TMC_UART_RX*
X31350000Y-72000000D03*
G04 #@! TD*
G04 #@! TO.P,J12,1*
G04 #@! TO.N,+3V3*
X84190000Y-25000000D03*
G04 #@! TO.P,J12,2*
G04 #@! TO.N,SWDIO*
X86730000Y-25000000D03*
G04 #@! TO.P,J12,3*
G04 #@! TO.N,SWCLK*
X89270000Y-25000000D03*
G04 #@! TO.P,J12,4*
G04 #@! TO.N,GND*
X91810000Y-25000000D03*
G04 #@! TD*
D23*
G04 #@! TO.P,R13,1*
G04 #@! TO.N,USB_CC1*
X89200000Y-45000000D03*
G04 #@! TO.P,R13,2*
G04 #@! TO.N,GND*
X90800000Y-45000000D03*
G04 #@! TD*
G04 #@! TO.P,R14,1*
G04 #@! TO.N,USB_CC2*
X89200000Y-35000000D03*
G04 #@! TO.P,R14,2*
G04 #@! TO.N,GND*
X90800000Y-35000000D03*
G04 #@! TD*
D19*
G04 #@! TO.P,D5,1*
G04 #@! TO.N,+5V*
X86000000Y-30000000D03*
G04 #@! TO.P,D5,2*
G04 #@! TO.N,VBUS*
X90000000Y-30000000D03*
G04 #@! TD*
D32*
G04 #@! TO.N,+12V*
X21639900Y-12140400D03*
X12994200Y-16560800D03*
X28062800Y-7159800D03*
G04 #@! TO.N,+5V*
X80487000Y-35413600D03*
G04 #@! TO.N,+3V3*
X50962000Y-22386200D03*
X71950300Y-16444600D03*
X27849300Y-13080500D03*
G04 #@! TO.N,HEATER_SSR_MCU*
X64397900Y-40227400D03*
X39730600Y-38266500D03*
G04 #@! TO.N,FAN_PWM*
X36591800Y-22177200D03*
X39946100Y-22961400D03*
G04 #@! TO.N,CO2_SOL_PWM*
X39976900Y-23894200D03*
X53358400Y-34207100D03*
G04 #@! TO.N,WINDOW_HEATER*
X43181500Y-28909100D03*
G04 #@! TO.N,SDA*
X42900000Y-26052300D03*
G04 #@! TO.N,SCL*
X40210500Y-25409200D03*
X44565200Y-26103300D03*
G04 #@! TO.N,DS18B20_DATA*
X44931100Y-30421800D03*
X60315600Y-25952700D03*
X53237300Y-26343300D03*
G04 #@! TO.N,STEP*
X21696400Y-46247300D03*
X42738900Y-37726800D03*
G04 #@! TO.N,DIR*
X42958600Y-63644100D03*
G04 #@! TO.N,EN_N*
X56539100Y-65922600D03*
G04 #@! TO.N,TMC_UART_TX*
X30843000Y-42970000D03*
X60519600Y-40097400D03*
X84845500Y-41720800D03*
G04 #@! TO.N,TMC_UART_RX*
X57308200Y-66897200D03*
X86158000Y-40574900D03*
X63261500Y-37318500D03*
G04 #@! TO.N,USB_DP*
X60671400Y-35158200D03*
X83138600Y-36669500D03*
G04 #@! TO.N,USB_DN*
X60519600Y-37029200D03*
X84158300Y-36979600D03*
G04 #@! TO.N,ESP_BOOT*
X58083500Y-42004900D03*
X63574900Y-42435600D03*
G04 #@! TO.N,LED_HEAT_DRV*
X43181500Y-31662700D03*
X69156900Y-25147600D03*
G04 #@! TO.N,LED_FAULT_DRV*
X60114600Y-29176200D03*
X80945300Y-25147600D03*
G04 #@! TD*
D33*
G04 #@! TO.N,+24V_IN*
X8000000Y-18000000D02*
X8000000Y-7000000D01*
X8000000Y-7000000D02*
X10000000Y-5000000D01*
G04 #@! TO.N,+24V_SW*
X18500000Y-15000000D02*
X17719900Y-14219900D01*
X17719900Y-14219900D02*
X12280100Y-14219900D01*
X12280100Y-14219900D02*
X11500000Y-15000000D01*
X33500000Y-10000000D02*
X32618600Y-9118600D01*
X32618600Y-9118600D02*
X28562300Y-9118600D01*
X28562300Y-9118600D02*
X26205100Y-11475800D01*
X26205100Y-11475800D02*
X26205100Y-12120600D01*
X26205100Y-12120600D02*
X23325700Y-15000000D01*
X23325700Y-15000000D02*
X18500000Y-15000000D01*
X8000000Y-30000000D02*
X8000000Y-28743300D01*
X8000000Y-21371600D02*
X6543300Y-22828300D01*
X6543300Y-22828300D02*
X6543300Y-27286600D01*
X6543300Y-27286600D02*
X8000000Y-28743300D01*
X8000000Y-21371600D02*
X8000000Y-20743300D01*
X8000000Y-22000000D02*
X8000000Y-21371600D01*
X11500000Y-15000000D02*
X10443300Y-15000000D01*
X8000000Y-20743300D02*
X9456700Y-19286600D01*
X9456700Y-19286600D02*
X9456700Y-15986600D01*
X9456700Y-15986600D02*
X10443300Y-15000000D01*
X8000000Y-30000000D02*
X8000000Y-31256700D01*
X26270000Y-72000000D02*
X26270000Y-49526700D01*
X26270000Y-49526700D02*
X8000000Y-31256700D01*
G04 #@! TO.N,+12V*
X80750000Y-5000000D02*
X81906700Y-6156700D01*
X81906700Y-6156700D02*
X81906700Y-15461600D01*
X81906700Y-15461600D02*
X75896000Y-21472300D01*
X75896000Y-21472300D02*
X75896000Y-57335800D01*
X75896000Y-57335800D02*
X74347700Y-58884100D01*
X74347700Y-58884100D02*
X74347700Y-63887700D01*
X74347700Y-63887700D02*
X75460000Y-65000000D01*
X25606700Y-11000000D02*
X25606700Y-9615900D01*
X25606700Y-9615900D02*
X28062800Y-7159800D01*
X24000000Y-11000000D02*
X22393300Y-11000000D01*
X21639900Y-12140400D02*
X22393300Y-11387000D01*
X22393300Y-11387000D02*
X22393300Y-11000000D01*
X13250000Y-15000000D02*
X12994200Y-15255800D01*
X12994200Y-15255800D02*
X12994200Y-16560800D01*
X24000000Y-11000000D02*
X25606700Y-11000000D01*
X59460000Y-75000000D02*
X58000000Y-73540000D01*
X58000000Y-73540000D02*
X58000000Y-70000000D01*
X46000000Y-70000000D02*
X46000000Y-73540000D01*
X46000000Y-73540000D02*
X47460000Y-75000000D01*
G04 #@! TO.N,+5V*
X81146100Y-35413600D02*
X81146100Y-44879400D01*
X81146100Y-44879400D02*
X81435000Y-45168300D01*
X84743300Y-30000000D02*
X81146100Y-33597200D01*
X81146100Y-33597200D02*
X81146100Y-35413600D01*
X80487000Y-35413600D02*
X81146100Y-35413600D01*
X23000000Y-28000000D02*
X23000000Y-20980100D01*
X23000000Y-20980100D02*
X17777600Y-15757700D01*
X17777600Y-15757700D02*
X17507700Y-15757700D01*
X17507700Y-15757700D02*
X16750000Y-15000000D01*
X86593300Y-38095000D02*
X84188800Y-40499500D01*
X84188800Y-40499500D02*
X84188800Y-45157100D01*
X84188800Y-45157100D02*
X84200000Y-45168300D01*
X30000000Y-11000000D02*
X31606700Y-11000000D01*
X31606700Y-11000000D02*
X31909800Y-11303100D01*
X31909800Y-11303100D02*
X34946900Y-11303100D01*
X34946900Y-11303100D02*
X41250000Y-5000000D01*
X75460000Y-61190000D02*
X81435000Y-55215000D01*
X81435000Y-55215000D02*
X81435000Y-45168300D01*
X81435000Y-45168300D02*
X84200000Y-45168300D01*
X30000000Y-11000000D02*
X28393300Y-11000000D01*
X27350000Y-23650000D02*
X26543300Y-22843300D01*
X26543300Y-22843300D02*
X26543300Y-12850000D01*
X26543300Y-12850000D02*
X28393300Y-11000000D01*
X27350000Y-23650000D02*
X29750000Y-23650000D01*
X29750000Y-23650000D02*
X32300000Y-21100000D01*
X23000000Y-28000000D02*
X27350000Y-23650000D01*
X84200000Y-46000000D02*
X84200000Y-45168300D01*
X86000000Y-30000000D02*
X84743300Y-30000000D01*
X87700000Y-38095000D02*
X86593300Y-38095000D01*
G04 #@! TO.N,+3V3*
X57200000Y-42168300D02*
X54015100Y-38983400D01*
X54015100Y-38983400D02*
X54015100Y-26192300D01*
X54015100Y-26192300D02*
X51991100Y-24168300D01*
X51991100Y-24168300D02*
X50962000Y-24168300D01*
X38043300Y-17000000D02*
X38043300Y-39011600D01*
X38043300Y-39011600D02*
X41200000Y-42168300D01*
X50962000Y-22386200D02*
X50962000Y-24168300D01*
X50962000Y-24168300D02*
X49971300Y-24168300D01*
X49971300Y-24168300D02*
X49200000Y-24939600D01*
X57200000Y-43000000D02*
X57200000Y-42168300D01*
X49200000Y-24939600D02*
X49200000Y-24168300D01*
X49200000Y-25000000D02*
X49200000Y-24939600D01*
X71950300Y-16138100D02*
X70863300Y-16138100D01*
X70863300Y-16138100D02*
X66250000Y-11524800D01*
X66250000Y-11524800D02*
X66250000Y-4576400D01*
X66250000Y-4576400D02*
X65494600Y-3821000D01*
X65494600Y-3821000D02*
X63679000Y-3821000D01*
X63679000Y-3821000D02*
X62500000Y-5000000D01*
X71950300Y-16444600D02*
X71950300Y-16138100D01*
X71950300Y-16138100D02*
X72493600Y-16138100D01*
X72493600Y-16138100D02*
X72800000Y-15831700D01*
X49200000Y-24168300D02*
X49200000Y-17000000D01*
X72800000Y-15000000D02*
X72800000Y-15831700D01*
X32106700Y-17000000D02*
X32106700Y-14900000D01*
X30000000Y-21100000D02*
X32106700Y-18993300D01*
X32106700Y-18993300D02*
X32106700Y-17000000D01*
X38043300Y-17000000D02*
X32106700Y-17000000D01*
X41200000Y-43000000D02*
X41200000Y-42168300D01*
X62500000Y-5000000D02*
X62500000Y-7868300D01*
X62500000Y-7868300D02*
X54200000Y-16168300D01*
X54200000Y-17000000D02*
X54200000Y-16168300D01*
X41500000Y-19200000D02*
X40393300Y-19200000D01*
X38521700Y-17000000D02*
X38043300Y-17000000D01*
X39000000Y-17000000D02*
X38521700Y-17000000D01*
X38521700Y-17000000D02*
X40393300Y-18871600D01*
X40393300Y-18871600D02*
X40393300Y-19200000D01*
X43200000Y-24168300D02*
X43200000Y-25000000D01*
X42605200Y-19200000D02*
X43200000Y-19794800D01*
X43200000Y-19794800D02*
X43200000Y-24168300D01*
X46238100Y-24961900D02*
X45444500Y-24168300D01*
X45444500Y-24168300D02*
X43200000Y-24168300D01*
X46200000Y-25000000D02*
X46238100Y-24961900D01*
X46238100Y-24961900D02*
X47031700Y-24168300D01*
X47031700Y-24168300D02*
X49200000Y-24168300D01*
X42605200Y-19200000D02*
X42606700Y-19200000D01*
X42485900Y-19200000D02*
X42605200Y-19200000D01*
X41500000Y-19200000D02*
X42485900Y-19200000D01*
X30000000Y-14900000D02*
X27893300Y-14900000D01*
X27849300Y-13080500D02*
X27849300Y-14856000D01*
X27849300Y-14856000D02*
X27893300Y-14900000D01*
X83406700Y-41905000D02*
X83406700Y-40253300D01*
X83406700Y-40253300D02*
X87256700Y-36403300D01*
X87256700Y-36403300D02*
X87256700Y-28066700D01*
X87256700Y-28066700D02*
X84190000Y-25000000D01*
X82300000Y-41905000D02*
X83406700Y-41905000D01*
X30000000Y-14900000D02*
X32106700Y-14900000D01*
X44200000Y-17000000D02*
X43368300Y-17000000D01*
X43368300Y-17000000D02*
X43368300Y-18438400D01*
X43368300Y-18438400D02*
X42606700Y-19200000D01*
G04 #@! TO.N,VBUS*
X90000000Y-30000000D02*
X91256700Y-30000000D01*
X91256700Y-30000000D02*
X93883400Y-32626700D01*
X93883400Y-32626700D02*
X93883400Y-34606400D01*
X93883400Y-34606400D02*
X93796400Y-34693400D01*
X93796400Y-34693400D02*
X93796400Y-41796400D01*
X93796400Y-41796400D02*
X95000000Y-43000000D01*
G04 #@! TO.N,HEATER_SSR_MCU*
X40393300Y-21740000D02*
X40238800Y-21740000D01*
X40238800Y-21740000D02*
X39289400Y-22689400D01*
X39289400Y-22689400D02*
X39289400Y-37825300D01*
X39289400Y-37825300D02*
X39730600Y-38266500D01*
X41500000Y-21740000D02*
X40393300Y-21740000D01*
X64397900Y-40227400D02*
X69200000Y-45029500D01*
X69200000Y-45029500D02*
X69200000Y-65000000D01*
G04 #@! TO.N,HEATER_SSR_OUT*
X90460000Y-65000000D02*
X90460000Y-55960000D01*
X90460000Y-55960000D02*
X89500000Y-55000000D01*
G04 #@! TO.N,FAN_PWM*
X41200000Y-65000000D02*
X41200000Y-64168300D01*
X36591800Y-22177200D02*
X36591800Y-59560100D01*
X36591800Y-59560100D02*
X41200000Y-64168300D01*
X41500000Y-23010000D02*
X39994700Y-23010000D01*
X39994700Y-23010000D02*
X39946100Y-22961400D01*
G04 #@! TO.N,FAN_GATE*
X43200000Y-66168300D02*
X46291700Y-66168300D01*
X46291700Y-66168300D02*
X47460000Y-65000000D01*
X42800000Y-65831700D02*
X43136600Y-66168300D01*
X43136600Y-66168300D02*
X43200000Y-66168300D01*
X43200000Y-67000000D02*
X43200000Y-66168300D01*
X42800000Y-65000000D02*
X42800000Y-65831700D01*
G04 #@! TO.N,FAN_OUT_N*
X50000000Y-70000000D02*
X51256700Y-70000000D01*
X51256700Y-70000000D02*
X51256700Y-73716700D01*
X51256700Y-73716700D02*
X52540000Y-75000000D01*
X50000000Y-70000000D02*
X50000000Y-65000000D01*
G04 #@! TO.N,CO2_SOL_PWM*
X41500000Y-24280000D02*
X40362700Y-24280000D01*
X40362700Y-24280000D02*
X39976900Y-23894200D01*
X59460000Y-65000000D02*
X59460000Y-65725100D01*
X59460000Y-65725100D02*
X57616200Y-67568900D01*
X57616200Y-67568900D02*
X57008900Y-67568900D01*
X57008900Y-67568900D02*
X55027100Y-65587100D01*
X55027100Y-65587100D02*
X55027100Y-43045500D01*
X55027100Y-43045500D02*
X53358400Y-41376800D01*
X53358400Y-41376800D02*
X53358400Y-34207100D01*
G04 #@! TO.N,CO2_SOL_OUT_N*
X64540000Y-75000000D02*
X62000000Y-72460000D01*
X62000000Y-72460000D02*
X62000000Y-70000000D01*
X62000000Y-65000000D02*
X62000000Y-70000000D01*
G04 #@! TO.N,WINDOW_HEATER*
X41500000Y-30630000D02*
X42606700Y-30630000D01*
X43181500Y-28909100D02*
X42606700Y-29483900D01*
X42606700Y-29483900D02*
X42606700Y-30630000D01*
G04 #@! TO.N,SDA*
X44800000Y-25000000D02*
X44739800Y-25000000D01*
X44739800Y-25000000D02*
X43687500Y-26052300D01*
X43687500Y-26052300D02*
X42900000Y-26052300D01*
X41500000Y-26820000D02*
X42606700Y-26820000D01*
X42900000Y-26052300D02*
X42900000Y-26526700D01*
X42900000Y-26526700D02*
X42606700Y-26820000D01*
G04 #@! TO.N,SCL*
X41500000Y-25550000D02*
X40393300Y-25550000D01*
X40210500Y-25409200D02*
X40252500Y-25409200D01*
X40252500Y-25409200D02*
X40393300Y-25550000D01*
X44565200Y-26103300D02*
X46696700Y-26103300D01*
X46696700Y-26103300D02*
X47800000Y-25000000D01*
G04 #@! TO.N,DS18B20_DATA*
X44931100Y-30421800D02*
X44931100Y-29717400D01*
X44931100Y-29717400D02*
X43303700Y-28090000D01*
X43303700Y-28090000D02*
X41500000Y-28090000D01*
X50800000Y-25000000D02*
X51631700Y-25000000D01*
X51631700Y-25000000D02*
X52975000Y-26343300D01*
X52975000Y-26343300D02*
X53237300Y-26343300D01*
X60315600Y-25952700D02*
X65000000Y-21268300D01*
X65000000Y-21268300D02*
X65000000Y-5000000D01*
G04 #@! TO.N,MHZ19_TX*
X57393300Y-36990000D02*
X57393300Y-28207900D01*
X57393300Y-28207900D02*
X53355200Y-24169800D01*
X53355200Y-24169800D02*
X53355200Y-14605200D01*
X53355200Y-14605200D02*
X43750000Y-5000000D01*
X58500000Y-36990000D02*
X57393300Y-36990000D01*
G04 #@! TO.N,MHZ19_RX*
X57393300Y-38260000D02*
X54496800Y-35363500D01*
X54496800Y-35363500D02*
X54496800Y-25992700D01*
X54496800Y-25992700D02*
X51663700Y-23159600D01*
X51663700Y-23159600D02*
X51663700Y-14728200D01*
X51663700Y-14728200D02*
X42500000Y-5564500D01*
X42500000Y-5564500D02*
X42500000Y-4570500D01*
X42500000Y-4570500D02*
X43254700Y-3815800D01*
X43254700Y-3815800D02*
X45065800Y-3815800D01*
X45065800Y-3815800D02*
X46250000Y-5000000D01*
X58500000Y-38260000D02*
X57393300Y-38260000D01*
G04 #@! TO.N,STEP*
X42606700Y-33170000D02*
X42606700Y-37594600D01*
X42606700Y-37594600D02*
X42738900Y-37726800D01*
X41500000Y-33170000D02*
X42606700Y-33170000D01*
X21696400Y-46247300D02*
X21696400Y-68953600D01*
X21696400Y-68953600D02*
X18650000Y-72000000D01*
G04 #@! TO.N,DIR*
X41500000Y-34440000D02*
X40393300Y-34440000D01*
X42958600Y-63644100D02*
X43646600Y-62956100D01*
X43646600Y-62956100D02*
X43646600Y-40331200D01*
X43646600Y-40331200D02*
X40393300Y-37077900D01*
X40393300Y-37077900D02*
X40393300Y-34440000D01*
G04 #@! TO.N,EN_N*
X58500000Y-40800000D02*
X59606700Y-40800000D01*
X59606700Y-40800000D02*
X59692700Y-40886000D01*
X59692700Y-40886000D02*
X59692700Y-55235600D01*
X59692700Y-55235600D02*
X56539100Y-58389200D01*
X56539100Y-58389200D02*
X56539100Y-65922600D01*
G04 #@! TO.N,TMC_UART_TX*
X28810000Y-72000000D02*
X30843000Y-69967000D01*
X30843000Y-69967000D02*
X30843000Y-42970000D01*
X30844600Y-42970000D02*
X30843000Y-42970000D01*
X60519600Y-40097400D02*
X59952200Y-39530000D01*
X59952200Y-39530000D02*
X58500000Y-39530000D01*
X87700000Y-41905000D02*
X85029700Y-41905000D01*
X85029700Y-41905000D02*
X84845500Y-41720800D01*
G04 #@! TO.N,TMC_UART_RX*
X63261500Y-37318500D02*
X63261500Y-36819500D01*
X63261500Y-36819500D02*
X59622000Y-33180000D01*
X59622000Y-33180000D02*
X59606700Y-33180000D01*
X63261500Y-37318500D02*
X62918200Y-37661800D01*
X62918200Y-37661800D02*
X62918200Y-59109700D01*
X62918200Y-59109700D02*
X57308200Y-64719700D01*
X57308200Y-64719700D02*
X57308200Y-66897200D01*
X58500000Y-33180000D02*
X59606700Y-33180000D01*
X87700000Y-40635000D02*
X86593300Y-40635000D01*
X86158000Y-40574900D02*
X86533200Y-40574900D01*
X86533200Y-40574900D02*
X86593300Y-40635000D01*
G04 #@! TO.N,USB_DP*
X58500000Y-34450000D02*
X59963200Y-34450000D01*
X59963200Y-34450000D02*
X60671400Y-35158200D01*
X82300000Y-38095000D02*
X83406700Y-38095000D01*
X83138600Y-36669500D02*
X83406700Y-36937600D01*
X83406700Y-36937600D02*
X83406700Y-38095000D01*
G04 #@! TO.N,USB_DN*
X58500000Y-35720000D02*
X59606700Y-35720000D01*
X60519600Y-37029200D02*
X59606700Y-36116300D01*
X59606700Y-36116300D02*
X59606700Y-35720000D01*
X82300000Y-39365000D02*
X83406700Y-39365000D01*
X84158300Y-36979600D02*
X84158300Y-38613400D01*
X84158300Y-38613400D02*
X83406700Y-39365000D01*
G04 #@! TO.N,USB_CC1*
X89200000Y-45000000D02*
X90031700Y-44168300D01*
X90031700Y-44168300D02*
X92332200Y-44168300D01*
X92332200Y-44168300D02*
X94124300Y-45960400D01*
X94124300Y-45960400D02*
X95463100Y-45960400D01*
X95463100Y-45960400D02*
X96231700Y-45191800D01*
X96231700Y-45191800D02*
X96231700Y-36231700D01*
X96231700Y-36231700D02*
X95000000Y-35000000D01*
G04 #@! TO.N,USB_CC2*
X89200000Y-35000000D02*
X89200000Y-39200000D01*
X89200000Y-39200000D02*
X95000000Y-45000000D01*
G04 #@! TO.N,ESP_EN*
X40393300Y-20470000D02*
X38807700Y-22055600D01*
X38807700Y-22055600D02*
X38807700Y-38272300D01*
X38807700Y-38272300D02*
X42703700Y-42168300D01*
X42703700Y-42168300D02*
X42800000Y-42168300D01*
X41500000Y-20470000D02*
X40393300Y-20470000D01*
X42800000Y-43000000D02*
X42800000Y-42168300D01*
G04 #@! TO.N,ESP_BOOT*
X59606700Y-31910000D02*
X63934500Y-36237800D01*
X63934500Y-36237800D02*
X63934500Y-39762100D01*
X63934500Y-39762100D02*
X63574900Y-40121700D01*
X63574900Y-40121700D02*
X63574900Y-42435600D01*
X58500000Y-31910000D02*
X59606700Y-31910000D01*
X58800000Y-43000000D02*
X58800000Y-42168300D01*
X58083500Y-42004900D02*
X58246900Y-42168300D01*
X58246900Y-42168300D02*
X58800000Y-42168300D01*
G04 #@! TO.N,LED_PWR*
X71000000Y-11000000D02*
X71000000Y-11956700D01*
X71200000Y-15000000D02*
X71200000Y-12156700D01*
X71200000Y-12156700D02*
X71000000Y-11956700D01*
G04 #@! TO.N,LED_WIFI*
X76800000Y-15000000D02*
X76800000Y-14168300D01*
X75000000Y-11000000D02*
X75000000Y-12368300D01*
X75000000Y-12368300D02*
X76800000Y-14168300D01*
G04 #@! TO.N,LED_HEAT*
X80800000Y-15000000D02*
X80800000Y-14168300D01*
X79000000Y-11000000D02*
X79906700Y-11000000D01*
X80800000Y-14168300D02*
X79906700Y-13275000D01*
X79906700Y-13275000D02*
X79906700Y-11000000D01*
G04 #@! TO.N,LED_FAULT*
X84800000Y-15000000D02*
X84800000Y-14168300D01*
X83000000Y-11000000D02*
X83906700Y-11000000D01*
X83906700Y-11000000D02*
X83906700Y-13275000D01*
X83906700Y-13275000D02*
X84800000Y-14168300D01*
G04 #@! TO.N,LED_WIFI_DRV*
X75200000Y-15000000D02*
X75200000Y-15831700D01*
X58500000Y-30640000D02*
X59606700Y-30640000D01*
X59606700Y-30640000D02*
X74415000Y-15831700D01*
X74415000Y-15831700D02*
X75200000Y-15831700D01*
G04 #@! TO.N,LED_HEAT_DRV*
X42606700Y-31900000D02*
X42844000Y-31662700D01*
X42844000Y-31662700D02*
X43181500Y-31662700D01*
X79200000Y-15000000D02*
X79200000Y-15831700D01*
X41500000Y-31900000D02*
X42606700Y-31900000D01*
X79200000Y-15831700D02*
X78472800Y-15831700D01*
X78472800Y-15831700D02*
X69156900Y-25147600D01*
G04 #@! TO.N,LED_FAULT_DRV*
X83200000Y-15000000D02*
X83200000Y-15831700D01*
X58500000Y-29370000D02*
X59606700Y-29370000D01*
X60114600Y-29176200D02*
X59800500Y-29176200D01*
X59800500Y-29176200D02*
X59606700Y-29370000D01*
X83200000Y-15831700D02*
X80945300Y-18086400D01*
X80945300Y-18086400D02*
X80945300Y-25147600D01*
G04 #@! TO.N,HEATER_SSR_PRE*
X74500000Y-55000000D02*
X70800000Y-58700000D01*
X70800000Y-58700000D02*
X70800000Y-65000000D01*
G04 #@! TD*
G04 #@! TA.AperFunction,Conductor*
G04 #@! TO.N,GND*
G36*
X83261857Y-39853576D02*
G01*
X83272909Y-39909124D01*
X83252656Y-39947016D01*
X83146233Y-40053438D01*
X83103384Y-40127656D01*
X83103380Y-40127665D01*
X83089223Y-40180498D01*
X83089224Y-40180499D01*
X83081200Y-40210446D01*
X83081200Y-41330500D01*
X83059526Y-41382826D01*
X83007200Y-41404500D01*
X81545600Y-41404500D01*
X81493274Y-41382826D01*
X81471600Y-41330500D01*
X81471600Y-39939500D01*
X81493274Y-39887174D01*
X81545600Y-39865500D01*
X83069746Y-39865500D01*
X83069748Y-39865500D01*
X83128231Y-39853867D01*
X83128232Y-39853866D01*
X83128233Y-39853866D01*
X83159216Y-39833163D01*
X83214764Y-39822111D01*
X83261857Y-39853576D01*
G37*
G04 #@! TD.AperFunction*
G04 #@! TA.AperFunction,Conductor*
G36*
X95900567Y-39247749D02*
G01*
X95906200Y-39276068D01*
X95906200Y-42312662D01*
X95884526Y-42364988D01*
X95832200Y-42386662D01*
X95779874Y-42364988D01*
X95779528Y-42364607D01*
X95637781Y-42222860D01*
X95473913Y-42113367D01*
X95291839Y-42037950D01*
X95291829Y-42037947D01*
X95162388Y-42012200D01*
X95098541Y-41999500D01*
X94901459Y-41999500D01*
X94846662Y-42010399D01*
X94708170Y-42037947D01*
X94708168Y-42037948D01*
X94708166Y-42037948D01*
X94708165Y-42037949D01*
X94657376Y-42058986D01*
X94605433Y-42080501D01*
X94605430Y-42080502D01*
X94548793Y-42080501D01*
X94524787Y-42064460D01*
X94143574Y-41683247D01*
X94121900Y-41630921D01*
X94121900Y-39343909D01*
X94143574Y-39291583D01*
X94195900Y-39269909D01*
X94248226Y-39291583D01*
X94264267Y-39315591D01*
X94290603Y-39379174D01*
X94290605Y-39379177D01*
X94290606Y-39379179D01*
X94378211Y-39510289D01*
X94489711Y-39621789D01*
X94620821Y-39709394D01*
X94620826Y-39709396D01*
X94620825Y-39709396D01*
X94745424Y-39761006D01*
X94766503Y-39769737D01*
X94921158Y-39800500D01*
X94921160Y-39800500D01*
X95078840Y-39800500D01*
X95078842Y-39800500D01*
X95233497Y-39769737D01*
X95379179Y-39709394D01*
X95510289Y-39621789D01*
X95621789Y-39510289D01*
X95709394Y-39379179D01*
X95763833Y-39247749D01*
X95803881Y-39207701D01*
X95860518Y-39207701D01*
X95900567Y-39247749D01*
G37*
G04 #@! TD.AperFunction*
G04 #@! TA.AperFunction,Conductor*
G36*
X99477826Y-522174D02*
G01*
X99499500Y-574500D01*
X99499500Y-79425500D01*
X99477826Y-79477826D01*
X99425500Y-79499500D01*
X574500Y-79499500D01*
X522174Y-79477826D01*
X500500Y-79425500D01*
X500500Y-22785447D01*
X6217800Y-22785447D01*
X6217800Y-27243747D01*
X6217800Y-27329453D01*
X6239982Y-27412239D01*
X6239983Y-27412241D01*
X6239984Y-27412243D01*
X6282832Y-27486458D01*
X6282833Y-27486459D01*
X6282835Y-27486462D01*
X6826793Y-28030420D01*
X7369547Y-28573174D01*
X7391221Y-28625500D01*
X7369547Y-28677826D01*
X7317221Y-28699500D01*
X7080252Y-28699500D01*
X7051010Y-28705316D01*
X7021767Y-28711133D01*
X6955449Y-28755447D01*
X6955447Y-28755449D01*
X6911133Y-28821767D01*
X6899500Y-28880253D01*
X6899500Y-31119746D01*
X6911133Y-31178232D01*
X6923213Y-31196310D01*
X6955448Y-31244552D01*
X6979413Y-31260565D01*
X7021767Y-31288866D01*
X7021768Y-31288866D01*
X7021769Y-31288867D01*
X7080252Y-31300500D01*
X7617971Y-31300500D01*
X7670297Y-31322174D01*
X7689449Y-31355346D01*
X7696681Y-31382336D01*
X7696684Y-31382343D01*
X7739532Y-31456558D01*
X7739533Y-31456559D01*
X7739535Y-31456562D01*
X16846763Y-40563789D01*
X21932396Y-45649422D01*
X21954070Y-45701748D01*
X21932396Y-45754074D01*
X21880070Y-45775748D01*
X21860917Y-45773226D01*
X21762294Y-45746800D01*
X21762292Y-45746800D01*
X21630508Y-45746800D01*
X21630506Y-45746800D01*
X21503218Y-45780906D01*
X21503209Y-45780910D01*
X21389085Y-45846800D01*
X21295900Y-45939985D01*
X21230010Y-46054109D01*
X21230006Y-46054118D01*
X21195900Y-46181405D01*
X21195900Y-46313194D01*
X21230006Y-46440481D01*
X21230010Y-46440490D01*
X21295900Y-46554614D01*
X21349226Y-46607940D01*
X21370900Y-46660266D01*
X21370900Y-68788120D01*
X21349226Y-68840446D01*
X19163480Y-71026191D01*
X19111154Y-71047865D01*
X19082836Y-71042232D01*
X18956424Y-70989871D01*
X18956413Y-70989868D01*
X18803516Y-70959455D01*
X18753465Y-70949500D01*
X18546535Y-70949500D01*
X18506385Y-70957486D01*
X18343586Y-70989868D01*
X18343579Y-70989870D01*
X18152401Y-71069059D01*
X17980345Y-71184022D01*
X17980344Y-71184024D01*
X17834024Y-71330344D01*
X17834022Y-71330345D01*
X17719059Y-71502401D01*
X17639870Y-71693579D01*
X17639868Y-71693586D01*
X17599500Y-71896535D01*
X17599500Y-72103464D01*
X17639868Y-72306413D01*
X17639870Y-72306420D01*
X17719059Y-72497598D01*
X17827479Y-72659862D01*
X17834023Y-72669655D01*
X17980345Y-72815977D01*
X18152402Y-72930941D01*
X18343580Y-73010130D01*
X18546535Y-73050500D01*
X18546536Y-73050500D01*
X18753464Y-73050500D01*
X18753465Y-73050500D01*
X18956420Y-73010130D01*
X19147598Y-72930941D01*
X19319655Y-72815977D01*
X19465977Y-72669655D01*
X19580941Y-72497598D01*
X19660130Y-72306420D01*
X19700500Y-72103465D01*
X19700500Y-71896535D01*
X20139500Y-71896535D01*
X20139500Y-72103464D01*
X20179868Y-72306413D01*
X20179870Y-72306420D01*
X20259059Y-72497598D01*
X20367479Y-72659862D01*
X20374023Y-72669655D01*
X20520345Y-72815977D01*
X20692402Y-72930941D01*
X20883580Y-73010130D01*
X21086535Y-73050500D01*
X21086536Y-73050500D01*
X21293464Y-73050500D01*
X21293465Y-73050500D01*
X21496420Y-73010130D01*
X21687598Y-72930941D01*
X21859655Y-72815977D01*
X22005977Y-72669655D01*
X22120941Y-72497598D01*
X22200130Y-72306420D01*
X22240500Y-72103465D01*
X22240500Y-71896535D01*
X22679500Y-71896535D01*
X22679500Y-72103464D01*
X22719868Y-72306413D01*
X22719870Y-72306420D01*
X22799059Y-72497598D01*
X22907479Y-72659862D01*
X22914023Y-72669655D01*
X23060345Y-72815977D01*
X23232402Y-72930941D01*
X23423580Y-73010130D01*
X23626535Y-73050500D01*
X23626536Y-73050500D01*
X23833464Y-73050500D01*
X23833465Y-73050500D01*
X24036420Y-73010130D01*
X24227598Y-72930941D01*
X24399655Y-72815977D01*
X24545977Y-72669655D01*
X24660941Y-72497598D01*
X24740130Y-72306420D01*
X24780500Y-72103465D01*
X24780500Y-71896535D01*
X24740130Y-71693580D01*
X24660941Y-71502402D01*
X24545977Y-71330345D01*
X24399655Y-71184023D01*
X24390988Y-71178232D01*
X24227598Y-71069059D01*
X24036420Y-70989870D01*
X24036413Y-70989868D01*
X23883516Y-70959455D01*
X23833465Y-70949500D01*
X23626535Y-70949500D01*
X23586385Y-70957486D01*
X23423586Y-70989868D01*
X23423579Y-70989870D01*
X23232401Y-71069059D01*
X23060345Y-71184022D01*
X23060344Y-71184024D01*
X22914024Y-71330344D01*
X22914022Y-71330345D01*
X22799059Y-71502401D01*
X22719870Y-71693579D01*
X22719868Y-71693586D01*
X22679500Y-71896535D01*
X22240500Y-71896535D01*
X22200130Y-71693580D01*
X22120941Y-71502402D01*
X22005977Y-71330345D01*
X21859655Y-71184023D01*
X21850988Y-71178232D01*
X21687598Y-71069059D01*
X21496420Y-70989870D01*
X21496413Y-70989868D01*
X21343516Y-70959455D01*
X21293465Y-70949500D01*
X21086535Y-70949500D01*
X21046385Y-70957486D01*
X20883586Y-70989868D01*
X20883579Y-70989870D01*
X20692401Y-71069059D01*
X20520345Y-71184022D01*
X20520344Y-71184024D01*
X20374024Y-71330344D01*
X20374022Y-71330345D01*
X20259059Y-71502401D01*
X20179870Y-71693579D01*
X20179868Y-71693586D01*
X20139500Y-71896535D01*
X19700500Y-71896535D01*
X19660130Y-71693580D01*
X19607766Y-71567163D01*
X19607766Y-71510525D01*
X19623804Y-71486521D01*
X21956865Y-69153462D01*
X21999718Y-69079239D01*
X22021900Y-68996453D01*
X22021900Y-68910747D01*
X22021900Y-46660266D01*
X22043574Y-46607940D01*
X22096900Y-46554614D01*
X22162792Y-46440486D01*
X22196899Y-46313194D01*
X22196900Y-46313194D01*
X22196900Y-46181406D01*
X22196899Y-46181405D01*
X22170473Y-46082782D01*
X22177865Y-46026630D01*
X22222798Y-45992151D01*
X22278950Y-45999543D01*
X22294277Y-46011303D01*
X25922826Y-49639852D01*
X25944500Y-49692178D01*
X25944500Y-70948327D01*
X25922826Y-71000653D01*
X25898819Y-71016694D01*
X25772401Y-71069059D01*
X25600345Y-71184022D01*
X25600344Y-71184024D01*
X25454024Y-71330344D01*
X25454022Y-71330345D01*
X25339059Y-71502401D01*
X25259870Y-71693579D01*
X25259868Y-71693586D01*
X25219500Y-71896535D01*
X25219500Y-72103464D01*
X25259868Y-72306413D01*
X25259870Y-72306420D01*
X25339059Y-72497598D01*
X25447479Y-72659862D01*
X25454023Y-72669655D01*
X25600345Y-72815977D01*
X25772402Y-72930941D01*
X25963580Y-73010130D01*
X26166535Y-73050500D01*
X26166536Y-73050500D01*
X26373464Y-73050500D01*
X26373465Y-73050500D01*
X26576420Y-73010130D01*
X26767598Y-72930941D01*
X26939655Y-72815977D01*
X27085977Y-72669655D01*
X27200941Y-72497598D01*
X27280130Y-72306420D01*
X27320500Y-72103465D01*
X27320500Y-71896535D01*
X27759500Y-71896535D01*
X27759500Y-72103464D01*
X27799868Y-72306413D01*
X27799870Y-72306420D01*
X27879059Y-72497598D01*
X27987479Y-72659862D01*
X27994023Y-72669655D01*
X28140345Y-72815977D01*
X28312402Y-72930941D01*
X28503580Y-73010130D01*
X28706535Y-73050500D01*
X28706536Y-73050500D01*
X28913464Y-73050500D01*
X28913465Y-73050500D01*
X29116420Y-73010130D01*
X29307598Y-72930941D01*
X29479655Y-72815977D01*
X29625977Y-72669655D01*
X29740941Y-72497598D01*
X29820130Y-72306420D01*
X29860500Y-72103465D01*
X29860500Y-71896535D01*
X30299500Y-71896535D01*
X30299500Y-72103464D01*
X30339868Y-72306413D01*
X30339870Y-72306420D01*
X30419059Y-72497598D01*
X30527479Y-72659862D01*
X30534023Y-72669655D01*
X30680345Y-72815977D01*
X30852402Y-72930941D01*
X31043580Y-73010130D01*
X31246535Y-73050500D01*
X31246536Y-73050500D01*
X31453464Y-73050500D01*
X31453465Y-73050500D01*
X31656420Y-73010130D01*
X31847598Y-72930941D01*
X32019655Y-72815977D01*
X32165977Y-72669655D01*
X32280941Y-72497598D01*
X32360130Y-72306420D01*
X32400500Y-72103465D01*
X32400500Y-71896535D01*
X32360130Y-71693580D01*
X32280941Y-71502402D01*
X32165977Y-71330345D01*
X32019655Y-71184023D01*
X32010988Y-71178232D01*
X31847598Y-71069059D01*
X31656420Y-70989870D01*
X31656413Y-70989868D01*
X31503516Y-70959455D01*
X31453465Y-70949500D01*
X31246535Y-70949500D01*
X31206385Y-70957486D01*
X31043586Y-70989868D01*
X31043579Y-70989870D01*
X30852401Y-71069059D01*
X30680345Y-71184022D01*
X30680344Y-71184024D01*
X30534024Y-71330344D01*
X30534022Y-71330345D01*
X30419059Y-71502401D01*
X30339870Y-71693579D01*
X30339868Y-71693586D01*
X30299500Y-71896535D01*
X29860500Y-71896535D01*
X29820130Y-71693580D01*
X29767766Y-71567163D01*
X29767766Y-71510525D01*
X29783804Y-71486521D01*
X31103465Y-70166862D01*
X31146318Y-70092639D01*
X31168500Y-70009853D01*
X31168500Y-69924147D01*
X31168500Y-68880253D01*
X44899500Y-68880253D01*
X44899500Y-71119746D01*
X44911133Y-71178232D01*
X44940608Y-71222343D01*
X44955448Y-71244552D01*
X44999560Y-71274027D01*
X45021767Y-71288866D01*
X45021768Y-71288866D01*
X45021769Y-71288867D01*
X45080252Y-71300500D01*
X45600500Y-71300500D01*
X45652826Y-71322174D01*
X45674500Y-71374500D01*
X45674500Y-73497147D01*
X45674500Y-73582853D01*
X45681622Y-73609432D01*
X45696683Y-73665641D01*
X45696684Y-73665643D01*
X45739532Y-73739858D01*
X45739533Y-73739859D01*
X45739535Y-73739862D01*
X46022158Y-74022485D01*
X46150988Y-74151315D01*
X46172662Y-74203641D01*
X46164597Y-74237236D01*
X46069429Y-74424013D01*
X45996449Y-74648621D01*
X45996446Y-74648634D01*
X45959500Y-74881907D01*
X45959500Y-75118092D01*
X45996446Y-75351365D01*
X45996449Y-75351378D01*
X46069429Y-75575986D01*
X46069431Y-75575991D01*
X46069432Y-75575992D01*
X46176657Y-75786433D01*
X46315483Y-75977510D01*
X46482490Y-76144517D01*
X46673567Y-76283343D01*
X46884008Y-76390568D01*
X46884010Y-76390568D01*
X46884013Y-76390570D01*
X47108621Y-76463550D01*
X47108627Y-76463551D01*
X47108632Y-76463553D01*
X47264149Y-76488184D01*
X47341907Y-76500500D01*
X47341908Y-76500500D01*
X47578093Y-76500500D01*
X47636411Y-76491263D01*
X47811368Y-76463553D01*
X47811375Y-76463550D01*
X47811378Y-76463550D01*
X48035986Y-76390570D01*
X48035986Y-76390569D01*
X48035992Y-76390568D01*
X48246433Y-76283343D01*
X48437510Y-76144517D01*
X48604517Y-75977510D01*
X48743343Y-75786433D01*
X48850568Y-75575992D01*
X48923553Y-75351368D01*
X48960500Y-75118092D01*
X48960500Y-74881908D01*
X48923553Y-74648632D01*
X48923551Y-74648627D01*
X48923550Y-74648621D01*
X48850570Y-74424013D01*
X48850568Y-74424010D01*
X48850568Y-74424008D01*
X48743343Y-74213567D01*
X48604517Y-74022490D01*
X48437510Y-73855483D01*
X48437507Y-73855480D01*
X48437505Y-73855479D01*
X48246432Y-73716656D01*
X48035986Y-73609429D01*
X47811378Y-73536449D01*
X47811365Y-73536446D01*
X47578093Y-73499500D01*
X47578092Y-73499500D01*
X47341908Y-73499500D01*
X47341907Y-73499500D01*
X47108634Y-73536446D01*
X47108621Y-73536449D01*
X46884013Y-73609429D01*
X46697236Y-73704597D01*
X46640774Y-73709040D01*
X46611315Y-73690988D01*
X46347174Y-73426847D01*
X46325500Y-73374521D01*
X46325500Y-71374500D01*
X46347174Y-71322174D01*
X46399500Y-71300500D01*
X46919746Y-71300500D01*
X46919748Y-71300500D01*
X46978231Y-71288867D01*
X47044552Y-71244552D01*
X47088867Y-71178231D01*
X47100500Y-71119748D01*
X47100500Y-68880252D01*
X47088867Y-68821769D01*
X47044552Y-68755448D01*
X46986090Y-68716384D01*
X46978232Y-68711133D01*
X46978233Y-68711133D01*
X46948989Y-68705316D01*
X46919748Y-68699500D01*
X45080252Y-68699500D01*
X45051010Y-68705316D01*
X45021767Y-68711133D01*
X44955449Y-68755447D01*
X44955447Y-68755449D01*
X44911133Y-68821767D01*
X44899500Y-68880253D01*
X31168500Y-68880253D01*
X31168500Y-43382966D01*
X31190174Y-43330640D01*
X31243500Y-43277314D01*
X31309392Y-43163186D01*
X31343499Y-43035894D01*
X31343500Y-43035894D01*
X31343500Y-42904106D01*
X31343499Y-42904105D01*
X31309393Y-42776818D01*
X31309392Y-42776814D01*
X31243500Y-42662686D01*
X31150314Y-42569500D01*
X31130815Y-42558242D01*
X31036190Y-42503610D01*
X31036181Y-42503606D01*
X30908894Y-42469500D01*
X30908892Y-42469500D01*
X30777108Y-42469500D01*
X30777106Y-42469500D01*
X30649818Y-42503606D01*
X30649809Y-42503610D01*
X30535685Y-42569500D01*
X30442500Y-42662685D01*
X30376610Y-42776809D01*
X30376606Y-42776818D01*
X30342500Y-42904105D01*
X30342500Y-43035894D01*
X30376606Y-43163181D01*
X30376610Y-43163190D01*
X30442500Y-43277314D01*
X30495826Y-43330640D01*
X30517500Y-43382966D01*
X30517500Y-69801520D01*
X30495826Y-69853846D01*
X29323480Y-71026191D01*
X29271154Y-71047865D01*
X29242836Y-71042232D01*
X29116424Y-70989871D01*
X29116413Y-70989868D01*
X28963516Y-70959455D01*
X28913465Y-70949500D01*
X28706535Y-70949500D01*
X28666385Y-70957486D01*
X28503586Y-70989868D01*
X28503579Y-70989870D01*
X28312401Y-71069059D01*
X28140345Y-71184022D01*
X28140344Y-71184024D01*
X27994024Y-71330344D01*
X27994022Y-71330345D01*
X27879059Y-71502401D01*
X27799870Y-71693579D01*
X27799868Y-71693586D01*
X27759500Y-71896535D01*
X27320500Y-71896535D01*
X27280130Y-71693580D01*
X27200941Y-71502402D01*
X27085977Y-71330345D01*
X26939655Y-71184023D01*
X26930988Y-71178232D01*
X26767598Y-71069059D01*
X26641181Y-71016694D01*
X26601133Y-70976645D01*
X26595500Y-70948327D01*
X26595500Y-49483847D01*
X26575444Y-49408997D01*
X26573318Y-49401062D01*
X26573318Y-49401061D01*
X26551891Y-49363950D01*
X26530465Y-49326838D01*
X26469862Y-49266235D01*
X26467283Y-49263656D01*
X26467272Y-49263646D01*
X8630453Y-31426826D01*
X8608779Y-31374500D01*
X8630453Y-31322174D01*
X8682779Y-31300500D01*
X8919746Y-31300500D01*
X8919748Y-31300500D01*
X8978231Y-31288867D01*
X9044552Y-31244552D01*
X9088867Y-31178231D01*
X9100500Y-31119748D01*
X9100500Y-28880252D01*
X9088867Y-28821769D01*
X9044552Y-28755448D01*
X9008163Y-28731133D01*
X8978232Y-28711133D01*
X8978233Y-28711133D01*
X8948989Y-28705316D01*
X8919748Y-28699500D01*
X8919746Y-28699500D01*
X8382029Y-28699500D01*
X8364182Y-28692107D01*
X8345031Y-28689587D01*
X8338942Y-28681653D01*
X8329703Y-28677826D01*
X8310551Y-28644654D01*
X8308710Y-28637784D01*
X8308709Y-28637781D01*
X8303319Y-28617664D01*
X8303319Y-28617663D01*
X8260467Y-28543441D01*
X8260466Y-28543440D01*
X8260465Y-28543438D01*
X6890474Y-27173447D01*
X6868800Y-27121121D01*
X6868800Y-23325100D01*
X6890474Y-23272774D01*
X6942800Y-23251100D01*
X6983913Y-23263572D01*
X7021767Y-23288866D01*
X7021768Y-23288866D01*
X7021769Y-23288867D01*
X7080252Y-23300500D01*
X7080254Y-23300500D01*
X8919746Y-23300500D01*
X8919748Y-23300500D01*
X8978231Y-23288867D01*
X9044552Y-23244552D01*
X9088867Y-23178231D01*
X9100500Y-23119748D01*
X9100500Y-20880252D01*
X9088867Y-20821769D01*
X9044552Y-20755448D01*
X9022343Y-20740608D01*
X8978232Y-20711133D01*
X8978233Y-20711133D01*
X8948989Y-20705316D01*
X8919748Y-20699500D01*
X8919746Y-20699500D01*
X8682779Y-20699500D01*
X8630453Y-20677826D01*
X8608779Y-20625500D01*
X8630453Y-20573174D01*
X8775801Y-20427826D01*
X9717165Y-19486462D01*
X9760018Y-19412239D01*
X9782200Y-19329453D01*
X9782200Y-19243747D01*
X9782200Y-16152079D01*
X9803874Y-16099753D01*
X10125396Y-15778231D01*
X10482423Y-15421203D01*
X10534748Y-15399530D01*
X10587074Y-15421204D01*
X10607326Y-15459092D01*
X10611133Y-15478233D01*
X10644642Y-15528380D01*
X10655448Y-15544552D01*
X10695377Y-15571232D01*
X10721767Y-15588866D01*
X10721768Y-15588866D01*
X10721769Y-15588867D01*
X10780252Y-15600500D01*
X10780254Y-15600500D01*
X12219746Y-15600500D01*
X12219748Y-15600500D01*
X12278231Y-15588867D01*
X12333887Y-15551677D01*
X12389435Y-15540628D01*
X12416112Y-15551677D01*
X12439381Y-15567226D01*
X12471767Y-15588866D01*
X12471768Y-15588866D01*
X12471769Y-15588867D01*
X12530252Y-15600500D01*
X12594700Y-15600500D01*
X12647026Y-15622174D01*
X12668700Y-15674500D01*
X12668700Y-16147834D01*
X12647026Y-16200160D01*
X12593700Y-16253485D01*
X12527810Y-16367609D01*
X12527806Y-16367618D01*
X12493700Y-16494905D01*
X12493700Y-16626694D01*
X12527806Y-16753981D01*
X12527810Y-16753990D01*
X12554453Y-16800137D01*
X12593700Y-16868114D01*
X12686886Y-16961300D01*
X12801014Y-17027192D01*
X12928305Y-17061299D01*
X12928306Y-17061300D01*
X12928308Y-17061300D01*
X13060094Y-17061300D01*
X13060094Y-17061299D01*
X13187386Y-17027192D01*
X13301514Y-16961300D01*
X13394700Y-16868114D01*
X13460592Y-16753986D01*
X13494699Y-16626694D01*
X13494700Y-16626694D01*
X13494700Y-16494906D01*
X13494699Y-16494905D01*
X13492118Y-16485274D01*
X13460592Y-16367614D01*
X13394700Y-16253486D01*
X13341374Y-16200160D01*
X13319700Y-16147834D01*
X13319700Y-15674500D01*
X13341374Y-15622174D01*
X13393700Y-15600500D01*
X13969746Y-15600500D01*
X13969748Y-15600500D01*
X14028231Y-15588867D01*
X14094552Y-15544552D01*
X14138867Y-15478231D01*
X14150500Y-15419748D01*
X14150500Y-14619400D01*
X14172174Y-14567074D01*
X14224500Y-14545400D01*
X15775500Y-14545400D01*
X15827826Y-14567074D01*
X15849500Y-14619400D01*
X15849500Y-15419746D01*
X15861133Y-15478232D01*
X15890608Y-15522343D01*
X15905448Y-15544552D01*
X15945377Y-15571232D01*
X15971767Y-15588866D01*
X15971768Y-15588866D01*
X15971769Y-15588867D01*
X16030252Y-15600500D01*
X16859521Y-15600500D01*
X16911847Y-15622174D01*
X17244646Y-15954972D01*
X17244651Y-15954978D01*
X17247235Y-15957562D01*
X17307838Y-16018165D01*
X17352759Y-16044100D01*
X17382062Y-16061018D01*
X17382063Y-16061018D01*
X17382065Y-16061019D01*
X17423454Y-16072109D01*
X17464844Y-16083200D01*
X17464845Y-16083201D01*
X17464847Y-16083201D01*
X17555083Y-16083201D01*
X17555099Y-16083200D01*
X17612121Y-16083200D01*
X17664447Y-16104874D01*
X22652826Y-21093253D01*
X22674500Y-21145579D01*
X22674500Y-27002447D01*
X22652826Y-27054773D01*
X22628819Y-27070814D01*
X22526089Y-27113366D01*
X22362218Y-27222860D01*
X22362217Y-27222862D01*
X22222862Y-27362217D01*
X22222860Y-27362218D01*
X22113367Y-27526086D01*
X22037950Y-27708160D01*
X22037947Y-27708170D01*
X22006387Y-27866838D01*
X21999500Y-27901459D01*
X21999500Y-28098541D01*
X22001691Y-28109556D01*
X22037947Y-28291829D01*
X22037950Y-28291839D01*
X22113367Y-28473913D01*
X22209799Y-28618233D01*
X22222861Y-28637782D01*
X22362218Y-28777139D01*
X22526086Y-28886632D01*
X22708165Y-28962051D01*
X22901459Y-29000500D01*
X22901461Y-29000500D01*
X23098539Y-29000500D01*
X23098541Y-29000500D01*
X23291835Y-28962051D01*
X23473914Y-28886632D01*
X23637782Y-28777139D01*
X23777139Y-28637782D01*
X23790582Y-28617664D01*
X23820309Y-28573174D01*
X23886632Y-28473914D01*
X23962051Y-28291835D01*
X24000500Y-28098541D01*
X24000500Y-27901459D01*
X23962051Y-27708165D01*
X23919497Y-27605429D01*
X23919497Y-27548795D01*
X23935535Y-27524790D01*
X27463153Y-23997174D01*
X27515479Y-23975500D01*
X29792851Y-23975500D01*
X29792853Y-23975500D01*
X29875639Y-23953318D01*
X29949862Y-23910465D01*
X31749020Y-22111305D01*
X36091300Y-22111305D01*
X36091300Y-22243094D01*
X36125406Y-22370381D01*
X36125410Y-22370390D01*
X36191300Y-22484514D01*
X36244626Y-22537840D01*
X36266300Y-22590166D01*
X36266300Y-59517247D01*
X36266300Y-59602953D01*
X36288482Y-59685739D01*
X36288483Y-59685741D01*
X36288484Y-59685743D01*
X36331332Y-59759958D01*
X36331333Y-59759959D01*
X36331335Y-59759962D01*
X38603695Y-62032322D01*
X40769547Y-64198174D01*
X40791221Y-64250500D01*
X40769547Y-64302826D01*
X40717221Y-64324500D01*
X40705252Y-64324500D01*
X40676010Y-64330316D01*
X40646767Y-64336133D01*
X40580449Y-64380447D01*
X40580447Y-64380449D01*
X40536133Y-64446767D01*
X40536133Y-64446769D01*
X40524500Y-64505252D01*
X40524500Y-65494748D01*
X40525390Y-65499220D01*
X40536133Y-65553232D01*
X40565608Y-65597343D01*
X40580448Y-65619552D01*
X40624560Y-65649027D01*
X40646767Y-65663866D01*
X40646768Y-65663866D01*
X40646769Y-65663867D01*
X40705252Y-65675500D01*
X40705254Y-65675500D01*
X41694746Y-65675500D01*
X41694748Y-65675500D01*
X41753231Y-65663867D01*
X41819552Y-65619552D01*
X41863867Y-65553231D01*
X41875500Y-65494748D01*
X41875500Y-64505252D01*
X42124500Y-64505252D01*
X42124500Y-65494748D01*
X42125390Y-65499220D01*
X42136133Y-65553232D01*
X42165608Y-65597343D01*
X42180448Y-65619552D01*
X42224560Y-65649027D01*
X42246767Y-65663866D01*
X42246768Y-65663866D01*
X42246769Y-65663867D01*
X42305252Y-65675500D01*
X42400500Y-65675500D01*
X42452826Y-65697174D01*
X42474500Y-65749500D01*
X42474500Y-65788847D01*
X42474500Y-65874553D01*
X42485063Y-65913974D01*
X42496683Y-65957341D01*
X42496684Y-65957343D01*
X42539532Y-66031558D01*
X42539533Y-66031559D01*
X42539535Y-66031562D01*
X42713471Y-66205498D01*
X42735145Y-66257823D01*
X42713471Y-66310149D01*
X42675583Y-66330401D01*
X42646767Y-66336133D01*
X42580449Y-66380447D01*
X42580447Y-66380449D01*
X42536133Y-66446767D01*
X42524500Y-66505253D01*
X42524500Y-67494746D01*
X42536133Y-67553232D01*
X42565608Y-67597343D01*
X42580448Y-67619552D01*
X42624560Y-67649027D01*
X42646767Y-67663866D01*
X42646768Y-67663866D01*
X42646769Y-67663867D01*
X42705252Y-67675500D01*
X42705254Y-67675500D01*
X43694746Y-67675500D01*
X43694748Y-67675500D01*
X43753231Y-67663867D01*
X43819552Y-67619552D01*
X43863867Y-67553231D01*
X43875500Y-67494748D01*
X43875500Y-66567800D01*
X43897174Y-66515474D01*
X43949500Y-66493800D01*
X46334551Y-66493800D01*
X46334553Y-66493800D01*
X46417339Y-66471618D01*
X46491562Y-66428765D01*
X46760014Y-66160310D01*
X46812340Y-66138637D01*
X46845935Y-66146703D01*
X46960779Y-66205219D01*
X46960781Y-66205220D01*
X46960783Y-66205220D01*
X46960784Y-66205221D01*
X47155455Y-66268474D01*
X47155461Y-66268475D01*
X47155466Y-66268477D01*
X47239785Y-66281832D01*
X47357646Y-66300500D01*
X47357648Y-66300500D01*
X47562354Y-66300500D01*
X47670675Y-66283343D01*
X47764534Y-66268477D01*
X47764541Y-66268474D01*
X47764544Y-66268474D01*
X47959213Y-66205222D01*
X47959213Y-66205221D01*
X47959219Y-66205220D01*
X48141610Y-66112287D01*
X48307219Y-65991966D01*
X48451966Y-65847219D01*
X48572287Y-65681610D01*
X48664066Y-65501482D01*
X48707132Y-65464701D01*
X48763595Y-65469144D01*
X48795933Y-65501482D01*
X48815705Y-65540286D01*
X48887712Y-65681610D01*
X48961406Y-65783040D01*
X49008034Y-65847219D01*
X49152781Y-65991966D01*
X49244695Y-66058745D01*
X49318389Y-66112287D01*
X49385935Y-66146703D01*
X49500781Y-66205220D01*
X49500783Y-66205220D01*
X49500786Y-66205222D01*
X49623367Y-66245050D01*
X49666434Y-66281832D01*
X49674500Y-66315428D01*
X49674500Y-68625500D01*
X49652826Y-68677826D01*
X49600500Y-68699500D01*
X49080252Y-68699500D01*
X49051010Y-68705316D01*
X49021767Y-68711133D01*
X48955449Y-68755447D01*
X48955447Y-68755449D01*
X48911133Y-68821767D01*
X48899500Y-68880253D01*
X48899500Y-71119746D01*
X48911133Y-71178232D01*
X48940608Y-71222343D01*
X48955448Y-71244552D01*
X48999560Y-71274027D01*
X49021767Y-71288866D01*
X49021768Y-71288866D01*
X49021769Y-71288867D01*
X49080252Y-71300500D01*
X49080254Y-71300500D01*
X50857200Y-71300500D01*
X50909526Y-71322174D01*
X50931200Y-71374500D01*
X50931200Y-73673847D01*
X50931200Y-73759553D01*
X50953382Y-73842339D01*
X50953383Y-73842341D01*
X50953384Y-73842343D01*
X50996232Y-73916558D01*
X50996233Y-73916559D01*
X50996235Y-73916562D01*
X51230988Y-74151315D01*
X51252662Y-74203641D01*
X51244597Y-74237236D01*
X51149429Y-74424013D01*
X51076449Y-74648621D01*
X51076446Y-74648634D01*
X51039500Y-74881907D01*
X51039500Y-75118092D01*
X51076446Y-75351365D01*
X51076449Y-75351378D01*
X51149429Y-75575986D01*
X51149431Y-75575991D01*
X51149432Y-75575992D01*
X51256657Y-75786433D01*
X51395483Y-75977510D01*
X51562490Y-76144517D01*
X51753567Y-76283343D01*
X51964008Y-76390568D01*
X51964010Y-76390568D01*
X51964013Y-76390570D01*
X52188621Y-76463550D01*
X52188627Y-76463551D01*
X52188632Y-76463553D01*
X52344149Y-76488184D01*
X52421907Y-76500500D01*
X52421908Y-76500500D01*
X52658093Y-76500500D01*
X52716411Y-76491263D01*
X52891368Y-76463553D01*
X52891375Y-76463550D01*
X52891378Y-76463550D01*
X53115986Y-76390570D01*
X53115986Y-76390569D01*
X53115992Y-76390568D01*
X53326433Y-76283343D01*
X53517510Y-76144517D01*
X53684517Y-75977510D01*
X53823343Y-75786433D01*
X53930568Y-75575992D01*
X54003553Y-75351368D01*
X54040500Y-75118092D01*
X54040500Y-74881908D01*
X54003553Y-74648632D01*
X54003551Y-74648627D01*
X54003550Y-74648621D01*
X53930570Y-74424013D01*
X53930568Y-74424010D01*
X53930568Y-74424008D01*
X53823343Y-74213567D01*
X53684517Y-74022490D01*
X53517510Y-73855483D01*
X53517507Y-73855480D01*
X53517505Y-73855479D01*
X53326432Y-73716656D01*
X53115986Y-73609429D01*
X52891378Y-73536449D01*
X52891365Y-73536446D01*
X52658093Y-73499500D01*
X52658092Y-73499500D01*
X52421908Y-73499500D01*
X52421907Y-73499500D01*
X52188634Y-73536446D01*
X52188621Y-73536449D01*
X51964013Y-73609429D01*
X51777236Y-73704597D01*
X51759799Y-73705969D01*
X51743641Y-73712662D01*
X51732642Y-73708106D01*
X51720774Y-73709040D01*
X51691315Y-73690988D01*
X51603874Y-73603547D01*
X51582200Y-73551221D01*
X51582200Y-69957145D01*
X51582199Y-69957144D01*
X51560019Y-69874366D01*
X51560018Y-69874362D01*
X51517165Y-69800138D01*
X51456562Y-69739535D01*
X51382338Y-69696682D01*
X51382335Y-69696681D01*
X51382333Y-69696680D01*
X51299555Y-69674500D01*
X51299553Y-69674500D01*
X51174500Y-69674500D01*
X51122174Y-69652826D01*
X51100500Y-69600500D01*
X51100500Y-68880253D01*
X56899500Y-68880253D01*
X56899500Y-71119746D01*
X56911133Y-71178232D01*
X56940608Y-71222343D01*
X56955448Y-71244552D01*
X56999560Y-71274027D01*
X57021767Y-71288866D01*
X57021768Y-71288866D01*
X57021769Y-71288867D01*
X57080252Y-71300500D01*
X57600500Y-71300500D01*
X57652826Y-71322174D01*
X57674500Y-71374500D01*
X57674500Y-73497147D01*
X57674500Y-73582853D01*
X57681622Y-73609432D01*
X57696683Y-73665641D01*
X57696684Y-73665643D01*
X57739532Y-73739858D01*
X57739533Y-73739859D01*
X57739535Y-73739862D01*
X58022158Y-74022485D01*
X58150988Y-74151315D01*
X58172662Y-74203641D01*
X58164597Y-74237236D01*
X58069429Y-74424013D01*
X57996449Y-74648621D01*
X57996446Y-74648634D01*
X57959500Y-74881907D01*
X57959500Y-75118092D01*
X57996446Y-75351365D01*
X57996449Y-75351378D01*
X58069429Y-75575986D01*
X58069431Y-75575991D01*
X58069432Y-75575992D01*
X58176657Y-75786433D01*
X58315483Y-75977510D01*
X58482490Y-76144517D01*
X58673567Y-76283343D01*
X58884008Y-76390568D01*
X58884010Y-76390568D01*
X58884013Y-76390570D01*
X59108621Y-76463550D01*
X59108627Y-76463551D01*
X59108632Y-76463553D01*
X59264149Y-76488184D01*
X59341907Y-76500500D01*
X59341908Y-76500500D01*
X59578093Y-76500500D01*
X59636411Y-76491263D01*
X59811368Y-76463553D01*
X59811375Y-76463550D01*
X59811378Y-76463550D01*
X60035986Y-76390570D01*
X60035986Y-76390569D01*
X60035992Y-76390568D01*
X60246433Y-76283343D01*
X60437510Y-76144517D01*
X60604517Y-75977510D01*
X60743343Y-75786433D01*
X60850568Y-75575992D01*
X60923553Y-75351368D01*
X60960500Y-75118092D01*
X60960500Y-74881908D01*
X60923553Y-74648632D01*
X60923551Y-74648627D01*
X60923550Y-74648621D01*
X60850570Y-74424013D01*
X60850568Y-74424010D01*
X60850568Y-74424008D01*
X60743343Y-74213567D01*
X60604517Y-74022490D01*
X60437510Y-73855483D01*
X60437507Y-73855480D01*
X60437505Y-73855479D01*
X60246432Y-73716656D01*
X60035986Y-73609429D01*
X59811378Y-73536449D01*
X59811365Y-73536446D01*
X59578093Y-73499500D01*
X59578092Y-73499500D01*
X59341908Y-73499500D01*
X59341907Y-73499500D01*
X59108634Y-73536446D01*
X59108621Y-73536449D01*
X58884013Y-73609429D01*
X58697236Y-73704597D01*
X58640774Y-73709040D01*
X58611315Y-73690988D01*
X58347174Y-73426847D01*
X58325500Y-73374521D01*
X58325500Y-71374500D01*
X58347174Y-71322174D01*
X58399500Y-71300500D01*
X58919746Y-71300500D01*
X58919748Y-71300500D01*
X58978231Y-71288867D01*
X59044552Y-71244552D01*
X59088867Y-71178231D01*
X59100500Y-71119748D01*
X59100500Y-68880252D01*
X59088867Y-68821769D01*
X59044552Y-68755448D01*
X58986090Y-68716384D01*
X58978232Y-68711133D01*
X58978233Y-68711133D01*
X58948989Y-68705316D01*
X58919748Y-68699500D01*
X57080252Y-68699500D01*
X57051010Y-68705316D01*
X57021767Y-68711133D01*
X56955449Y-68755447D01*
X56955447Y-68755449D01*
X56911133Y-68821767D01*
X56899500Y-68880253D01*
X51100500Y-68880253D01*
X51092582Y-68840446D01*
X51088867Y-68821769D01*
X51044552Y-68755448D01*
X50986090Y-68716384D01*
X50978232Y-68711133D01*
X50978233Y-68711133D01*
X50948989Y-68705316D01*
X50919748Y-68699500D01*
X50919746Y-68699500D01*
X50399500Y-68699500D01*
X50347174Y-68677826D01*
X50325500Y-68625500D01*
X50325500Y-66315428D01*
X50347174Y-66263102D01*
X50376633Y-66245050D01*
X50499213Y-66205222D01*
X50499213Y-66205221D01*
X50499219Y-66205220D01*
X50681610Y-66112287D01*
X50847219Y-65991966D01*
X50991966Y-65847219D01*
X51112287Y-65681610D01*
X51205220Y-65499219D01*
X51221137Y-65450231D01*
X51268474Y-65304544D01*
X51268474Y-65304541D01*
X51268477Y-65304534D01*
X51300500Y-65102352D01*
X51300500Y-64897648D01*
X51268477Y-64695466D01*
X51268475Y-64695461D01*
X51268474Y-64695455D01*
X51205222Y-64500786D01*
X51205220Y-64500783D01*
X51205220Y-64500781D01*
X51143907Y-64380447D01*
X51112287Y-64318389D01*
X51036129Y-64213567D01*
X50991966Y-64152781D01*
X50847219Y-64008034D01*
X50740571Y-63930550D01*
X50681610Y-63887712D01*
X50499213Y-63794777D01*
X50304544Y-63731525D01*
X50304531Y-63731522D01*
X50102354Y-63699500D01*
X50102352Y-63699500D01*
X49897648Y-63699500D01*
X49897646Y-63699500D01*
X49695468Y-63731522D01*
X49695455Y-63731525D01*
X49500786Y-63794777D01*
X49318389Y-63887712D01*
X49152785Y-64008031D01*
X49152781Y-64008034D01*
X49008034Y-64152781D01*
X49008031Y-64152784D01*
X49008031Y-64152785D01*
X48887712Y-64318389D01*
X48795935Y-64498515D01*
X48752867Y-64535298D01*
X48696405Y-64530855D01*
X48664065Y-64498515D01*
X48572287Y-64318389D01*
X48496129Y-64213567D01*
X48451966Y-64152781D01*
X48307219Y-64008034D01*
X48200571Y-63930550D01*
X48141610Y-63887712D01*
X47959213Y-63794777D01*
X47764544Y-63731525D01*
X47764531Y-63731522D01*
X47562354Y-63699500D01*
X47562352Y-63699500D01*
X47357648Y-63699500D01*
X47357646Y-63699500D01*
X47155468Y-63731522D01*
X47155455Y-63731525D01*
X46960786Y-63794777D01*
X46778389Y-63887712D01*
X46612785Y-64008031D01*
X46612781Y-64008034D01*
X46468034Y-64152781D01*
X46468031Y-64152784D01*
X46468031Y-64152785D01*
X46347712Y-64318389D01*
X46254777Y-64500786D01*
X46191525Y-64695455D01*
X46191522Y-64695468D01*
X46159500Y-64897646D01*
X46159500Y-65102353D01*
X46191522Y-65304531D01*
X46191525Y-65304544D01*
X46254778Y-65499215D01*
X46254780Y-65499220D01*
X46313296Y-65614063D01*
X46317740Y-65670525D01*
X46299688Y-65699984D01*
X46178547Y-65821126D01*
X46126221Y-65842800D01*
X43302079Y-65842800D01*
X43249753Y-65821126D01*
X43230453Y-65801826D01*
X43208779Y-65749500D01*
X43230453Y-65697174D01*
X43282779Y-65675500D01*
X43294746Y-65675500D01*
X43294748Y-65675500D01*
X43353231Y-65663867D01*
X43419552Y-65619552D01*
X43463867Y-65553231D01*
X43475500Y-65494748D01*
X43475500Y-64505252D01*
X43463867Y-64446769D01*
X43419552Y-64380448D01*
X43397343Y-64365608D01*
X43353232Y-64336133D01*
X43353233Y-64336133D01*
X43323989Y-64330316D01*
X43294748Y-64324500D01*
X42305252Y-64324500D01*
X42276010Y-64330316D01*
X42246767Y-64336133D01*
X42180449Y-64380447D01*
X42180447Y-64380449D01*
X42136133Y-64446767D01*
X42136133Y-64446769D01*
X42124500Y-64505252D01*
X41875500Y-64505252D01*
X41863867Y-64446769D01*
X41819552Y-64380448D01*
X41797343Y-64365608D01*
X41753232Y-64336133D01*
X41753233Y-64336133D01*
X41723989Y-64330316D01*
X41694748Y-64324500D01*
X41694746Y-64324500D01*
X41599500Y-64324500D01*
X41547174Y-64302826D01*
X41525500Y-64250500D01*
X41525500Y-64125445D01*
X41525499Y-64125444D01*
X41521492Y-64110489D01*
X41505150Y-64049500D01*
X41503318Y-64042661D01*
X41491674Y-64022494D01*
X41460467Y-63968441D01*
X41460466Y-63968440D01*
X41460465Y-63968438D01*
X36938974Y-59446947D01*
X36917300Y-59394621D01*
X36917300Y-22590166D01*
X36938974Y-22537840D01*
X36992300Y-22484514D01*
X37058192Y-22370386D01*
X37092299Y-22243094D01*
X37092300Y-22243094D01*
X37092300Y-22111306D01*
X37092299Y-22111305D01*
X37083612Y-22078886D01*
X37058192Y-21984014D01*
X36992300Y-21869886D01*
X36899114Y-21776700D01*
X36891275Y-21772174D01*
X36784990Y-21710810D01*
X36784981Y-21710806D01*
X36657694Y-21676700D01*
X36657692Y-21676700D01*
X36525908Y-21676700D01*
X36525906Y-21676700D01*
X36398618Y-21710806D01*
X36398609Y-21710810D01*
X36284485Y-21776700D01*
X36191300Y-21869885D01*
X36125410Y-21984009D01*
X36125406Y-21984018D01*
X36091300Y-22111305D01*
X31749020Y-22111305D01*
X32088152Y-21772173D01*
X32140478Y-21750500D01*
X33119746Y-21750500D01*
X33119748Y-21750500D01*
X33178231Y-21738867D01*
X33244552Y-21694552D01*
X33288867Y-21628231D01*
X33300500Y-21569748D01*
X33300500Y-20630252D01*
X33288867Y-20571769D01*
X33244552Y-20505448D01*
X33222343Y-20490608D01*
X33178232Y-20461133D01*
X33178233Y-20461133D01*
X33148989Y-20455316D01*
X33119748Y-20449500D01*
X31480252Y-20449500D01*
X31451010Y-20455316D01*
X31421767Y-20461133D01*
X31355449Y-20505447D01*
X31355447Y-20505449D01*
X31311133Y-20571767D01*
X31303468Y-20610303D01*
X31299500Y-20630252D01*
X31299500Y-21569748D01*
X31302624Y-21585453D01*
X31303468Y-21589697D01*
X31292416Y-21645245D01*
X31283215Y-21656457D01*
X29636847Y-23302826D01*
X29584521Y-23324500D01*
X27515479Y-23324500D01*
X27463153Y-23302826D01*
X26890474Y-22730147D01*
X26868800Y-22677821D01*
X26868800Y-13015479D01*
X26890474Y-12963153D01*
X28423174Y-11430453D01*
X28475500Y-11408779D01*
X28527826Y-11430453D01*
X28549500Y-11482778D01*
X28549500Y-12519748D01*
X28557255Y-12558736D01*
X28561133Y-12578232D01*
X28580215Y-12606789D01*
X28605448Y-12644552D01*
X28649560Y-12674027D01*
X28671767Y-12688866D01*
X28671768Y-12688866D01*
X28671769Y-12688867D01*
X28730252Y-12700500D01*
X28730254Y-12700500D01*
X31269746Y-12700500D01*
X31269748Y-12700500D01*
X31328231Y-12688867D01*
X31394552Y-12644552D01*
X31438867Y-12578231D01*
X31450500Y-12519748D01*
X31450500Y-11482778D01*
X31472174Y-11430452D01*
X31524500Y-11408778D01*
X31576824Y-11430451D01*
X31709938Y-11563565D01*
X31709940Y-11563566D01*
X31709941Y-11563567D01*
X31753911Y-11588953D01*
X31784161Y-11606418D01*
X31866947Y-11628600D01*
X31866949Y-11628600D01*
X34989751Y-11628600D01*
X34989753Y-11628600D01*
X35072539Y-11606418D01*
X35146762Y-11563565D01*
X40774788Y-5935537D01*
X40827113Y-5913864D01*
X40855427Y-5919496D01*
X40958165Y-5962051D01*
X41151459Y-6000500D01*
X41151461Y-6000500D01*
X41348539Y-6000500D01*
X41348541Y-6000500D01*
X41541835Y-5962051D01*
X41723914Y-5886632D01*
X41887782Y-5777139D01*
X42027139Y-5637782D01*
X42047404Y-5607452D01*
X42094494Y-5575987D01*
X42150043Y-5587035D01*
X42180410Y-5629412D01*
X42196680Y-5690134D01*
X42196684Y-5690143D01*
X42239532Y-5764358D01*
X42239533Y-5764359D01*
X42239535Y-5764362D01*
X46796941Y-10321767D01*
X51316526Y-14841352D01*
X51338200Y-14893678D01*
X51338200Y-21897299D01*
X51316526Y-21949625D01*
X51264200Y-21971299D01*
X51227200Y-21961385D01*
X51155190Y-21919810D01*
X51155181Y-21919806D01*
X51027894Y-21885700D01*
X51027892Y-21885700D01*
X50896108Y-21885700D01*
X50896106Y-21885700D01*
X50768818Y-21919806D01*
X50768809Y-21919810D01*
X50654685Y-21985700D01*
X50561500Y-22078885D01*
X50495610Y-22193009D01*
X50495606Y-22193018D01*
X50461500Y-22320305D01*
X50461500Y-22452094D01*
X50495606Y-22579381D01*
X50495610Y-22579390D01*
X50561500Y-22693514D01*
X50614826Y-22746840D01*
X50636500Y-22799166D01*
X50636500Y-23768800D01*
X50614826Y-23821126D01*
X50562500Y-23842800D01*
X50014153Y-23842800D01*
X49928447Y-23842800D01*
X49845661Y-23864982D01*
X49845660Y-23864982D01*
X49845658Y-23864983D01*
X49845656Y-23864984D01*
X49771441Y-23907832D01*
X49651826Y-24027447D01*
X49599500Y-24049121D01*
X49547174Y-24027447D01*
X49525500Y-23975121D01*
X49525500Y-17749500D01*
X49547174Y-17697174D01*
X49599500Y-17675500D01*
X49694746Y-17675500D01*
X49694748Y-17675500D01*
X49753231Y-17663867D01*
X49819552Y-17619552D01*
X49863867Y-17553231D01*
X49875500Y-17494748D01*
X49875500Y-16505252D01*
X49863867Y-16446769D01*
X49819552Y-16380448D01*
X49797343Y-16365608D01*
X49753232Y-16336133D01*
X49753233Y-16336133D01*
X49719296Y-16329383D01*
X49694748Y-16324500D01*
X48705252Y-16324500D01*
X48680704Y-16329383D01*
X48646767Y-16336133D01*
X48580449Y-16380447D01*
X48580447Y-16380449D01*
X48536133Y-16446767D01*
X48524500Y-16505253D01*
X48524500Y-17494746D01*
X48536133Y-17553232D01*
X48565608Y-17597343D01*
X48580448Y-17619552D01*
X48624560Y-17649027D01*
X48646767Y-17663866D01*
X48646768Y-17663866D01*
X48646769Y-17663867D01*
X48705252Y-17675500D01*
X48800500Y-17675500D01*
X48852826Y-17697174D01*
X48874500Y-17749500D01*
X48874500Y-23768800D01*
X48852826Y-23821126D01*
X48800500Y-23842800D01*
X47074553Y-23842800D01*
X46988847Y-23842800D01*
X46906061Y-23864982D01*
X46906060Y-23864982D01*
X46906058Y-23864983D01*
X46906056Y-23864984D01*
X46831841Y-23907832D01*
X46436847Y-24302826D01*
X46384521Y-24324500D01*
X46091679Y-24324500D01*
X46039353Y-24302826D01*
X45861974Y-24125447D01*
X45644362Y-23907835D01*
X45644359Y-23907833D01*
X45644358Y-23907832D01*
X45570143Y-23864984D01*
X45570141Y-23864983D01*
X45570140Y-23864982D01*
X45570139Y-23864982D01*
X45487353Y-23842800D01*
X45487351Y-23842800D01*
X43599500Y-23842800D01*
X43547174Y-23821126D01*
X43525500Y-23768800D01*
X43525500Y-19751947D01*
X43503318Y-19669162D01*
X43503318Y-19669161D01*
X43460467Y-19594941D01*
X43460466Y-19594940D01*
X43460465Y-19594938D01*
X43118601Y-19253074D01*
X43096928Y-19200750D01*
X43118601Y-19148425D01*
X43628765Y-18638262D01*
X43671618Y-18564039D01*
X43693800Y-18481253D01*
X43693800Y-18395547D01*
X43693800Y-17749500D01*
X43715474Y-17697174D01*
X43767800Y-17675500D01*
X44694746Y-17675500D01*
X44694748Y-17675500D01*
X44753231Y-17663867D01*
X44819552Y-17619552D01*
X44863867Y-17553231D01*
X44875500Y-17494748D01*
X44875500Y-16505252D01*
X44863867Y-16446769D01*
X44819552Y-16380448D01*
X44797343Y-16365608D01*
X44753232Y-16336133D01*
X44753233Y-16336133D01*
X44719296Y-16329383D01*
X44694748Y-16324500D01*
X43705252Y-16324500D01*
X43680704Y-16329383D01*
X43646767Y-16336133D01*
X43580449Y-16380447D01*
X43580447Y-16380449D01*
X43536133Y-16446767D01*
X43524500Y-16505253D01*
X43524500Y-16600500D01*
X43502826Y-16652826D01*
X43450500Y-16674500D01*
X43325445Y-16674500D01*
X43242666Y-16696680D01*
X43242660Y-16696683D01*
X43168437Y-16739535D01*
X43107835Y-16800137D01*
X43064983Y-16874360D01*
X43064980Y-16874366D01*
X43042800Y-16957144D01*
X43042800Y-18272921D01*
X43021126Y-18325247D01*
X42575872Y-18770500D01*
X42523546Y-18792174D01*
X42471220Y-18770500D01*
X42450968Y-18732610D01*
X42450500Y-18730257D01*
X42450500Y-18730252D01*
X42438867Y-18671769D01*
X42394552Y-18605448D01*
X42341057Y-18569703D01*
X42328232Y-18561133D01*
X42328233Y-18561133D01*
X42298989Y-18555316D01*
X42269748Y-18549500D01*
X40730252Y-18549500D01*
X40706858Y-18554153D01*
X40671766Y-18561133D01*
X40671764Y-18561134D01*
X40645167Y-18578906D01*
X40589618Y-18589955D01*
X40551730Y-18569703D01*
X39812089Y-17830062D01*
X39790415Y-17777736D01*
X39791837Y-17763300D01*
X39800500Y-17719747D01*
X39800500Y-16280253D01*
X39795176Y-16253486D01*
X39788867Y-16221769D01*
X39744552Y-16155448D01*
X39722343Y-16140608D01*
X39678232Y-16111133D01*
X39678233Y-16111133D01*
X39646765Y-16104874D01*
X39619748Y-16099500D01*
X38380252Y-16099500D01*
X38353235Y-16104874D01*
X38321767Y-16111133D01*
X38255449Y-16155447D01*
X38255447Y-16155449D01*
X38211133Y-16221767D01*
X38199500Y-16280253D01*
X38199500Y-16600500D01*
X38177826Y-16652826D01*
X38125500Y-16674500D01*
X32506200Y-16674500D01*
X32453874Y-16652826D01*
X32432200Y-16600500D01*
X32432200Y-14857145D01*
X32432199Y-14857144D01*
X32410019Y-14774366D01*
X32410018Y-14774362D01*
X32367165Y-14700138D01*
X32306562Y-14639535D01*
X32232338Y-14596682D01*
X32232335Y-14596681D01*
X32232333Y-14596680D01*
X32149555Y-14574500D01*
X32149553Y-14574500D01*
X32024500Y-14574500D01*
X31972174Y-14552826D01*
X31950500Y-14500500D01*
X31950500Y-14080253D01*
X31943023Y-14042663D01*
X31938867Y-14021769D01*
X31894552Y-13955448D01*
X31872343Y-13940608D01*
X31828232Y-13911133D01*
X31828233Y-13911133D01*
X31798989Y-13905316D01*
X31769748Y-13899500D01*
X28248800Y-13899500D01*
X28196474Y-13877826D01*
X28174800Y-13825500D01*
X28174800Y-13493466D01*
X28196474Y-13441140D01*
X28249800Y-13387814D01*
X28315692Y-13273686D01*
X28349799Y-13146394D01*
X28349800Y-13146394D01*
X28349800Y-13014606D01*
X28349799Y-13014605D01*
X28315693Y-12887318D01*
X28315692Y-12887314D01*
X28249800Y-12773186D01*
X28156614Y-12680000D01*
X28149783Y-12676056D01*
X28042490Y-12614110D01*
X28042481Y-12614106D01*
X27915194Y-12580000D01*
X27915192Y-12580000D01*
X27783408Y-12580000D01*
X27783406Y-12580000D01*
X27656118Y-12614106D01*
X27656109Y-12614110D01*
X27541985Y-12680000D01*
X27448800Y-12773185D01*
X27382910Y-12887309D01*
X27382906Y-12887318D01*
X27348800Y-13014605D01*
X27348800Y-13146394D01*
X27382906Y-13273681D01*
X27382910Y-13273690D01*
X27448800Y-13387814D01*
X27502126Y-13441140D01*
X27523800Y-13493466D01*
X27523800Y-14813147D01*
X27523800Y-14898853D01*
X27545982Y-14981639D01*
X27545983Y-14981641D01*
X27545984Y-14981643D01*
X27588833Y-15055859D01*
X27588835Y-15055862D01*
X27632833Y-15099861D01*
X27632834Y-15099861D01*
X27632835Y-15099862D01*
X27693438Y-15160465D01*
X27767662Y-15203318D01*
X27850444Y-15225499D01*
X27850445Y-15225500D01*
X27850447Y-15225500D01*
X27936153Y-15225500D01*
X27975500Y-15225500D01*
X28027826Y-15247174D01*
X28049500Y-15299500D01*
X28049500Y-15719746D01*
X28061133Y-15778232D01*
X28075765Y-15800129D01*
X28105448Y-15844552D01*
X28149560Y-15874027D01*
X28171767Y-15888866D01*
X28171768Y-15888866D01*
X28171769Y-15888867D01*
X28230252Y-15900500D01*
X28230254Y-15900500D01*
X31707200Y-15900500D01*
X31759526Y-15922174D01*
X31781200Y-15974500D01*
X31781200Y-18827821D01*
X31759526Y-18880147D01*
X30211847Y-20427826D01*
X30159521Y-20449500D01*
X29180252Y-20449500D01*
X29151010Y-20455316D01*
X29121767Y-20461133D01*
X29055449Y-20505447D01*
X29055447Y-20505449D01*
X29011133Y-20571767D01*
X28999500Y-20630253D01*
X28999500Y-21569746D01*
X29011133Y-21628232D01*
X29029993Y-21656457D01*
X29055448Y-21694552D01*
X29099560Y-21724027D01*
X29121767Y-21738866D01*
X29121768Y-21738866D01*
X29121769Y-21738867D01*
X29180252Y-21750500D01*
X29180254Y-21750500D01*
X30819746Y-21750500D01*
X30819748Y-21750500D01*
X30878231Y-21738867D01*
X30944552Y-21694552D01*
X30988867Y-21628231D01*
X31000500Y-21569748D01*
X31000500Y-20630252D01*
X30997996Y-20617663D01*
X30996532Y-20610303D01*
X31007582Y-20554754D01*
X31016779Y-20543546D01*
X32306559Y-19253766D01*
X32306562Y-19253765D01*
X32367165Y-19193162D01*
X32388591Y-19156050D01*
X32410018Y-19118939D01*
X32432200Y-19036155D01*
X32432201Y-19036155D01*
X32432201Y-18945918D01*
X32432200Y-18945900D01*
X32432200Y-17399500D01*
X32453874Y-17347174D01*
X32506200Y-17325500D01*
X37643800Y-17325500D01*
X37696126Y-17347174D01*
X37717800Y-17399500D01*
X37717800Y-38968747D01*
X37717800Y-39054453D01*
X37739982Y-39137239D01*
X37739983Y-39137241D01*
X37739984Y-39137243D01*
X37782832Y-39211458D01*
X37782833Y-39211459D01*
X37782835Y-39211462D01*
X39299272Y-40727899D01*
X40769547Y-42198174D01*
X40791221Y-42250500D01*
X40769547Y-42302826D01*
X40717221Y-42324500D01*
X40705252Y-42324500D01*
X40678904Y-42329741D01*
X40646767Y-42336133D01*
X40580449Y-42380447D01*
X40580447Y-42380449D01*
X40536133Y-42446767D01*
X40531255Y-42471292D01*
X40524500Y-42505252D01*
X40524500Y-43494748D01*
X40532046Y-43532685D01*
X40536133Y-43553232D01*
X40565608Y-43597343D01*
X40580448Y-43619552D01*
X40603883Y-43635211D01*
X40646767Y-43663866D01*
X40646768Y-43663866D01*
X40646769Y-43663867D01*
X40705252Y-43675500D01*
X40705254Y-43675500D01*
X41694746Y-43675500D01*
X41694748Y-43675500D01*
X41753231Y-43663867D01*
X41819552Y-43619552D01*
X41863867Y-43553231D01*
X41875500Y-43494748D01*
X41875500Y-42505252D01*
X41863867Y-42446769D01*
X41819552Y-42380448D01*
X41767199Y-42345466D01*
X41753232Y-42336133D01*
X41753233Y-42336133D01*
X41721096Y-42329741D01*
X41694748Y-42324500D01*
X41694746Y-42324500D01*
X41599500Y-42324500D01*
X41547174Y-42302826D01*
X41525500Y-42250500D01*
X41525500Y-42125446D01*
X41522733Y-42115119D01*
X41522733Y-42115118D01*
X41503319Y-42042665D01*
X41503318Y-42042662D01*
X41503318Y-42042661D01*
X41469257Y-41983666D01*
X41460467Y-41968441D01*
X41460466Y-41968440D01*
X41460465Y-41968438D01*
X38390474Y-38898447D01*
X38368800Y-38846121D01*
X38368800Y-38439276D01*
X38390474Y-38386950D01*
X38442800Y-38365276D01*
X38495126Y-38386950D01*
X38506886Y-38402276D01*
X38547232Y-38472158D01*
X38547233Y-38472159D01*
X38547235Y-38472162D01*
X40448934Y-40373861D01*
X42286029Y-42210956D01*
X42307703Y-42263282D01*
X42286029Y-42315608D01*
X42253381Y-42333058D01*
X42253500Y-42333345D01*
X42250596Y-42334547D01*
X42248143Y-42335859D01*
X42246770Y-42336132D01*
X42246767Y-42336133D01*
X42180449Y-42380447D01*
X42180447Y-42380449D01*
X42136133Y-42446767D01*
X42131255Y-42471292D01*
X42124500Y-42505252D01*
X42124500Y-43494748D01*
X42132046Y-43532685D01*
X42136133Y-43553232D01*
X42165608Y-43597343D01*
X42180448Y-43619552D01*
X42203883Y-43635211D01*
X42246767Y-43663866D01*
X42246768Y-43663866D01*
X42246769Y-43663867D01*
X42305252Y-43675500D01*
X42305254Y-43675500D01*
X43247100Y-43675500D01*
X43299426Y-43697174D01*
X43321100Y-43749500D01*
X43321100Y-62790621D01*
X43299426Y-62842947D01*
X43020447Y-63121926D01*
X42968121Y-63143600D01*
X42892706Y-63143600D01*
X42765418Y-63177706D01*
X42765409Y-63177710D01*
X42651285Y-63243600D01*
X42558100Y-63336785D01*
X42492210Y-63450909D01*
X42492206Y-63450918D01*
X42458100Y-63578205D01*
X42458100Y-63709994D01*
X42492206Y-63837281D01*
X42492210Y-63837290D01*
X42521322Y-63887713D01*
X42558100Y-63951414D01*
X42651286Y-64044600D01*
X42765414Y-64110492D01*
X42892705Y-64144599D01*
X42892706Y-64144600D01*
X42892708Y-64144600D01*
X43024494Y-64144600D01*
X43024494Y-64144599D01*
X43151786Y-64110492D01*
X43265914Y-64044600D01*
X43359100Y-63951414D01*
X43424992Y-63837286D01*
X43459099Y-63709994D01*
X43459100Y-63709994D01*
X43459100Y-63634578D01*
X43480773Y-63582253D01*
X43907065Y-63155962D01*
X43949918Y-63081739D01*
X43972100Y-62998953D01*
X43972100Y-62913247D01*
X43972100Y-40288347D01*
X43949918Y-40205561D01*
X43907065Y-40131338D01*
X40740474Y-36964747D01*
X40718800Y-36912421D01*
X40718800Y-35164500D01*
X40740474Y-35112174D01*
X40792800Y-35090500D01*
X42207200Y-35090500D01*
X42259526Y-35112174D01*
X42281200Y-35164500D01*
X42281200Y-37498730D01*
X42273186Y-37528640D01*
X42274366Y-37529129D01*
X42272506Y-37533618D01*
X42238400Y-37660905D01*
X42238400Y-37792694D01*
X42272506Y-37919981D01*
X42272510Y-37919990D01*
X42295140Y-37959186D01*
X42338400Y-38034114D01*
X42431586Y-38127300D01*
X42545714Y-38193192D01*
X42673005Y-38227299D01*
X42673006Y-38227300D01*
X42673008Y-38227300D01*
X42804794Y-38227300D01*
X42804794Y-38227299D01*
X42932086Y-38193192D01*
X43046214Y-38127300D01*
X43139400Y-38034114D01*
X43205292Y-37919986D01*
X43239399Y-37792694D01*
X43239400Y-37792694D01*
X43239400Y-37660906D01*
X43239399Y-37660905D01*
X43236597Y-37650449D01*
X43205292Y-37533614D01*
X43139400Y-37419486D01*
X43046214Y-37326300D01*
X43046211Y-37326298D01*
X43046210Y-37326297D01*
X42969200Y-37281835D01*
X42934721Y-37236901D01*
X42932200Y-37217749D01*
X42932200Y-33127145D01*
X42932199Y-33127144D01*
X42910019Y-33044366D01*
X42910018Y-33044362D01*
X42867165Y-32970138D01*
X42806562Y-32909535D01*
X42732338Y-32866682D01*
X42732335Y-32866681D01*
X42732333Y-32866680D01*
X42649555Y-32844500D01*
X42649553Y-32844500D01*
X42524500Y-32844500D01*
X42472174Y-32822826D01*
X42450500Y-32770500D01*
X42450500Y-32700253D01*
X42445581Y-32675524D01*
X42438867Y-32641769D01*
X42394995Y-32576112D01*
X42383946Y-32520565D01*
X42394996Y-32493887D01*
X42438866Y-32428233D01*
X42438867Y-32428231D01*
X42450500Y-32369748D01*
X42450500Y-32299500D01*
X42472174Y-32247174D01*
X42524500Y-32225500D01*
X42649551Y-32225500D01*
X42649553Y-32225500D01*
X42732339Y-32203318D01*
X42806562Y-32160465D01*
X42837938Y-32129089D01*
X42852826Y-32114201D01*
X42905151Y-32092526D01*
X42942151Y-32102439D01*
X42988314Y-32129092D01*
X43115605Y-32163199D01*
X43115606Y-32163200D01*
X43115608Y-32163200D01*
X43247394Y-32163200D01*
X43247394Y-32163199D01*
X43374686Y-32129092D01*
X43488814Y-32063200D01*
X43582000Y-31970014D01*
X43647892Y-31855886D01*
X43681999Y-31728594D01*
X43682000Y-31728594D01*
X43682000Y-31596806D01*
X43681999Y-31596805D01*
X43676022Y-31574500D01*
X43647892Y-31469514D01*
X43582000Y-31355386D01*
X43488814Y-31262200D01*
X43458247Y-31244552D01*
X43374690Y-31196310D01*
X43374681Y-31196306D01*
X43247394Y-31162200D01*
X43247392Y-31162200D01*
X43115608Y-31162200D01*
X43115606Y-31162200D01*
X42988318Y-31196306D01*
X42988309Y-31196310D01*
X42874185Y-31262200D01*
X42812487Y-31323897D01*
X42779316Y-31343048D01*
X42718363Y-31359381D01*
X42718359Y-31359382D01*
X42644141Y-31402232D01*
X42575873Y-31470500D01*
X42523546Y-31492174D01*
X42471221Y-31470500D01*
X42450969Y-31432611D01*
X42450500Y-31430252D01*
X42438867Y-31371769D01*
X42430589Y-31359381D01*
X42394996Y-31306113D01*
X42383946Y-31250565D01*
X42394996Y-31223887D01*
X42413426Y-31196306D01*
X42438867Y-31158231D01*
X42450500Y-31099748D01*
X42450500Y-31029500D01*
X42472174Y-30977174D01*
X42524500Y-30955500D01*
X42649555Y-30955500D01*
X42649555Y-30955499D01*
X42732338Y-30933318D01*
X42806562Y-30890465D01*
X42867165Y-30829862D01*
X42910018Y-30755638D01*
X42932199Y-30672855D01*
X42932200Y-30672855D01*
X42932200Y-29649379D01*
X42953874Y-29597053D01*
X43119653Y-29431274D01*
X43171979Y-29409600D01*
X43247394Y-29409600D01*
X43247394Y-29409599D01*
X43374686Y-29375492D01*
X43488814Y-29309600D01*
X43582000Y-29216414D01*
X43647892Y-29102286D01*
X43658625Y-29062228D01*
X43693103Y-29017296D01*
X43749255Y-29009903D01*
X43782429Y-29029056D01*
X44583926Y-29830553D01*
X44605600Y-29882879D01*
X44605600Y-30008834D01*
X44583926Y-30061160D01*
X44530600Y-30114485D01*
X44464710Y-30228609D01*
X44464706Y-30228618D01*
X44430600Y-30355905D01*
X44430600Y-30487694D01*
X44464706Y-30614981D01*
X44464710Y-30614990D01*
X44498119Y-30672855D01*
X44530600Y-30729114D01*
X44623786Y-30822300D01*
X44737914Y-30888192D01*
X44865205Y-30922299D01*
X44865206Y-30922300D01*
X44865208Y-30922300D01*
X44996994Y-30922300D01*
X44996994Y-30922299D01*
X45124286Y-30888192D01*
X45238414Y-30822300D01*
X45331600Y-30729114D01*
X45397492Y-30614986D01*
X45431599Y-30487694D01*
X45431600Y-30487694D01*
X45431600Y-30355906D01*
X45431599Y-30355905D01*
X45397493Y-30228618D01*
X45397492Y-30228614D01*
X45331600Y-30114486D01*
X45278274Y-30061160D01*
X45256600Y-30008834D01*
X45256600Y-29674545D01*
X45244788Y-29630466D01*
X45244787Y-29630463D01*
X45234418Y-29591761D01*
X45191565Y-29517538D01*
X43503562Y-27829535D01*
X43503559Y-27829533D01*
X43503558Y-27829532D01*
X43429343Y-27786684D01*
X43429341Y-27786683D01*
X43429340Y-27786682D01*
X43429339Y-27786682D01*
X43346553Y-27764500D01*
X43346551Y-27764500D01*
X42524500Y-27764500D01*
X42472174Y-27742826D01*
X42450500Y-27690500D01*
X42450500Y-27620253D01*
X42447552Y-27605432D01*
X42438867Y-27561769D01*
X42394995Y-27496112D01*
X42383946Y-27440565D01*
X42394996Y-27413887D01*
X42396098Y-27412239D01*
X42438867Y-27348231D01*
X42450500Y-27289748D01*
X42450500Y-27219500D01*
X42472174Y-27167174D01*
X42524500Y-27145500D01*
X42649551Y-27145500D01*
X42649553Y-27145500D01*
X42732339Y-27123318D01*
X42806562Y-27080465D01*
X43099860Y-26787166D01*
X43099862Y-26787165D01*
X43160465Y-26726562D01*
X43196712Y-26663780D01*
X43203318Y-26652339D01*
X43225500Y-26569553D01*
X43225500Y-26483847D01*
X43225500Y-26465266D01*
X43247174Y-26412940D01*
X43260640Y-26399474D01*
X43312966Y-26377800D01*
X43730351Y-26377800D01*
X43730353Y-26377800D01*
X43813139Y-26355618D01*
X43887362Y-26312765D01*
X43966934Y-26233192D01*
X44019259Y-26211519D01*
X44071585Y-26233193D01*
X44090737Y-26266366D01*
X44098806Y-26296481D01*
X44098810Y-26296490D01*
X44108208Y-26312767D01*
X44164700Y-26410614D01*
X44257886Y-26503800D01*
X44372014Y-26569692D01*
X44499305Y-26603799D01*
X44499306Y-26603800D01*
X44499308Y-26603800D01*
X44631094Y-26603800D01*
X44631094Y-26603799D01*
X44758386Y-26569692D01*
X44872514Y-26503800D01*
X44925840Y-26450474D01*
X44978166Y-26428800D01*
X46739551Y-26428800D01*
X46739553Y-26428800D01*
X46822339Y-26406618D01*
X46896562Y-26363765D01*
X47563152Y-25697173D01*
X47615478Y-25675500D01*
X48294746Y-25675500D01*
X48294748Y-25675500D01*
X48353231Y-25663867D01*
X48419552Y-25619552D01*
X48438472Y-25591235D01*
X48485564Y-25559771D01*
X48541113Y-25570821D01*
X48561526Y-25591234D01*
X48580448Y-25619552D01*
X48612011Y-25640642D01*
X48646767Y-25663866D01*
X48646768Y-25663866D01*
X48646769Y-25663867D01*
X48705252Y-25675500D01*
X48705254Y-25675500D01*
X49694746Y-25675500D01*
X49694748Y-25675500D01*
X49753231Y-25663867D01*
X49819552Y-25619552D01*
X49863867Y-25553231D01*
X49875500Y-25494748D01*
X49875500Y-24755079D01*
X49897174Y-24702753D01*
X49998174Y-24601753D01*
X50050500Y-24580079D01*
X50102826Y-24601753D01*
X50124500Y-24654079D01*
X50124500Y-25494746D01*
X50136133Y-25553232D01*
X50165608Y-25597343D01*
X50180448Y-25619552D01*
X50212011Y-25640642D01*
X50246767Y-25663866D01*
X50246768Y-25663866D01*
X50246769Y-25663867D01*
X50305252Y-25675500D01*
X50305254Y-25675500D01*
X51294746Y-25675500D01*
X51294748Y-25675500D01*
X51353231Y-25663867D01*
X51419552Y-25619552D01*
X51463867Y-25553231D01*
X51475500Y-25494748D01*
X51475500Y-25482779D01*
X51497174Y-25430453D01*
X51549500Y-25408779D01*
X51601826Y-25430453D01*
X52775138Y-26603765D01*
X52809887Y-26623827D01*
X52833269Y-26647208D01*
X52833847Y-26646765D01*
X52836798Y-26650611D01*
X52836800Y-26650614D01*
X52929986Y-26743800D01*
X53044114Y-26809692D01*
X53171405Y-26843799D01*
X53171406Y-26843800D01*
X53171408Y-26843800D01*
X53303194Y-26843800D01*
X53303194Y-26843799D01*
X53430486Y-26809692D01*
X53544614Y-26743800D01*
X53563274Y-26725140D01*
X53615600Y-26703466D01*
X53667926Y-26725140D01*
X53689600Y-26777466D01*
X53689600Y-33692218D01*
X53667926Y-33744544D01*
X53615600Y-33766218D01*
X53578601Y-33756304D01*
X53551594Y-33740711D01*
X53551581Y-33740706D01*
X53424294Y-33706600D01*
X53424292Y-33706600D01*
X53292508Y-33706600D01*
X53292506Y-33706600D01*
X53165218Y-33740706D01*
X53165209Y-33740710D01*
X53051085Y-33806600D01*
X52957900Y-33899785D01*
X52892010Y-34013909D01*
X52892006Y-34013918D01*
X52857900Y-34141205D01*
X52857900Y-34272994D01*
X52892006Y-34400281D01*
X52892010Y-34400290D01*
X52957900Y-34514414D01*
X53011226Y-34567740D01*
X53032900Y-34620066D01*
X53032900Y-41333947D01*
X53032900Y-41419653D01*
X53055082Y-41502439D01*
X53055083Y-41502441D01*
X53055084Y-41502443D01*
X53097932Y-41576658D01*
X53097933Y-41576659D01*
X53097935Y-41576662D01*
X54679926Y-43158653D01*
X54701600Y-43210978D01*
X54701600Y-65544247D01*
X54701600Y-65629953D01*
X54723782Y-65712739D01*
X54723783Y-65712741D01*
X54723784Y-65712743D01*
X54766632Y-65786958D01*
X54766633Y-65786959D01*
X54766635Y-65786962D01*
X56748434Y-67768761D01*
X56748435Y-67768762D01*
X56809038Y-67829365D01*
X56883262Y-67872218D01*
X56966044Y-67894399D01*
X56966045Y-67894400D01*
X56966047Y-67894400D01*
X57659051Y-67894400D01*
X57659053Y-67894400D01*
X57741839Y-67872218D01*
X57816062Y-67829365D01*
X59323252Y-66322173D01*
X59375578Y-66300500D01*
X59562354Y-66300500D01*
X59670675Y-66283343D01*
X59764534Y-66268477D01*
X59764541Y-66268474D01*
X59764544Y-66268474D01*
X59959213Y-66205222D01*
X59959213Y-66205221D01*
X59959219Y-66205220D01*
X60141610Y-66112287D01*
X60307219Y-65991966D01*
X60451966Y-65847219D01*
X60572287Y-65681610D01*
X60664066Y-65501482D01*
X60707132Y-65464701D01*
X60763595Y-65469144D01*
X60795933Y-65501482D01*
X60815705Y-65540286D01*
X60887712Y-65681610D01*
X60961406Y-65783040D01*
X61008034Y-65847219D01*
X61152781Y-65991966D01*
X61244695Y-66058745D01*
X61318389Y-66112287D01*
X61385935Y-66146703D01*
X61500781Y-66205220D01*
X61500783Y-66205220D01*
X61500786Y-66205222D01*
X61623367Y-66245050D01*
X61666434Y-66281832D01*
X61674500Y-66315428D01*
X61674500Y-68625500D01*
X61652826Y-68677826D01*
X61600500Y-68699500D01*
X61080252Y-68699500D01*
X61051010Y-68705316D01*
X61021767Y-68711133D01*
X60955449Y-68755447D01*
X60955447Y-68755449D01*
X60911133Y-68821767D01*
X60899500Y-68880253D01*
X60899500Y-71119746D01*
X60911133Y-71178232D01*
X60940608Y-71222343D01*
X60955448Y-71244552D01*
X60999560Y-71274027D01*
X61021767Y-71288866D01*
X61021768Y-71288866D01*
X61021769Y-71288867D01*
X61080252Y-71300500D01*
X61600500Y-71300500D01*
X61652826Y-71322174D01*
X61674500Y-71374500D01*
X61674500Y-72417147D01*
X61674500Y-72502853D01*
X61696682Y-72585639D01*
X61696683Y-72585641D01*
X61696684Y-72585643D01*
X61739532Y-72659858D01*
X61739533Y-72659859D01*
X61739535Y-72659862D01*
X62506520Y-73426847D01*
X63230988Y-74151315D01*
X63252662Y-74203641D01*
X63244597Y-74237236D01*
X63149429Y-74424013D01*
X63076449Y-74648621D01*
X63076446Y-74648634D01*
X63039500Y-74881907D01*
X63039500Y-75118092D01*
X63076446Y-75351365D01*
X63076449Y-75351378D01*
X63149429Y-75575986D01*
X63149431Y-75575991D01*
X63149432Y-75575992D01*
X63256657Y-75786433D01*
X63395483Y-75977510D01*
X63562490Y-76144517D01*
X63753567Y-76283343D01*
X63964008Y-76390568D01*
X63964010Y-76390568D01*
X63964013Y-76390570D01*
X64188621Y-76463550D01*
X64188627Y-76463551D01*
X64188632Y-76463553D01*
X64344149Y-76488184D01*
X64421907Y-76500500D01*
X64421908Y-76500500D01*
X64658093Y-76500500D01*
X64716411Y-76491263D01*
X64891368Y-76463553D01*
X64891375Y-76463550D01*
X64891378Y-76463550D01*
X65115986Y-76390570D01*
X65115986Y-76390569D01*
X65115992Y-76390568D01*
X65326433Y-76283343D01*
X65517510Y-76144517D01*
X65684517Y-75977510D01*
X65823343Y-75786433D01*
X65930568Y-75575992D01*
X66003553Y-75351368D01*
X66040500Y-75118092D01*
X66040500Y-74881908D01*
X66003553Y-74648632D01*
X66003551Y-74648627D01*
X66003550Y-74648621D01*
X65930570Y-74424013D01*
X65930568Y-74424010D01*
X65930568Y-74424008D01*
X65823343Y-74213567D01*
X65684517Y-74022490D01*
X65517510Y-73855483D01*
X65517507Y-73855480D01*
X65517505Y-73855479D01*
X65326432Y-73716656D01*
X65115986Y-73609429D01*
X64891378Y-73536449D01*
X64891365Y-73536446D01*
X64658093Y-73499500D01*
X64658092Y-73499500D01*
X64421908Y-73499500D01*
X64421907Y-73499500D01*
X64188634Y-73536446D01*
X64188621Y-73536449D01*
X63964013Y-73609429D01*
X63777236Y-73704597D01*
X63720774Y-73709040D01*
X63691315Y-73690988D01*
X62347174Y-72346847D01*
X62325500Y-72294521D01*
X62325500Y-71374500D01*
X62347174Y-71322174D01*
X62399500Y-71300500D01*
X62919746Y-71300500D01*
X62919748Y-71300500D01*
X62978231Y-71288867D01*
X63044552Y-71244552D01*
X63088867Y-71178231D01*
X63100500Y-71119748D01*
X63100500Y-68880252D01*
X63088867Y-68821769D01*
X63044552Y-68755448D01*
X62986090Y-68716384D01*
X74509500Y-68716384D01*
X74509500Y-68903616D01*
X74518507Y-68948902D01*
X74546025Y-69087244D01*
X74546027Y-69087251D01*
X74573452Y-69153462D01*
X74617678Y-69260231D01*
X74721698Y-69415908D01*
X74854092Y-69548302D01*
X75009769Y-69652322D01*
X75182749Y-69723973D01*
X75366384Y-69760500D01*
X75366385Y-69760500D01*
X75553615Y-69760500D01*
X75553616Y-69760500D01*
X75737251Y-69723973D01*
X75910231Y-69652322D01*
X76065908Y-69548302D01*
X76198302Y-69415908D01*
X76302322Y-69260231D01*
X76373973Y-69087251D01*
X76410500Y-68903616D01*
X76410500Y-68716384D01*
X79589500Y-68716384D01*
X79589500Y-68903616D01*
X79598507Y-68948902D01*
X79626025Y-69087244D01*
X79626027Y-69087251D01*
X79653452Y-69153462D01*
X79697678Y-69260231D01*
X79801698Y-69415908D01*
X79934092Y-69548302D01*
X80089769Y-69652322D01*
X80262749Y-69723973D01*
X80446384Y-69760500D01*
X80446385Y-69760500D01*
X80633615Y-69760500D01*
X80633616Y-69760500D01*
X80817251Y-69723973D01*
X80990231Y-69652322D01*
X81145908Y-69548302D01*
X81278302Y-69415908D01*
X81382322Y-69260231D01*
X81453973Y-69087251D01*
X81490500Y-68903616D01*
X81490500Y-68716384D01*
X81453973Y-68532749D01*
X81382322Y-68359769D01*
X81278302Y-68204092D01*
X81145908Y-68071698D01*
X80990231Y-67967678D01*
X80990228Y-67967676D01*
X80990227Y-67967676D01*
X80817251Y-67896027D01*
X80817244Y-67896025D01*
X80678902Y-67868507D01*
X80633616Y-67859500D01*
X80446384Y-67859500D01*
X80410056Y-67866725D01*
X80262755Y-67896025D01*
X80262748Y-67896027D01*
X80089772Y-67967676D01*
X79934092Y-68071697D01*
X79934091Y-68071699D01*
X79801699Y-68204091D01*
X79801697Y-68204092D01*
X79697676Y-68359772D01*
X79626027Y-68532748D01*
X79626025Y-68532755D01*
X79592858Y-68699500D01*
X79589500Y-68716384D01*
X76410500Y-68716384D01*
X76373973Y-68532749D01*
X76302322Y-68359769D01*
X76198302Y-68204092D01*
X76065908Y-68071698D01*
X75910231Y-67967678D01*
X75910228Y-67967676D01*
X75910227Y-67967676D01*
X75737251Y-67896027D01*
X75737244Y-67896025D01*
X75598902Y-67868507D01*
X75553616Y-67859500D01*
X75366384Y-67859500D01*
X75330056Y-67866725D01*
X75182755Y-67896025D01*
X75182748Y-67896027D01*
X75009772Y-67967676D01*
X74854092Y-68071697D01*
X74854091Y-68071699D01*
X74721699Y-68204091D01*
X74721697Y-68204092D01*
X74617676Y-68359772D01*
X74546027Y-68532748D01*
X74546025Y-68532755D01*
X74512858Y-68699500D01*
X74509500Y-68716384D01*
X62986090Y-68716384D01*
X62978232Y-68711133D01*
X62978233Y-68711133D01*
X62948989Y-68705316D01*
X62919748Y-68699500D01*
X62919746Y-68699500D01*
X62399500Y-68699500D01*
X62347174Y-68677826D01*
X62325500Y-68625500D01*
X62325500Y-66315428D01*
X62347174Y-66263102D01*
X62376633Y-66245050D01*
X62499213Y-66205222D01*
X62499213Y-66205221D01*
X62499219Y-66205220D01*
X62681610Y-66112287D01*
X62847219Y-65991966D01*
X62991966Y-65847219D01*
X63112287Y-65681610D01*
X63205220Y-65499219D01*
X63221137Y-65450231D01*
X63268474Y-65304544D01*
X63268474Y-65304541D01*
X63268477Y-65304534D01*
X63300500Y-65102352D01*
X63300500Y-64897648D01*
X63268477Y-64695466D01*
X63268475Y-64695461D01*
X63268474Y-64695455D01*
X63205222Y-64500786D01*
X63205220Y-64500783D01*
X63205220Y-64500781D01*
X63143907Y-64380447D01*
X63112287Y-64318389D01*
X63036129Y-64213567D01*
X62991966Y-64152781D01*
X62847219Y-64008034D01*
X62740571Y-63930550D01*
X62681610Y-63887712D01*
X62499213Y-63794777D01*
X62304544Y-63731525D01*
X62304531Y-63731522D01*
X62102354Y-63699500D01*
X62102352Y-63699500D01*
X61897648Y-63699500D01*
X61897646Y-63699500D01*
X61695468Y-63731522D01*
X61695455Y-63731525D01*
X61500786Y-63794777D01*
X61318389Y-63887712D01*
X61152785Y-64008031D01*
X61152781Y-64008034D01*
X61008034Y-64152781D01*
X61008031Y-64152784D01*
X61008031Y-64152785D01*
X60887712Y-64318389D01*
X60795935Y-64498515D01*
X60752867Y-64535298D01*
X60696405Y-64530855D01*
X60664065Y-64498515D01*
X60572287Y-64318389D01*
X60496129Y-64213567D01*
X60451966Y-64152781D01*
X60307219Y-64008034D01*
X60200571Y-63930550D01*
X60141610Y-63887712D01*
X59959213Y-63794777D01*
X59764544Y-63731525D01*
X59764531Y-63731522D01*
X59562354Y-63699500D01*
X59562352Y-63699500D01*
X59357648Y-63699500D01*
X59357646Y-63699500D01*
X59155468Y-63731522D01*
X59155455Y-63731525D01*
X58960786Y-63794777D01*
X58832023Y-63860385D01*
X58775560Y-63864828D01*
X58732493Y-63828045D01*
X58728050Y-63771582D01*
X58746100Y-63742126D01*
X63178665Y-59309562D01*
X63221518Y-59235339D01*
X63243700Y-59152553D01*
X63243700Y-59066847D01*
X63243700Y-42950481D01*
X63265374Y-42898155D01*
X63317700Y-42876481D01*
X63354701Y-42886396D01*
X63380792Y-42901460D01*
X63381714Y-42901992D01*
X63509005Y-42936099D01*
X63509006Y-42936100D01*
X63509008Y-42936100D01*
X63640794Y-42936100D01*
X63640794Y-42936099D01*
X63768086Y-42901992D01*
X63882214Y-42836100D01*
X63975400Y-42742914D01*
X64041292Y-42628786D01*
X64075399Y-42501494D01*
X64075400Y-42501494D01*
X64075400Y-42369706D01*
X64075399Y-42369705D01*
X64065656Y-42333345D01*
X64041292Y-42242414D01*
X63975400Y-42128286D01*
X63922074Y-42074960D01*
X63900400Y-42022634D01*
X63900400Y-40616366D01*
X63922074Y-40564040D01*
X63974400Y-40542366D01*
X64026726Y-40564040D01*
X64090586Y-40627900D01*
X64204714Y-40693792D01*
X64332005Y-40727899D01*
X64332006Y-40727900D01*
X64332008Y-40727900D01*
X64407421Y-40727900D01*
X64459747Y-40749574D01*
X68852826Y-45142653D01*
X68874500Y-45194979D01*
X68874500Y-64250500D01*
X68852826Y-64302826D01*
X68800500Y-64324500D01*
X68705252Y-64324500D01*
X68676010Y-64330316D01*
X68646767Y-64336133D01*
X68580449Y-64380447D01*
X68580447Y-64380449D01*
X68536133Y-64446767D01*
X68536133Y-64446769D01*
X68524500Y-64505252D01*
X68524500Y-65494748D01*
X68525390Y-65499220D01*
X68536133Y-65553232D01*
X68565608Y-65597343D01*
X68580448Y-65619552D01*
X68624560Y-65649027D01*
X68646767Y-65663866D01*
X68646768Y-65663866D01*
X68646769Y-65663867D01*
X68705252Y-65675500D01*
X68705254Y-65675500D01*
X69694746Y-65675500D01*
X69694748Y-65675500D01*
X69753231Y-65663867D01*
X69819552Y-65619552D01*
X69863867Y-65553231D01*
X69875500Y-65494748D01*
X69875500Y-64505252D01*
X70124500Y-64505252D01*
X70124500Y-65494748D01*
X70125390Y-65499220D01*
X70136133Y-65553232D01*
X70165608Y-65597343D01*
X70180448Y-65619552D01*
X70224560Y-65649027D01*
X70246767Y-65663866D01*
X70246768Y-65663866D01*
X70246769Y-65663867D01*
X70305252Y-65675500D01*
X70305254Y-65675500D01*
X71294746Y-65675500D01*
X71294748Y-65675500D01*
X71353231Y-65663867D01*
X71419552Y-65619552D01*
X71463867Y-65553231D01*
X71475500Y-65494748D01*
X71475500Y-64505252D01*
X71463867Y-64446769D01*
X71419552Y-64380448D01*
X71397343Y-64365608D01*
X71353232Y-64336133D01*
X71353233Y-64336133D01*
X71323989Y-64330316D01*
X71294748Y-64324500D01*
X71294746Y-64324500D01*
X71199500Y-64324500D01*
X71147174Y-64302826D01*
X71125500Y-64250500D01*
X71125500Y-58865478D01*
X71147173Y-58813153D01*
X73874363Y-56085962D01*
X73926688Y-56064289D01*
X73960283Y-56072354D01*
X74039166Y-56112546D01*
X74039170Y-56112548D01*
X74218871Y-56170937D01*
X74218877Y-56170938D01*
X74218882Y-56170940D01*
X74343306Y-56190646D01*
X74405518Y-56200500D01*
X74405519Y-56200500D01*
X74594482Y-56200500D01*
X74641140Y-56193110D01*
X74781118Y-56170940D01*
X74781125Y-56170937D01*
X74781128Y-56170937D01*
X74960824Y-56112550D01*
X74960826Y-56112548D01*
X74960832Y-56112547D01*
X75129199Y-56026760D01*
X75282073Y-55915690D01*
X75415690Y-55782073D01*
X75436633Y-55753246D01*
X75484924Y-55723654D01*
X75539996Y-55736876D01*
X75569589Y-55785167D01*
X75570500Y-55796743D01*
X75570500Y-57170321D01*
X75548826Y-57222647D01*
X74087232Y-58684241D01*
X74044384Y-58758456D01*
X74044380Y-58758465D01*
X74031541Y-58806380D01*
X74031542Y-58806381D01*
X74031542Y-58806382D01*
X74022200Y-58841247D01*
X74022200Y-63844847D01*
X74022200Y-63930553D01*
X74042960Y-64008031D01*
X74044383Y-64013341D01*
X74044384Y-64013343D01*
X74087232Y-64087558D01*
X74087233Y-64087559D01*
X74087235Y-64087562D01*
X74371697Y-64372023D01*
X74562729Y-64563055D01*
X74584403Y-64615381D01*
X74578770Y-64643699D01*
X74546028Y-64722744D01*
X74546025Y-64722755D01*
X74509500Y-64906384D01*
X74509500Y-65093615D01*
X74546025Y-65277244D01*
X74546027Y-65277251D01*
X74576731Y-65351378D01*
X74617678Y-65450231D01*
X74721698Y-65605908D01*
X74854092Y-65738302D01*
X75009769Y-65842322D01*
X75182749Y-65913973D01*
X75366384Y-65950500D01*
X75366385Y-65950500D01*
X75553615Y-65950500D01*
X75553616Y-65950500D01*
X75737251Y-65913973D01*
X75910231Y-65842322D01*
X76065908Y-65738302D01*
X76198302Y-65605908D01*
X76302322Y-65450231D01*
X76373973Y-65277251D01*
X76410500Y-65093616D01*
X76410500Y-64906384D01*
X79589500Y-64906384D01*
X79589500Y-65093615D01*
X79626025Y-65277244D01*
X79626027Y-65277251D01*
X79656731Y-65351378D01*
X79697678Y-65450231D01*
X79801698Y-65605908D01*
X79934092Y-65738302D01*
X80089769Y-65842322D01*
X80262749Y-65913973D01*
X80446384Y-65950500D01*
X80446385Y-65950500D01*
X80633615Y-65950500D01*
X80633616Y-65950500D01*
X80817251Y-65913973D01*
X80990231Y-65842322D01*
X81145908Y-65738302D01*
X81278302Y-65605908D01*
X81382322Y-65450231D01*
X81453973Y-65277251D01*
X81490500Y-65093616D01*
X81490500Y-64906384D01*
X81453973Y-64722749D01*
X81382322Y-64549769D01*
X81278302Y-64394092D01*
X81145908Y-64261698D01*
X80990231Y-64157678D01*
X80990228Y-64157676D01*
X80990227Y-64157676D01*
X80817251Y-64086027D01*
X80817244Y-64086025D01*
X80678902Y-64058507D01*
X80633616Y-64049500D01*
X80446384Y-64049500D01*
X80410056Y-64056725D01*
X80262755Y-64086025D01*
X80262748Y-64086027D01*
X80089772Y-64157676D01*
X79934092Y-64261697D01*
X79934091Y-64261699D01*
X79801699Y-64394091D01*
X79801697Y-64394092D01*
X79697676Y-64549772D01*
X79626027Y-64722748D01*
X79626025Y-64722755D01*
X79589500Y-64906384D01*
X76410500Y-64906384D01*
X76373973Y-64722749D01*
X76302322Y-64549769D01*
X76198302Y-64394092D01*
X76065908Y-64261698D01*
X75910231Y-64157678D01*
X75910228Y-64157676D01*
X75910227Y-64157676D01*
X75737251Y-64086027D01*
X75737244Y-64086025D01*
X75598902Y-64058507D01*
X75553616Y-64049500D01*
X75366384Y-64049500D01*
X75330056Y-64056725D01*
X75182755Y-64086025D01*
X75182744Y-64086028D01*
X75103699Y-64118770D01*
X75047062Y-64118770D01*
X75023055Y-64102729D01*
X74694874Y-63774547D01*
X74673200Y-63722221D01*
X74673200Y-61926062D01*
X74694874Y-61873736D01*
X74747200Y-61852062D01*
X74799526Y-61873736D01*
X74854092Y-61928302D01*
X75009769Y-62032322D01*
X75182749Y-62103973D01*
X75366384Y-62140500D01*
X75366385Y-62140500D01*
X75553615Y-62140500D01*
X75553616Y-62140500D01*
X75737251Y-62103973D01*
X75910231Y-62032322D01*
X76065908Y-61928302D01*
X76198302Y-61795908D01*
X76302322Y-61640231D01*
X76373973Y-61467251D01*
X76410500Y-61283616D01*
X76410500Y-61096384D01*
X79589500Y-61096384D01*
X79589500Y-61283615D01*
X79626025Y-61467244D01*
X79626027Y-61467251D01*
X79697678Y-61640231D01*
X79801698Y-61795908D01*
X79934092Y-61928302D01*
X80089769Y-62032322D01*
X80262749Y-62103973D01*
X80446384Y-62140500D01*
X80446385Y-62140500D01*
X80633615Y-62140500D01*
X80633616Y-62140500D01*
X80817251Y-62103973D01*
X80990231Y-62032322D01*
X81145908Y-61928302D01*
X81278302Y-61795908D01*
X81382322Y-61640231D01*
X81453973Y-61467251D01*
X81490500Y-61283616D01*
X81490500Y-61096384D01*
X81453973Y-60912749D01*
X81382322Y-60739769D01*
X81278302Y-60584092D01*
X81145908Y-60451698D01*
X80990231Y-60347678D01*
X80990228Y-60347676D01*
X80990227Y-60347676D01*
X80817251Y-60276027D01*
X80817244Y-60276025D01*
X80678902Y-60248507D01*
X80633616Y-60239500D01*
X80446384Y-60239500D01*
X80410056Y-60246725D01*
X80262755Y-60276025D01*
X80262748Y-60276027D01*
X80089772Y-60347676D01*
X79934092Y-60451697D01*
X79934091Y-60451699D01*
X79801699Y-60584091D01*
X79801697Y-60584092D01*
X79697676Y-60739772D01*
X79626027Y-60912748D01*
X79626025Y-60912755D01*
X79589500Y-61096384D01*
X76410500Y-61096384D01*
X76373973Y-60912749D01*
X76341229Y-60833699D01*
X76341229Y-60777063D01*
X76357267Y-60753058D01*
X81695465Y-55414862D01*
X81738318Y-55340639D01*
X81760500Y-55257853D01*
X81760500Y-55172147D01*
X81760500Y-54905518D01*
X88299500Y-54905518D01*
X88299500Y-55094481D01*
X88329059Y-55281115D01*
X88329062Y-55281128D01*
X88387449Y-55460824D01*
X88473239Y-55629198D01*
X88563366Y-55753247D01*
X88584310Y-55782073D01*
X88717927Y-55915690D01*
X88870801Y-56026760D01*
X89039168Y-56112547D01*
X89039171Y-56112547D01*
X89039175Y-56112550D01*
X89218871Y-56170937D01*
X89218877Y-56170938D01*
X89218882Y-56170940D01*
X89343306Y-56190646D01*
X89405518Y-56200500D01*
X89405519Y-56200500D01*
X89594482Y-56200500D01*
X89641140Y-56193110D01*
X89781118Y-56170940D01*
X89781125Y-56170937D01*
X89781128Y-56170937D01*
X89960826Y-56112549D01*
X89960827Y-56112549D01*
X89960829Y-56112547D01*
X89960832Y-56112547D01*
X90026905Y-56078880D01*
X90083367Y-56074437D01*
X90126434Y-56111219D01*
X90134500Y-56144815D01*
X90134500Y-63474278D01*
X90112826Y-63526604D01*
X90083367Y-63544656D01*
X89884013Y-63609429D01*
X89673567Y-63716656D01*
X89482494Y-63855479D01*
X89315479Y-64022494D01*
X89176656Y-64213567D01*
X89069429Y-64424013D01*
X88996449Y-64648621D01*
X88996446Y-64648634D01*
X88959500Y-64881907D01*
X88959500Y-65118092D01*
X88996446Y-65351365D01*
X88996449Y-65351378D01*
X89069429Y-65575986D01*
X89176656Y-65786432D01*
X89302485Y-65959621D01*
X89315483Y-65977510D01*
X89482490Y-66144517D01*
X89482493Y-66144519D01*
X89482494Y-66144520D01*
X89645708Y-66263102D01*
X89673567Y-66283343D01*
X89884008Y-66390568D01*
X89884010Y-66390568D01*
X89884013Y-66390570D01*
X90108621Y-66463550D01*
X90108627Y-66463551D01*
X90108632Y-66463553D01*
X90239208Y-66484234D01*
X90341907Y-66500500D01*
X90341908Y-66500500D01*
X90578093Y-66500500D01*
X90680792Y-66484234D01*
X90811368Y-66463553D01*
X90811375Y-66463550D01*
X90811378Y-66463550D01*
X91035986Y-66390570D01*
X91035986Y-66390569D01*
X91035992Y-66390568D01*
X91246433Y-66283343D01*
X91437510Y-66144517D01*
X91604517Y-65977510D01*
X91743343Y-65786433D01*
X91850568Y-65575992D01*
X91875513Y-65499219D01*
X91923550Y-65351378D01*
X91923550Y-65351375D01*
X91923553Y-65351368D01*
X91960500Y-65118092D01*
X91960500Y-64881908D01*
X91923553Y-64648632D01*
X91923551Y-64648627D01*
X91923550Y-64648621D01*
X91850570Y-64424013D01*
X91850568Y-64424010D01*
X91850568Y-64424008D01*
X91743343Y-64213567D01*
X91650680Y-64086028D01*
X91604520Y-64022494D01*
X91604519Y-64022493D01*
X91604517Y-64022490D01*
X91437510Y-63855483D01*
X91437507Y-63855480D01*
X91437505Y-63855479D01*
X91246432Y-63716656D01*
X91035986Y-63609429D01*
X90836633Y-63544656D01*
X90793566Y-63507873D01*
X90785500Y-63474278D01*
X90785500Y-55917147D01*
X90763318Y-55834362D01*
X90763318Y-55834361D01*
X90720467Y-55760141D01*
X90720466Y-55760140D01*
X90720465Y-55760138D01*
X90585961Y-55625634D01*
X90564288Y-55573310D01*
X90572353Y-55539716D01*
X90612547Y-55460832D01*
X90651600Y-55340641D01*
X90670937Y-55281128D01*
X90670937Y-55281125D01*
X90670940Y-55281118D01*
X90700500Y-55094481D01*
X90700500Y-54905519D01*
X90670940Y-54718882D01*
X90670938Y-54718877D01*
X90670937Y-54718871D01*
X90612550Y-54539175D01*
X90612547Y-54539171D01*
X90612547Y-54539168D01*
X90526760Y-54370801D01*
X90415690Y-54217927D01*
X90282073Y-54084310D01*
X90282070Y-54084307D01*
X90282068Y-54084306D01*
X90129198Y-53973239D01*
X89960824Y-53887449D01*
X89781128Y-53829062D01*
X89781115Y-53829059D01*
X89594482Y-53799500D01*
X89594481Y-53799500D01*
X89405519Y-53799500D01*
X89405518Y-53799500D01*
X89218884Y-53829059D01*
X89218871Y-53829062D01*
X89039175Y-53887449D01*
X88870801Y-53973239D01*
X88717931Y-54084306D01*
X88584306Y-54217931D01*
X88473239Y-54370801D01*
X88387449Y-54539175D01*
X88329062Y-54718871D01*
X88329059Y-54718884D01*
X88299500Y-54905518D01*
X81760500Y-54905518D01*
X81760500Y-45567800D01*
X81782174Y-45515474D01*
X81834500Y-45493800D01*
X83450500Y-45493800D01*
X83502826Y-45515474D01*
X83524500Y-45567800D01*
X83524500Y-46494746D01*
X83536133Y-46553232D01*
X83565608Y-46597343D01*
X83580448Y-46619552D01*
X83595507Y-46629614D01*
X83646767Y-46663866D01*
X83646768Y-46663866D01*
X83646769Y-46663867D01*
X83705252Y-46675500D01*
X83705254Y-46675500D01*
X84694746Y-46675500D01*
X84694748Y-46675500D01*
X84753231Y-46663867D01*
X84819552Y-46619552D01*
X84863867Y-46553231D01*
X84875500Y-46494748D01*
X84875500Y-45505252D01*
X84863867Y-45446769D01*
X84819552Y-45380448D01*
X84797343Y-45365608D01*
X84753232Y-45336133D01*
X84753233Y-45336133D01*
X84723989Y-45330316D01*
X84694748Y-45324500D01*
X84694746Y-45324500D01*
X84599500Y-45324500D01*
X84547174Y-45302826D01*
X84525500Y-45250500D01*
X84525500Y-45125446D01*
X84516821Y-45093054D01*
X84514300Y-45073903D01*
X84514300Y-42235681D01*
X84535974Y-42183355D01*
X84588300Y-42161681D01*
X84625301Y-42171596D01*
X84652314Y-42187192D01*
X84779605Y-42221299D01*
X84779606Y-42221300D01*
X84779608Y-42221300D01*
X84911389Y-42221300D01*
X84911392Y-42221300D01*
X84912791Y-42220924D01*
X84914243Y-42220924D01*
X84916203Y-42220667D01*
X84916236Y-42220924D01*
X84951104Y-42220923D01*
X84952511Y-42221300D01*
X84986847Y-42230500D01*
X85072553Y-42230500D01*
X86689914Y-42230500D01*
X86742240Y-42252174D01*
X86755810Y-42277549D01*
X86758345Y-42276500D01*
X86761133Y-42283232D01*
X86788797Y-42324633D01*
X86805448Y-42349552D01*
X86835609Y-42369705D01*
X86871767Y-42393866D01*
X86871768Y-42393866D01*
X86871769Y-42393867D01*
X86930252Y-42405500D01*
X86930254Y-42405500D01*
X88469746Y-42405500D01*
X88469748Y-42405500D01*
X88528231Y-42393867D01*
X88594552Y-42349552D01*
X88638867Y-42283231D01*
X88650500Y-42224748D01*
X88650500Y-41585252D01*
X88638867Y-41526769D01*
X88594552Y-41460448D01*
X88572343Y-41445608D01*
X88528232Y-41416133D01*
X88528233Y-41416133D01*
X88498989Y-41410316D01*
X88469748Y-41404500D01*
X86930252Y-41404500D01*
X86901010Y-41410316D01*
X86871767Y-41416133D01*
X86805449Y-41460447D01*
X86805447Y-41460449D01*
X86761133Y-41526767D01*
X86758345Y-41533500D01*
X86754500Y-41531907D01*
X86730999Y-41567047D01*
X86689914Y-41579500D01*
X85382577Y-41579500D01*
X85330251Y-41557826D01*
X85315075Y-41531542D01*
X85313747Y-41532093D01*
X85311891Y-41527612D01*
X85288732Y-41487500D01*
X85246000Y-41413486D01*
X85152814Y-41320300D01*
X85038690Y-41254410D01*
X85038681Y-41254406D01*
X84911394Y-41220300D01*
X84911392Y-41220300D01*
X84779608Y-41220300D01*
X84779606Y-41220300D01*
X84652318Y-41254406D01*
X84652305Y-41254411D01*
X84625299Y-41270004D01*
X84569147Y-41277396D01*
X84524214Y-41242917D01*
X84514300Y-41205918D01*
X84514300Y-40664978D01*
X84535974Y-40612652D01*
X84639621Y-40509005D01*
X85657500Y-40509005D01*
X85657500Y-40640794D01*
X85691606Y-40768081D01*
X85691610Y-40768090D01*
X85757500Y-40882214D01*
X85850686Y-40975400D01*
X85964814Y-41041292D01*
X86092105Y-41075399D01*
X86092106Y-41075400D01*
X86092108Y-41075400D01*
X86223894Y-41075400D01*
X86223894Y-41075399D01*
X86351186Y-41041292D01*
X86465314Y-40975400D01*
X86465315Y-40975399D01*
X86469160Y-40972449D01*
X86470112Y-40973690D01*
X86517159Y-40954194D01*
X86536324Y-40956716D01*
X86543173Y-40958551D01*
X86550447Y-40960500D01*
X86636153Y-40960500D01*
X86689914Y-40960500D01*
X86742240Y-40982174D01*
X86755810Y-41007549D01*
X86758345Y-41006500D01*
X86761133Y-41013232D01*
X86790608Y-41057343D01*
X86805448Y-41079552D01*
X86849560Y-41109027D01*
X86871767Y-41123866D01*
X86871768Y-41123866D01*
X86871769Y-41123867D01*
X86930252Y-41135500D01*
X86930254Y-41135500D01*
X88469746Y-41135500D01*
X88469748Y-41135500D01*
X88528231Y-41123867D01*
X88594552Y-41079552D01*
X88638867Y-41013231D01*
X88650500Y-40954748D01*
X88650500Y-40315252D01*
X88638867Y-40256769D01*
X88632194Y-40246783D01*
X88604647Y-40205556D01*
X88594552Y-40190448D01*
X88551238Y-40161506D01*
X88528232Y-40146133D01*
X88528233Y-40146133D01*
X88498989Y-40140316D01*
X88469748Y-40134500D01*
X86930252Y-40134500D01*
X86901010Y-40140316D01*
X86871767Y-40146133D01*
X86805449Y-40190447D01*
X86805448Y-40190448D01*
X86764018Y-40252450D01*
X86716925Y-40283915D01*
X86682986Y-40282719D01*
X86673764Y-40280199D01*
X86658839Y-40271582D01*
X86576053Y-40249400D01*
X86561040Y-40249400D01*
X86551462Y-40246783D01*
X86536330Y-40235053D01*
X86518640Y-40227726D01*
X86465314Y-40174400D01*
X86351190Y-40108510D01*
X86351181Y-40108506D01*
X86223894Y-40074400D01*
X86223892Y-40074400D01*
X86092108Y-40074400D01*
X86092106Y-40074400D01*
X85964818Y-40108506D01*
X85964809Y-40108510D01*
X85850685Y-40174400D01*
X85757500Y-40267585D01*
X85691610Y-40381709D01*
X85691606Y-40381718D01*
X85657500Y-40509005D01*
X84639621Y-40509005D01*
X84696794Y-40451832D01*
X85421726Y-39726900D01*
X86103373Y-39045252D01*
X86749500Y-39045252D01*
X86749500Y-39684748D01*
X86754403Y-39709396D01*
X86761133Y-39743232D01*
X86790608Y-39787343D01*
X86805448Y-39809552D01*
X86811987Y-39813921D01*
X86871767Y-39853866D01*
X86871768Y-39853866D01*
X86871769Y-39853867D01*
X86930252Y-39865500D01*
X86930254Y-39865500D01*
X88469746Y-39865500D01*
X88469748Y-39865500D01*
X88528231Y-39853867D01*
X88594552Y-39809552D01*
X88638867Y-39743231D01*
X88650500Y-39684748D01*
X88650500Y-39045252D01*
X88638867Y-38986769D01*
X88594552Y-38920448D01*
X88556467Y-38895000D01*
X88528232Y-38876133D01*
X88528233Y-38876133D01*
X88498640Y-38870247D01*
X88469748Y-38864500D01*
X86930252Y-38864500D01*
X86901360Y-38870247D01*
X86871767Y-38876133D01*
X86805449Y-38920447D01*
X86805447Y-38920449D01*
X86761133Y-38986767D01*
X86758149Y-39001769D01*
X86749500Y-39045252D01*
X86103373Y-39045252D01*
X86663032Y-38485593D01*
X86715357Y-38463920D01*
X86767683Y-38485594D01*
X86776884Y-38496806D01*
X86805445Y-38539548D01*
X86805448Y-38539552D01*
X86841014Y-38563317D01*
X86871767Y-38583866D01*
X86871768Y-38583866D01*
X86871769Y-38583867D01*
X86930252Y-38595500D01*
X86930254Y-38595500D01*
X88469746Y-38595500D01*
X88469748Y-38595500D01*
X88528231Y-38583867D01*
X88594552Y-38539552D01*
X88638867Y-38473231D01*
X88650500Y-38414748D01*
X88650500Y-37775252D01*
X88638867Y-37716769D01*
X88633940Y-37709396D01*
X88605019Y-37666113D01*
X88594552Y-37650448D01*
X88556467Y-37625000D01*
X88528232Y-37606133D01*
X88528233Y-37606133D01*
X88498989Y-37600316D01*
X88469748Y-37594500D01*
X86930252Y-37594500D01*
X86901010Y-37600316D01*
X86871767Y-37606133D01*
X86805449Y-37650447D01*
X86805447Y-37650449D01*
X86761133Y-37716767D01*
X86758345Y-37723500D01*
X86754500Y-37721907D01*
X86750494Y-37727897D01*
X86742240Y-37747826D01*
X86735221Y-37750732D01*
X86730999Y-37757047D01*
X86689914Y-37769500D01*
X86640699Y-37769500D01*
X86640683Y-37769499D01*
X86636153Y-37769499D01*
X86550448Y-37769499D01*
X86550446Y-37769499D01*
X86544523Y-37771086D01*
X86488370Y-37763694D01*
X86453892Y-37718761D01*
X86461284Y-37662608D01*
X86473040Y-37647286D01*
X87517165Y-36603162D01*
X87560018Y-36528939D01*
X87582200Y-36446153D01*
X87582200Y-36360447D01*
X87582200Y-34505252D01*
X88524500Y-34505252D01*
X88524500Y-35494748D01*
X88532255Y-35533736D01*
X88536133Y-35553232D01*
X88539787Y-35558700D01*
X88580448Y-35619552D01*
X88624560Y-35649027D01*
X88646767Y-35663866D01*
X88646768Y-35663866D01*
X88646769Y-35663867D01*
X88705252Y-35675500D01*
X88800500Y-35675500D01*
X88852826Y-35697174D01*
X88874500Y-35749500D01*
X88874500Y-39157147D01*
X88874500Y-39242853D01*
X88893990Y-39315591D01*
X88896683Y-39325641D01*
X88896684Y-39325643D01*
X88939532Y-39399858D01*
X88939533Y-39399859D01*
X88939535Y-39399862D01*
X91598660Y-42058986D01*
X94217534Y-44677860D01*
X94239208Y-44730186D01*
X94233576Y-44758501D01*
X94230265Y-44766493D01*
X94230262Y-44766503D01*
X94199500Y-44921159D01*
X94199500Y-45078840D01*
X94230261Y-45233491D01*
X94230264Y-45233501D01*
X94290603Y-45379174D01*
X94290605Y-45379177D01*
X94290606Y-45379179D01*
X94291454Y-45380448D01*
X94378210Y-45510288D01*
X94380518Y-45513100D01*
X94378915Y-45514415D01*
X94398170Y-45560900D01*
X94376496Y-45613226D01*
X94324170Y-45634900D01*
X94289779Y-45634900D01*
X94237453Y-45613226D01*
X93387380Y-44763153D01*
X92532062Y-43907835D01*
X92532059Y-43907833D01*
X92532058Y-43907832D01*
X92457843Y-43864984D01*
X92457841Y-43864983D01*
X92457840Y-43864982D01*
X92457839Y-43864982D01*
X92375053Y-43842800D01*
X89988847Y-43842800D01*
X89988845Y-43842800D01*
X89906066Y-43864980D01*
X89906057Y-43864984D01*
X89868562Y-43886631D01*
X89868563Y-43886632D01*
X89831837Y-43907835D01*
X89436847Y-44302826D01*
X89384521Y-44324500D01*
X88705252Y-44324500D01*
X88676010Y-44330316D01*
X88646767Y-44336133D01*
X88580449Y-44380447D01*
X88580447Y-44380449D01*
X88536133Y-44446767D01*
X88536133Y-44446769D01*
X88524500Y-44505252D01*
X88524500Y-45494748D01*
X88528412Y-45514415D01*
X88536133Y-45553232D01*
X88565608Y-45597343D01*
X88580448Y-45619552D01*
X88603418Y-45634900D01*
X88646767Y-45663866D01*
X88646768Y-45663866D01*
X88646769Y-45663867D01*
X88705252Y-45675500D01*
X88705254Y-45675500D01*
X89694746Y-45675500D01*
X89694748Y-45675500D01*
X89753231Y-45663867D01*
X89819552Y-45619552D01*
X89863867Y-45553231D01*
X89875500Y-45494748D01*
X89875500Y-44815479D01*
X89897174Y-44763153D01*
X90144853Y-44515474D01*
X90197179Y-44493800D01*
X92166721Y-44493800D01*
X92219047Y-44515474D01*
X93924438Y-46220865D01*
X93998661Y-46263718D01*
X94081447Y-46285900D01*
X94081449Y-46285900D01*
X95505951Y-46285900D01*
X95505953Y-46285900D01*
X95588739Y-46263718D01*
X95662962Y-46220865D01*
X96431559Y-45452266D01*
X96431562Y-45452265D01*
X96492165Y-45391662D01*
X96535018Y-45317438D01*
X96557200Y-45234654D01*
X96557201Y-45234654D01*
X96557201Y-45144418D01*
X96557200Y-45144400D01*
X96557200Y-36188845D01*
X96551035Y-36165841D01*
X96544871Y-36142835D01*
X96544871Y-36142833D01*
X96535019Y-36106065D01*
X96535018Y-36106061D01*
X96495687Y-36037938D01*
X96492167Y-36031841D01*
X96492166Y-36031840D01*
X96492165Y-36031838D01*
X95782465Y-35322138D01*
X95760791Y-35269812D01*
X95766425Y-35241492D01*
X95769737Y-35233497D01*
X95800500Y-35078842D01*
X95800500Y-34921158D01*
X95769737Y-34766503D01*
X95721707Y-34650547D01*
X95709396Y-34620825D01*
X95709394Y-34620822D01*
X95709394Y-34620821D01*
X95621789Y-34489711D01*
X95510289Y-34378211D01*
X95379179Y-34290606D01*
X95379175Y-34290604D01*
X95379173Y-34290603D01*
X95379174Y-34290603D01*
X95233501Y-34230264D01*
X95233491Y-34230261D01*
X95129925Y-34209661D01*
X95078842Y-34199500D01*
X94921158Y-34199500D01*
X94877315Y-34208220D01*
X94766508Y-34230261D01*
X94766498Y-34230264D01*
X94620825Y-34290603D01*
X94489711Y-34378210D01*
X94489710Y-34378212D01*
X94378212Y-34489710D01*
X94378210Y-34489711D01*
X94344429Y-34540269D01*
X94297336Y-34571735D01*
X94241788Y-34560686D01*
X94210322Y-34513593D01*
X94208900Y-34499157D01*
X94208900Y-32675524D01*
X94208901Y-32675511D01*
X94208901Y-32583845D01*
X94208900Y-32583844D01*
X94206828Y-32576113D01*
X94191944Y-32520565D01*
X94186719Y-32501064D01*
X94186718Y-32501063D01*
X94186718Y-32501061D01*
X94165291Y-32463950D01*
X94143865Y-32426838D01*
X94083262Y-32366235D01*
X94080683Y-32363656D01*
X94080672Y-32363646D01*
X92816772Y-31099746D01*
X91456562Y-29739535D01*
X91456559Y-29739533D01*
X91456558Y-29739532D01*
X91382343Y-29696684D01*
X91382341Y-29696683D01*
X91382340Y-29696682D01*
X91382339Y-29696682D01*
X91299553Y-29674500D01*
X91299551Y-29674500D01*
X91174500Y-29674500D01*
X91122174Y-29652826D01*
X91100500Y-29600500D01*
X91100500Y-28880253D01*
X91093131Y-28843208D01*
X91088867Y-28821769D01*
X91044552Y-28755448D01*
X91008163Y-28731133D01*
X90978232Y-28711133D01*
X90978233Y-28711133D01*
X90948989Y-28705316D01*
X90919748Y-28699500D01*
X89080252Y-28699500D01*
X89051010Y-28705316D01*
X89021767Y-28711133D01*
X88955449Y-28755447D01*
X88955447Y-28755449D01*
X88911133Y-28821767D01*
X88899500Y-28880253D01*
X88899500Y-31119746D01*
X88911133Y-31178232D01*
X88923213Y-31196310D01*
X88955448Y-31244552D01*
X88979413Y-31260565D01*
X89021767Y-31288866D01*
X89021768Y-31288866D01*
X89021769Y-31288867D01*
X89080252Y-31300500D01*
X89080254Y-31300500D01*
X90919746Y-31300500D01*
X90919748Y-31300500D01*
X90978231Y-31288867D01*
X91044552Y-31244552D01*
X91088867Y-31178231D01*
X91100500Y-31119748D01*
X91100500Y-30482778D01*
X91122174Y-30430452D01*
X91174500Y-30408778D01*
X91226824Y-30430451D01*
X92359200Y-31562826D01*
X93536226Y-32739852D01*
X93557900Y-32792178D01*
X93557900Y-34440921D01*
X93537985Y-34489008D01*
X93538883Y-34489697D01*
X93536314Y-34493043D01*
X93536233Y-34493240D01*
X93535934Y-34493538D01*
X93535933Y-34493540D01*
X93493084Y-34567756D01*
X93493080Y-34567765D01*
X93478864Y-34620820D01*
X93478865Y-34620821D01*
X93470900Y-34650547D01*
X93470900Y-41753547D01*
X93470900Y-41839253D01*
X93493082Y-41922039D01*
X93493083Y-41922041D01*
X93493084Y-41922043D01*
X93535932Y-41996258D01*
X93535933Y-41996259D01*
X93535935Y-41996262D01*
X93802955Y-42263282D01*
X94064460Y-42524787D01*
X94086134Y-42577113D01*
X94080502Y-42605430D01*
X94037948Y-42708168D01*
X94037947Y-42708170D01*
X94010603Y-42845641D01*
X94004469Y-42876481D01*
X93999500Y-42901460D01*
X93999500Y-43098539D01*
X94037947Y-43291829D01*
X94037950Y-43291839D01*
X94097663Y-43436000D01*
X94097663Y-43492637D01*
X94057614Y-43532685D01*
X94000977Y-43532685D01*
X93976970Y-43516644D01*
X92091247Y-41630921D01*
X89547174Y-39086847D01*
X89525500Y-39034521D01*
X89525500Y-35749500D01*
X89547174Y-35697174D01*
X89599500Y-35675500D01*
X89694746Y-35675500D01*
X89694748Y-35675500D01*
X89753231Y-35663867D01*
X89819552Y-35619552D01*
X89863867Y-35553231D01*
X89875500Y-35494748D01*
X89875500Y-34505252D01*
X89863867Y-34446769D01*
X89859959Y-34440921D01*
X89832810Y-34400290D01*
X89819552Y-34380448D01*
X89797343Y-34365608D01*
X89753232Y-34336133D01*
X89753233Y-34336133D01*
X89723989Y-34330316D01*
X89694748Y-34324500D01*
X88705252Y-34324500D01*
X88676010Y-34330316D01*
X88646767Y-34336133D01*
X88580449Y-34380447D01*
X88580447Y-34380449D01*
X88536133Y-34446767D01*
X88536133Y-34446769D01*
X88524500Y-34505252D01*
X87582200Y-34505252D01*
X87582200Y-28115524D01*
X87582201Y-28115511D01*
X87582201Y-28023845D01*
X87582200Y-28023844D01*
X87560019Y-27941064D01*
X87560017Y-27941059D01*
X87534171Y-27896293D01*
X87534169Y-27896291D01*
X87530617Y-27890138D01*
X87517165Y-27866838D01*
X87456562Y-27806235D01*
X87456559Y-27806233D01*
X86314106Y-26663780D01*
X85163807Y-25513480D01*
X85142133Y-25461154D01*
X85147766Y-25432835D01*
X85200130Y-25306420D01*
X85240500Y-25103465D01*
X85240500Y-24896535D01*
X85679500Y-24896535D01*
X85679500Y-25103465D01*
X85686385Y-25138079D01*
X85719868Y-25306413D01*
X85719870Y-25306420D01*
X85799059Y-25497598D01*
X85910155Y-25663867D01*
X85914023Y-25669655D01*
X86060345Y-25815977D01*
X86232402Y-25930941D01*
X86423580Y-26010130D01*
X86626535Y-26050500D01*
X86626536Y-26050500D01*
X86833464Y-26050500D01*
X86833465Y-26050500D01*
X87036420Y-26010130D01*
X87227598Y-25930941D01*
X87399655Y-25815977D01*
X87545977Y-25669655D01*
X87660941Y-25497598D01*
X87740130Y-25306420D01*
X87780500Y-25103465D01*
X87780500Y-24896535D01*
X88219500Y-24896535D01*
X88219500Y-25103465D01*
X88226385Y-25138079D01*
X88259868Y-25306413D01*
X88259870Y-25306420D01*
X88339059Y-25497598D01*
X88450155Y-25663867D01*
X88454023Y-25669655D01*
X88600345Y-25815977D01*
X88772402Y-25930941D01*
X88963580Y-26010130D01*
X89166535Y-26050500D01*
X89166536Y-26050500D01*
X89373464Y-26050500D01*
X89373465Y-26050500D01*
X89576420Y-26010130D01*
X89767598Y-25930941D01*
X89939655Y-25815977D01*
X90085977Y-25669655D01*
X90200941Y-25497598D01*
X90280130Y-25306420D01*
X90320500Y-25103465D01*
X90320500Y-24896535D01*
X90280130Y-24693580D01*
X90200941Y-24502402D01*
X90085977Y-24330345D01*
X89939655Y-24184023D01*
X89894382Y-24153773D01*
X89767598Y-24069059D01*
X89576420Y-23989870D01*
X89576413Y-23989868D01*
X89423516Y-23959455D01*
X89373465Y-23949500D01*
X89166535Y-23949500D01*
X89126385Y-23957486D01*
X88963586Y-23989868D01*
X88963579Y-23989870D01*
X88772401Y-24069059D01*
X88600345Y-24184022D01*
X88600344Y-24184024D01*
X88454024Y-24330344D01*
X88454022Y-24330345D01*
X88339059Y-24502401D01*
X88259870Y-24693579D01*
X88259868Y-24693586D01*
X88224005Y-24873887D01*
X88219500Y-24896535D01*
X87780500Y-24896535D01*
X87740130Y-24693580D01*
X87660941Y-24502402D01*
X87545977Y-24330345D01*
X87399655Y-24184023D01*
X87354382Y-24153773D01*
X87227598Y-24069059D01*
X87036420Y-23989870D01*
X87036413Y-23989868D01*
X86883516Y-23959455D01*
X86833465Y-23949500D01*
X86626535Y-23949500D01*
X86586385Y-23957486D01*
X86423586Y-23989868D01*
X86423579Y-23989870D01*
X86232401Y-24069059D01*
X86060345Y-24184022D01*
X86060344Y-24184024D01*
X85914024Y-24330344D01*
X85914022Y-24330345D01*
X85799059Y-24502401D01*
X85719870Y-24693579D01*
X85719868Y-24693586D01*
X85684005Y-24873887D01*
X85679500Y-24896535D01*
X85240500Y-24896535D01*
X85200130Y-24693580D01*
X85120941Y-24502402D01*
X85005977Y-24330345D01*
X84859655Y-24184023D01*
X84814382Y-24153773D01*
X84687598Y-24069059D01*
X84496420Y-23989870D01*
X84496413Y-23989868D01*
X84343516Y-23959455D01*
X84293465Y-23949500D01*
X84086535Y-23949500D01*
X84046385Y-23957486D01*
X83883586Y-23989868D01*
X83883579Y-23989870D01*
X83692401Y-24069059D01*
X83520345Y-24184022D01*
X83520344Y-24184024D01*
X83374024Y-24330344D01*
X83374022Y-24330345D01*
X83259059Y-24502401D01*
X83179870Y-24693579D01*
X83179868Y-24693586D01*
X83144005Y-24873887D01*
X83139500Y-24896535D01*
X83139500Y-25103465D01*
X83146385Y-25138079D01*
X83179868Y-25306413D01*
X83179870Y-25306420D01*
X83259059Y-25497598D01*
X83370155Y-25663867D01*
X83374023Y-25669655D01*
X83520345Y-25815977D01*
X83692402Y-25930941D01*
X83883580Y-26010130D01*
X84086535Y-26050500D01*
X84086536Y-26050500D01*
X84293464Y-26050500D01*
X84293465Y-26050500D01*
X84496420Y-26010130D01*
X84622836Y-25957766D01*
X84679472Y-25957766D01*
X84703480Y-25973807D01*
X86909526Y-28179852D01*
X86931200Y-28232178D01*
X86931200Y-28625500D01*
X86909526Y-28677826D01*
X86857200Y-28699500D01*
X85080252Y-28699500D01*
X85051010Y-28705316D01*
X85021767Y-28711133D01*
X84955449Y-28755447D01*
X84955447Y-28755449D01*
X84911133Y-28821767D01*
X84899500Y-28880253D01*
X84899500Y-29600500D01*
X84877826Y-29652826D01*
X84825500Y-29674500D01*
X84786153Y-29674500D01*
X84700447Y-29674500D01*
X84617661Y-29696682D01*
X84617660Y-29696682D01*
X84617658Y-29696683D01*
X84617656Y-29696684D01*
X84543441Y-29739532D01*
X80885632Y-33397341D01*
X80842781Y-33471561D01*
X80842782Y-33471562D01*
X80820600Y-33554347D01*
X80820600Y-34900104D01*
X80798926Y-34952430D01*
X80746600Y-34974104D01*
X80709600Y-34964190D01*
X80680190Y-34947210D01*
X80680181Y-34947206D01*
X80552894Y-34913100D01*
X80552892Y-34913100D01*
X80421108Y-34913100D01*
X80421106Y-34913100D01*
X80293818Y-34947206D01*
X80293809Y-34947210D01*
X80179685Y-35013100D01*
X80086500Y-35106285D01*
X80020610Y-35220409D01*
X80020606Y-35220418D01*
X79986500Y-35347705D01*
X79986500Y-35479494D01*
X80020606Y-35606781D01*
X80020610Y-35606790D01*
X80053563Y-35663866D01*
X80086500Y-35720914D01*
X80179686Y-35814100D01*
X80293814Y-35879992D01*
X80421105Y-35914099D01*
X80421106Y-35914100D01*
X80421108Y-35914100D01*
X80552894Y-35914100D01*
X80552894Y-35914099D01*
X80680186Y-35879992D01*
X80709599Y-35863009D01*
X80765751Y-35855616D01*
X80810685Y-35890094D01*
X80820600Y-35927095D01*
X80820600Y-44836547D01*
X80820600Y-44922253D01*
X80842782Y-45005039D01*
X80842783Y-45005041D01*
X80842784Y-45005043D01*
X80885632Y-45079258D01*
X80885633Y-45079259D01*
X80885635Y-45079262D01*
X81087826Y-45281453D01*
X81109500Y-45333778D01*
X81109500Y-55049520D01*
X81087826Y-55101846D01*
X75896943Y-60292728D01*
X75844617Y-60314402D01*
X75816299Y-60308769D01*
X75737255Y-60276028D01*
X75737244Y-60276025D01*
X75598902Y-60248507D01*
X75553616Y-60239500D01*
X75366384Y-60239500D01*
X75330056Y-60246725D01*
X75182755Y-60276025D01*
X75182748Y-60276027D01*
X75009772Y-60347676D01*
X74854092Y-60451697D01*
X74854091Y-60451699D01*
X74799526Y-60506264D01*
X74747200Y-60527938D01*
X74694874Y-60506264D01*
X74673200Y-60453938D01*
X74673200Y-59049578D01*
X74694873Y-58997253D01*
X76156465Y-57535662D01*
X76199318Y-57461439D01*
X76221500Y-57378653D01*
X76221500Y-57292947D01*
X76221500Y-25081705D01*
X80444800Y-25081705D01*
X80444800Y-25213494D01*
X80478906Y-25340781D01*
X80478910Y-25340790D01*
X80532053Y-25432835D01*
X80544800Y-25454914D01*
X80637986Y-25548100D01*
X80752114Y-25613992D01*
X80879405Y-25648099D01*
X80879406Y-25648100D01*
X80879408Y-25648100D01*
X81011194Y-25648100D01*
X81011194Y-25648099D01*
X81138486Y-25613992D01*
X81252614Y-25548100D01*
X81345800Y-25454914D01*
X81411692Y-25340786D01*
X81445799Y-25213494D01*
X81445800Y-25213494D01*
X81445800Y-25081706D01*
X81445799Y-25081705D01*
X81429739Y-25021769D01*
X81411692Y-24954414D01*
X81345800Y-24840286D01*
X81292474Y-24786960D01*
X81270800Y-24734634D01*
X81270800Y-18251879D01*
X81292474Y-18199553D01*
X82166527Y-17325500D01*
X83460465Y-16031562D01*
X83471493Y-16012461D01*
X83503318Y-15957338D01*
X83525499Y-15874555D01*
X83525500Y-15874555D01*
X83525500Y-15749500D01*
X83547174Y-15697174D01*
X83599500Y-15675500D01*
X83694746Y-15675500D01*
X83694748Y-15675500D01*
X83753231Y-15663867D01*
X83819552Y-15619552D01*
X83863867Y-15553231D01*
X83875500Y-15494748D01*
X83875500Y-14505252D01*
X83863867Y-14446769D01*
X83819552Y-14380448D01*
X83797343Y-14365608D01*
X83753232Y-14336133D01*
X83753233Y-14336133D01*
X83723989Y-14330316D01*
X83694748Y-14324500D01*
X82705252Y-14324500D01*
X82676010Y-14330316D01*
X82646767Y-14336133D01*
X82580449Y-14380447D01*
X82580447Y-14380449D01*
X82536133Y-14446767D01*
X82529611Y-14479556D01*
X82524500Y-14505252D01*
X82524500Y-15494748D01*
X82526431Y-15504455D01*
X82536133Y-15553232D01*
X82565608Y-15597343D01*
X82580448Y-15619552D01*
X82602469Y-15634266D01*
X82646767Y-15663866D01*
X82646768Y-15663866D01*
X82646769Y-15663867D01*
X82705252Y-15675500D01*
X82717221Y-15675500D01*
X82769547Y-15697174D01*
X82791221Y-15749500D01*
X82769547Y-15801826D01*
X80684832Y-17886541D01*
X80641981Y-17960761D01*
X80641982Y-17960762D01*
X80619800Y-18043547D01*
X80619800Y-24734634D01*
X80598126Y-24786960D01*
X80544800Y-24840285D01*
X80478910Y-24954409D01*
X80478906Y-24954418D01*
X80444800Y-25081705D01*
X76221500Y-25081705D01*
X76221500Y-21637779D01*
X76243174Y-21585453D01*
X79190369Y-18638258D01*
X82167165Y-15661462D01*
X82184139Y-15632062D01*
X82210018Y-15587238D01*
X82232199Y-15504455D01*
X82232200Y-15504455D01*
X82232200Y-11834054D01*
X82253874Y-11781728D01*
X82306200Y-11760054D01*
X82347313Y-11772526D01*
X82371767Y-11788866D01*
X82371768Y-11788866D01*
X82371769Y-11788867D01*
X82430252Y-11800500D01*
X82430254Y-11800500D01*
X83507200Y-11800500D01*
X83559526Y-11822174D01*
X83581200Y-11874499D01*
X83581200Y-13232147D01*
X83581200Y-13317853D01*
X83599946Y-13387814D01*
X83603383Y-13400641D01*
X83603384Y-13400643D01*
X83646232Y-13474858D01*
X83646233Y-13474859D01*
X83646235Y-13474862D01*
X84049199Y-13877826D01*
X84369547Y-14198174D01*
X84391221Y-14250500D01*
X84369547Y-14302826D01*
X84317221Y-14324500D01*
X84305252Y-14324500D01*
X84276010Y-14330316D01*
X84246767Y-14336133D01*
X84180449Y-14380447D01*
X84180447Y-14380449D01*
X84136133Y-14446767D01*
X84129611Y-14479556D01*
X84124500Y-14505252D01*
X84124500Y-15494748D01*
X84126431Y-15504455D01*
X84136133Y-15553232D01*
X84165608Y-15597343D01*
X84180448Y-15619552D01*
X84202469Y-15634266D01*
X84246767Y-15663866D01*
X84246768Y-15663866D01*
X84246769Y-15663867D01*
X84305252Y-15675500D01*
X84305254Y-15675500D01*
X85294746Y-15675500D01*
X85294748Y-15675500D01*
X85353231Y-15663867D01*
X85419552Y-15619552D01*
X85463867Y-15553231D01*
X85475500Y-15494748D01*
X85475500Y-14505252D01*
X85463867Y-14446769D01*
X85419552Y-14380448D01*
X85397343Y-14365608D01*
X85353232Y-14336133D01*
X85353233Y-14336133D01*
X85323989Y-14330316D01*
X85294748Y-14324500D01*
X85294746Y-14324500D01*
X85199500Y-14324500D01*
X85147174Y-14302826D01*
X85125500Y-14250500D01*
X85125500Y-14125447D01*
X85103318Y-14042662D01*
X85103318Y-14042661D01*
X85060467Y-13968441D01*
X85060466Y-13968440D01*
X85060465Y-13968438D01*
X84253874Y-13161847D01*
X84232200Y-13109521D01*
X84232200Y-10957145D01*
X84232199Y-10957144D01*
X84227935Y-10941232D01*
X84210018Y-10874362D01*
X84167165Y-10800138D01*
X84106562Y-10739535D01*
X84032338Y-10696682D01*
X84032335Y-10696681D01*
X84032333Y-10696680D01*
X83949555Y-10674500D01*
X83949553Y-10674500D01*
X83824500Y-10674500D01*
X83772174Y-10652826D01*
X83750500Y-10600500D01*
X83750500Y-10380253D01*
X83750500Y-10380252D01*
X83738867Y-10321769D01*
X83694552Y-10255448D01*
X83652687Y-10227474D01*
X83628232Y-10211133D01*
X83628233Y-10211133D01*
X83598989Y-10205316D01*
X83569748Y-10199500D01*
X82430252Y-10199500D01*
X82401010Y-10205316D01*
X82371767Y-10211133D01*
X82347312Y-10227474D01*
X82291763Y-10238523D01*
X82244671Y-10207057D01*
X82232200Y-10165945D01*
X82232200Y-6113847D01*
X82212144Y-6038997D01*
X82210018Y-6031062D01*
X82210018Y-6031061D01*
X82188591Y-5993950D01*
X82167165Y-5956838D01*
X82106562Y-5896235D01*
X82103983Y-5893656D01*
X82103972Y-5893646D01*
X81900460Y-5690134D01*
X81685537Y-5475210D01*
X81663864Y-5422886D01*
X81669496Y-5394571D01*
X81712051Y-5291835D01*
X81750500Y-5098541D01*
X81750500Y-4901459D01*
X82249500Y-4901459D01*
X82249500Y-5098541D01*
X82262200Y-5162388D01*
X82287947Y-5291829D01*
X82287950Y-5291839D01*
X82363367Y-5473913D01*
X82472860Y-5637781D01*
X82612218Y-5777139D01*
X82776086Y-5886632D01*
X82945579Y-5956838D01*
X82958165Y-5962051D01*
X83151459Y-6000500D01*
X83151461Y-6000500D01*
X83348539Y-6000500D01*
X83348541Y-6000500D01*
X83541835Y-5962051D01*
X83723914Y-5886632D01*
X83887782Y-5777139D01*
X84027139Y-5637782D01*
X84136632Y-5473914D01*
X84212051Y-5291835D01*
X84250500Y-5098541D01*
X84250500Y-4901459D01*
X84212051Y-4708165D01*
X84136632Y-4526086D01*
X84086301Y-4450761D01*
X84027139Y-4362218D01*
X83887781Y-4222860D01*
X83723913Y-4113367D01*
X83541839Y-4037950D01*
X83541829Y-4037947D01*
X83412388Y-4012200D01*
X83348541Y-3999500D01*
X83151459Y-3999500D01*
X83096662Y-4010399D01*
X82958170Y-4037947D01*
X82958160Y-4037950D01*
X82776086Y-4113367D01*
X82612218Y-4222860D01*
X82612217Y-4222862D01*
X82472862Y-4362217D01*
X82472860Y-4362218D01*
X82407074Y-4460675D01*
X82363368Y-4526086D01*
X82360279Y-4533544D01*
X82287950Y-4708160D01*
X82287947Y-4708170D01*
X82255850Y-4869535D01*
X82249500Y-4901459D01*
X81750500Y-4901459D01*
X81712051Y-4708165D01*
X81636632Y-4526086D01*
X81586301Y-4450761D01*
X81527139Y-4362218D01*
X81387781Y-4222860D01*
X81223913Y-4113367D01*
X81041839Y-4037950D01*
X81041829Y-4037947D01*
X80912388Y-4012200D01*
X80848541Y-3999500D01*
X80651459Y-3999500D01*
X80596662Y-4010399D01*
X80458170Y-4037947D01*
X80458160Y-4037950D01*
X80276086Y-4113367D01*
X80112218Y-4222860D01*
X80112217Y-4222862D01*
X79972862Y-4362217D01*
X79972860Y-4362218D01*
X79907074Y-4460675D01*
X79863368Y-4526086D01*
X79860279Y-4533544D01*
X79787950Y-4708160D01*
X79787947Y-4708170D01*
X79755850Y-4869535D01*
X79749500Y-4901459D01*
X79749500Y-5098541D01*
X79762200Y-5162388D01*
X79787947Y-5291829D01*
X79787950Y-5291839D01*
X79863367Y-5473913D01*
X79972860Y-5637781D01*
X80112218Y-5777139D01*
X80276086Y-5886632D01*
X80445579Y-5956838D01*
X80458165Y-5962051D01*
X80651459Y-6000500D01*
X80651461Y-6000500D01*
X80848539Y-6000500D01*
X80848541Y-6000500D01*
X81041835Y-5962051D01*
X81144570Y-5919497D01*
X81201204Y-5919497D01*
X81225209Y-5935536D01*
X81396048Y-6106374D01*
X81559526Y-6269852D01*
X81581200Y-6322178D01*
X81581200Y-14378425D01*
X81559526Y-14430751D01*
X81507200Y-14452425D01*
X81454874Y-14430751D01*
X81445672Y-14419539D01*
X81432282Y-14399500D01*
X81419552Y-14380448D01*
X81397343Y-14365608D01*
X81353232Y-14336133D01*
X81353233Y-14336133D01*
X81323989Y-14330316D01*
X81294748Y-14324500D01*
X81294746Y-14324500D01*
X81199500Y-14324500D01*
X81147174Y-14302826D01*
X81125500Y-14250500D01*
X81125500Y-14125447D01*
X81103318Y-14042662D01*
X81103318Y-14042661D01*
X81060467Y-13968441D01*
X81060466Y-13968440D01*
X81060465Y-13968438D01*
X80253874Y-13161847D01*
X80232200Y-13109521D01*
X80232200Y-10957145D01*
X80232199Y-10957144D01*
X80227935Y-10941232D01*
X80210018Y-10874362D01*
X80167165Y-10800138D01*
X80106562Y-10739535D01*
X80032338Y-10696682D01*
X80032335Y-10696681D01*
X80032333Y-10696680D01*
X79949555Y-10674500D01*
X79949553Y-10674500D01*
X79824500Y-10674500D01*
X79772174Y-10652826D01*
X79750500Y-10600500D01*
X79750500Y-10380253D01*
X79750500Y-10380252D01*
X79738867Y-10321769D01*
X79694552Y-10255448D01*
X79652687Y-10227474D01*
X79628232Y-10211133D01*
X79628233Y-10211133D01*
X79598989Y-10205316D01*
X79569748Y-10199500D01*
X78430252Y-10199500D01*
X78401010Y-10205316D01*
X78371767Y-10211133D01*
X78305449Y-10255447D01*
X78305447Y-10255449D01*
X78261133Y-10321767D01*
X78261133Y-10321769D01*
X78249500Y-10380252D01*
X78249500Y-11619748D01*
X78253783Y-11641279D01*
X78261133Y-11678232D01*
X78290608Y-11722343D01*
X78305448Y-11744552D01*
X78328648Y-11760054D01*
X78371767Y-11788866D01*
X78371768Y-11788866D01*
X78371769Y-11788867D01*
X78430252Y-11800500D01*
X78430254Y-11800500D01*
X79507200Y-11800500D01*
X79559526Y-11822174D01*
X79581200Y-11874499D01*
X79581200Y-13232147D01*
X79581200Y-13317853D01*
X79599946Y-13387814D01*
X79603383Y-13400641D01*
X79603384Y-13400643D01*
X79646232Y-13474858D01*
X79646233Y-13474859D01*
X79646235Y-13474862D01*
X80049199Y-13877826D01*
X80369547Y-14198174D01*
X80391221Y-14250500D01*
X80369547Y-14302826D01*
X80317221Y-14324500D01*
X80305252Y-14324500D01*
X80276010Y-14330316D01*
X80246767Y-14336133D01*
X80180449Y-14380447D01*
X80180447Y-14380449D01*
X80136133Y-14446767D01*
X80129611Y-14479556D01*
X80124500Y-14505252D01*
X80124500Y-15494748D01*
X80126431Y-15504455D01*
X80136133Y-15553232D01*
X80165608Y-15597343D01*
X80180448Y-15619552D01*
X80202469Y-15634266D01*
X80246767Y-15663866D01*
X80246768Y-15663866D01*
X80246769Y-15663867D01*
X80305252Y-15675500D01*
X81053821Y-15675500D01*
X81106147Y-15697174D01*
X81127821Y-15749500D01*
X81106147Y-15801826D01*
X75635532Y-21272441D01*
X75592682Y-21346659D01*
X75592680Y-21346664D01*
X75580013Y-21393937D01*
X75580014Y-21393938D01*
X75570500Y-21429446D01*
X75570500Y-54203256D01*
X75548826Y-54255582D01*
X75496500Y-54277256D01*
X75444174Y-54255582D01*
X75436633Y-54246753D01*
X75415690Y-54217927D01*
X75282073Y-54084310D01*
X75282070Y-54084307D01*
X75282068Y-54084306D01*
X75129198Y-53973239D01*
X74960824Y-53887449D01*
X74781128Y-53829062D01*
X74781115Y-53829059D01*
X74594482Y-53799500D01*
X74594481Y-53799500D01*
X74405519Y-53799500D01*
X74405518Y-53799500D01*
X74218884Y-53829059D01*
X74218871Y-53829062D01*
X74039175Y-53887449D01*
X73870801Y-53973239D01*
X73717931Y-54084306D01*
X73584306Y-54217931D01*
X73473239Y-54370801D01*
X73387449Y-54539175D01*
X73329062Y-54718871D01*
X73329059Y-54718884D01*
X73299500Y-54905518D01*
X73299500Y-55094481D01*
X73329059Y-55281115D01*
X73329062Y-55281128D01*
X73387450Y-55460826D01*
X73387452Y-55460831D01*
X73427645Y-55539714D01*
X73432088Y-55596177D01*
X73414036Y-55625635D01*
X70539532Y-58500141D01*
X70496681Y-58574361D01*
X70496682Y-58574362D01*
X70474500Y-58657147D01*
X70474500Y-64250500D01*
X70452826Y-64302826D01*
X70400500Y-64324500D01*
X70305252Y-64324500D01*
X70276010Y-64330316D01*
X70246767Y-64336133D01*
X70180449Y-64380447D01*
X70180447Y-64380449D01*
X70136133Y-64446767D01*
X70136133Y-64446769D01*
X70124500Y-64505252D01*
X69875500Y-64505252D01*
X69863867Y-64446769D01*
X69819552Y-64380448D01*
X69797343Y-64365608D01*
X69753232Y-64336133D01*
X69753233Y-64336133D01*
X69723989Y-64330316D01*
X69694748Y-64324500D01*
X69694746Y-64324500D01*
X69599500Y-64324500D01*
X69547174Y-64302826D01*
X69525500Y-64250500D01*
X69525500Y-44986648D01*
X69508246Y-44922253D01*
X69508246Y-44922252D01*
X69507014Y-44917655D01*
X69503318Y-44903861D01*
X69460465Y-44829638D01*
X64920074Y-40289247D01*
X64898400Y-40236921D01*
X64898400Y-40161506D01*
X64898399Y-40161505D01*
X64888319Y-40123887D01*
X64864292Y-40034214D01*
X64798400Y-39920086D01*
X64705214Y-39826900D01*
X64682734Y-39813921D01*
X64591090Y-39761010D01*
X64591081Y-39761006D01*
X64463794Y-39726900D01*
X64463792Y-39726900D01*
X64334000Y-39726900D01*
X64281674Y-39705226D01*
X64260000Y-39652900D01*
X64260000Y-36194945D01*
X64259999Y-36194944D01*
X64258365Y-36188847D01*
X64237818Y-36112162D01*
X64194965Y-36037938D01*
X64134362Y-35977335D01*
X59806562Y-31649535D01*
X59806559Y-31649533D01*
X59806558Y-31649532D01*
X59732343Y-31606684D01*
X59732341Y-31606683D01*
X59732340Y-31606682D01*
X59732339Y-31606682D01*
X59649553Y-31584500D01*
X59649551Y-31584500D01*
X59524500Y-31584500D01*
X59472174Y-31562826D01*
X59450500Y-31510500D01*
X59450500Y-31440253D01*
X59447829Y-31426826D01*
X59438867Y-31381769D01*
X59421237Y-31355385D01*
X59412994Y-31343048D01*
X59394995Y-31316112D01*
X59383946Y-31260565D01*
X59394996Y-31233887D01*
X59420108Y-31196306D01*
X59438867Y-31168231D01*
X59450500Y-31109748D01*
X59450500Y-31039500D01*
X59472174Y-30987174D01*
X59524500Y-30965500D01*
X59649551Y-30965500D01*
X59649553Y-30965500D01*
X59732339Y-30943318D01*
X59806562Y-30900465D01*
X65625321Y-25081705D01*
X68656400Y-25081705D01*
X68656400Y-25213494D01*
X68690506Y-25340781D01*
X68690510Y-25340790D01*
X68743653Y-25432835D01*
X68756400Y-25454914D01*
X68849586Y-25548100D01*
X68963714Y-25613992D01*
X69091005Y-25648099D01*
X69091006Y-25648100D01*
X69091008Y-25648100D01*
X69222794Y-25648100D01*
X69222794Y-25648099D01*
X69350086Y-25613992D01*
X69464214Y-25548100D01*
X69557400Y-25454914D01*
X69623292Y-25340786D01*
X69657399Y-25213494D01*
X69657400Y-25213494D01*
X69657400Y-25138079D01*
X69679074Y-25085753D01*
X78585953Y-16178874D01*
X78638279Y-16157200D01*
X79242855Y-16157200D01*
X79242855Y-16157199D01*
X79325638Y-16135018D01*
X79399862Y-16092165D01*
X79460465Y-16031562D01*
X79503318Y-15957338D01*
X79525499Y-15874555D01*
X79525500Y-15874555D01*
X79525500Y-15749500D01*
X79547174Y-15697174D01*
X79599500Y-15675500D01*
X79694746Y-15675500D01*
X79694748Y-15675500D01*
X79753231Y-15663867D01*
X79819552Y-15619552D01*
X79863867Y-15553231D01*
X79875500Y-15494748D01*
X79875500Y-14505252D01*
X79863867Y-14446769D01*
X79819552Y-14380448D01*
X79797343Y-14365608D01*
X79753232Y-14336133D01*
X79753233Y-14336133D01*
X79723989Y-14330316D01*
X79694748Y-14324500D01*
X78705252Y-14324500D01*
X78676010Y-14330316D01*
X78646767Y-14336133D01*
X78580449Y-14380447D01*
X78580447Y-14380449D01*
X78536133Y-14446767D01*
X78524500Y-14505253D01*
X78524500Y-15432200D01*
X78502826Y-15484526D01*
X78450500Y-15506200D01*
X78429947Y-15506200D01*
X78347161Y-15528382D01*
X78347160Y-15528382D01*
X78347158Y-15528383D01*
X78347156Y-15528384D01*
X78272941Y-15571232D01*
X69218747Y-24625426D01*
X69166421Y-24647100D01*
X69091006Y-24647100D01*
X68963718Y-24681206D01*
X68963709Y-24681210D01*
X68849585Y-24747100D01*
X68756400Y-24840285D01*
X68690510Y-24954409D01*
X68690506Y-24954418D01*
X68656400Y-25081705D01*
X65625321Y-25081705D01*
X74528152Y-16178873D01*
X74580478Y-16157200D01*
X75242855Y-16157200D01*
X75242855Y-16157199D01*
X75325638Y-16135018D01*
X75399862Y-16092165D01*
X75460465Y-16031562D01*
X75503318Y-15957338D01*
X75525499Y-15874555D01*
X75525500Y-15874555D01*
X75525500Y-15749500D01*
X75547174Y-15697174D01*
X75599500Y-15675500D01*
X75694746Y-15675500D01*
X75694748Y-15675500D01*
X75753231Y-15663867D01*
X75819552Y-15619552D01*
X75863867Y-15553231D01*
X75875500Y-15494748D01*
X75875500Y-14505252D01*
X75863867Y-14446769D01*
X75819552Y-14380448D01*
X75797343Y-14365608D01*
X75753232Y-14336133D01*
X75753233Y-14336133D01*
X75723989Y-14330316D01*
X75694748Y-14324500D01*
X74705252Y-14324500D01*
X74676010Y-14330316D01*
X74646767Y-14336133D01*
X74580449Y-14380447D01*
X74580447Y-14380449D01*
X74536133Y-14446767D01*
X74524500Y-14505253D01*
X74524500Y-15432199D01*
X74502826Y-15484525D01*
X74450500Y-15506199D01*
X74372145Y-15506199D01*
X74289364Y-15528380D01*
X74289359Y-15528382D01*
X74257676Y-15546675D01*
X74257674Y-15546675D01*
X74252250Y-15549808D01*
X74215138Y-15571235D01*
X74154535Y-15631838D01*
X74154533Y-15631840D01*
X74152111Y-15634261D01*
X74152106Y-15634266D01*
X60718614Y-29067758D01*
X60666288Y-29089432D01*
X60613962Y-29067758D01*
X60594810Y-29034587D01*
X60580992Y-28983014D01*
X60515100Y-28868886D01*
X60421914Y-28775700D01*
X60344722Y-28731133D01*
X60307790Y-28709810D01*
X60307781Y-28709806D01*
X60180494Y-28675700D01*
X60180492Y-28675700D01*
X60048708Y-28675700D01*
X60048706Y-28675700D01*
X59921418Y-28709806D01*
X59921409Y-28709810D01*
X59807285Y-28775700D01*
X59737023Y-28845961D01*
X59703854Y-28865112D01*
X59674861Y-28872882D01*
X59600637Y-28915735D01*
X59575871Y-28940501D01*
X59523545Y-28962174D01*
X59471219Y-28940499D01*
X59450968Y-28902610D01*
X59450500Y-28900257D01*
X59450500Y-28900252D01*
X59438867Y-28841769D01*
X59394552Y-28775448D01*
X59364622Y-28755449D01*
X59328232Y-28731133D01*
X59328233Y-28731133D01*
X59297398Y-28725000D01*
X59269748Y-28719500D01*
X57792800Y-28719500D01*
X57740474Y-28697826D01*
X57718800Y-28645500D01*
X57718800Y-28165048D01*
X57708241Y-28125639D01*
X57708241Y-28125638D01*
X57696619Y-28082264D01*
X57696617Y-28082259D01*
X57666687Y-28030420D01*
X57666686Y-28030419D01*
X57662892Y-28023847D01*
X57653765Y-28008038D01*
X57593162Y-27947435D01*
X57593159Y-27947433D01*
X53702374Y-24056647D01*
X53680700Y-24004321D01*
X53680700Y-17749500D01*
X53702374Y-17697174D01*
X53754700Y-17675500D01*
X54694746Y-17675500D01*
X54694748Y-17675500D01*
X54753231Y-17663867D01*
X54819552Y-17619552D01*
X54863867Y-17553231D01*
X54875500Y-17494748D01*
X54875500Y-16505252D01*
X54863867Y-16446769D01*
X54819552Y-16380448D01*
X54797343Y-16365608D01*
X54753232Y-16336133D01*
X54753233Y-16336133D01*
X54719296Y-16329383D01*
X54694748Y-16324500D01*
X54694746Y-16324500D01*
X54682778Y-16324500D01*
X54630452Y-16302826D01*
X54608778Y-16250500D01*
X54630452Y-16198174D01*
X56630452Y-14198174D01*
X62699859Y-8128766D01*
X62699862Y-8128765D01*
X62760465Y-8068162D01*
X62803318Y-7993938D01*
X62825500Y-7911154D01*
X62825501Y-7911154D01*
X62825501Y-7820918D01*
X62825500Y-7820900D01*
X62825500Y-5997551D01*
X62847174Y-5945225D01*
X62871181Y-5929184D01*
X62973914Y-5886632D01*
X63137782Y-5777139D01*
X63277139Y-5637782D01*
X63386632Y-5473914D01*
X63462051Y-5291835D01*
X63500500Y-5098541D01*
X63500500Y-4901459D01*
X63462051Y-4708165D01*
X63419497Y-4605429D01*
X63419497Y-4548795D01*
X63435535Y-4524790D01*
X63792152Y-4168174D01*
X63844478Y-4146500D01*
X64259928Y-4146500D01*
X64312254Y-4168174D01*
X64333928Y-4220500D01*
X64312254Y-4272824D01*
X64267557Y-4317521D01*
X64222861Y-4362217D01*
X64222860Y-4362218D01*
X64157074Y-4460675D01*
X64113368Y-4526086D01*
X64110279Y-4533544D01*
X64037950Y-4708160D01*
X64037947Y-4708170D01*
X64005850Y-4869535D01*
X63999500Y-4901459D01*
X63999500Y-5098541D01*
X64012200Y-5162388D01*
X64037947Y-5291829D01*
X64037950Y-5291839D01*
X64113367Y-5473913D01*
X64197387Y-5599657D01*
X64222861Y-5637782D01*
X64362218Y-5777139D01*
X64526086Y-5886632D01*
X64628818Y-5929184D01*
X64668867Y-5969232D01*
X64674500Y-5997551D01*
X64674500Y-21102821D01*
X64652826Y-21155147D01*
X60377447Y-25430526D01*
X60325121Y-25452200D01*
X60249706Y-25452200D01*
X60122418Y-25486306D01*
X60122409Y-25486310D01*
X60008285Y-25552200D01*
X59915100Y-25645385D01*
X59849210Y-25759509D01*
X59849206Y-25759518D01*
X59815100Y-25886805D01*
X59815100Y-26018594D01*
X59849206Y-26145881D01*
X59849210Y-26145890D01*
X59880125Y-26199436D01*
X59915100Y-26260014D01*
X60008286Y-26353200D01*
X60122414Y-26419092D01*
X60249705Y-26453199D01*
X60249706Y-26453200D01*
X60249708Y-26453200D01*
X60381494Y-26453200D01*
X60381494Y-26453199D01*
X60508786Y-26419092D01*
X60622914Y-26353200D01*
X60716100Y-26260014D01*
X60781992Y-26145886D01*
X60816099Y-26018594D01*
X60816100Y-26018594D01*
X60816100Y-25943178D01*
X60837773Y-25890853D01*
X65260465Y-21468162D01*
X65303318Y-21393939D01*
X65325500Y-21311153D01*
X65325500Y-21225447D01*
X65325500Y-5997551D01*
X65347174Y-5945225D01*
X65371181Y-5929184D01*
X65473914Y-5886632D01*
X65637782Y-5777139D01*
X65777139Y-5637782D01*
X65788971Y-5620073D01*
X65836063Y-5588608D01*
X65891612Y-5599657D01*
X65923078Y-5646749D01*
X65924500Y-5661186D01*
X65924500Y-11481947D01*
X65924500Y-11567653D01*
X65944228Y-11641279D01*
X65946683Y-11650441D01*
X65946684Y-11650443D01*
X65989532Y-11724658D01*
X65989533Y-11724659D01*
X65989535Y-11724662D01*
X70602834Y-16337961D01*
X70602835Y-16337962D01*
X70663438Y-16398565D01*
X70737662Y-16441418D01*
X70820444Y-16463599D01*
X70820445Y-16463600D01*
X70820447Y-16463600D01*
X70906152Y-16463600D01*
X71380453Y-16463600D01*
X71432779Y-16485274D01*
X71451931Y-16518447D01*
X71483906Y-16637781D01*
X71483910Y-16637790D01*
X71517912Y-16696682D01*
X71549800Y-16751914D01*
X71642986Y-16845100D01*
X71757114Y-16910992D01*
X71884405Y-16945099D01*
X71884406Y-16945100D01*
X71884408Y-16945100D01*
X72016194Y-16945100D01*
X72016194Y-16945099D01*
X72143486Y-16910992D01*
X72257614Y-16845100D01*
X72350800Y-16751914D01*
X72416692Y-16637786D01*
X72429394Y-16590379D01*
X72448669Y-16518447D01*
X72483147Y-16473514D01*
X72520147Y-16463600D01*
X72536451Y-16463600D01*
X72536453Y-16463600D01*
X72619239Y-16441418D01*
X72693462Y-16398565D01*
X73060465Y-16031562D01*
X73103318Y-15957339D01*
X73125500Y-15874553D01*
X73125500Y-15788847D01*
X73125500Y-15749500D01*
X73147174Y-15697174D01*
X73199500Y-15675500D01*
X73294746Y-15675500D01*
X73294748Y-15675500D01*
X73353231Y-15663867D01*
X73419552Y-15619552D01*
X73463867Y-15553231D01*
X73475500Y-15494748D01*
X73475500Y-14505252D01*
X73463867Y-14446769D01*
X73419552Y-14380448D01*
X73397343Y-14365608D01*
X73353232Y-14336133D01*
X73353233Y-14336133D01*
X73323989Y-14330316D01*
X73294748Y-14324500D01*
X72305252Y-14324500D01*
X72276010Y-14330316D01*
X72246767Y-14336133D01*
X72180449Y-14380447D01*
X72180447Y-14380449D01*
X72136133Y-14446767D01*
X72129611Y-14479556D01*
X72124500Y-14505252D01*
X72124500Y-15494748D01*
X72126431Y-15504455D01*
X72136133Y-15553232D01*
X72165608Y-15597343D01*
X72180448Y-15619552D01*
X72202469Y-15634266D01*
X72246767Y-15663866D01*
X72246768Y-15663866D01*
X72246769Y-15663867D01*
X72257604Y-15666022D01*
X72304696Y-15697488D01*
X72315745Y-15753037D01*
X72284279Y-15800129D01*
X72243167Y-15812600D01*
X71756833Y-15812600D01*
X71704507Y-15790926D01*
X71682833Y-15738600D01*
X71704507Y-15686274D01*
X71742395Y-15666022D01*
X71753231Y-15663867D01*
X71819552Y-15619552D01*
X71863867Y-15553231D01*
X71875500Y-15494748D01*
X71875500Y-14505252D01*
X71863867Y-14446769D01*
X71819552Y-14380448D01*
X71797343Y-14365608D01*
X71753232Y-14336133D01*
X71753233Y-14336133D01*
X71723989Y-14330316D01*
X71694748Y-14324500D01*
X71694746Y-14324500D01*
X71599500Y-14324500D01*
X71547174Y-14302826D01*
X71525500Y-14250500D01*
X71525500Y-12205524D01*
X71525501Y-12205511D01*
X71525501Y-12113845D01*
X71525500Y-12113844D01*
X71503319Y-12031064D01*
X71503317Y-12031059D01*
X71479849Y-11990412D01*
X71477194Y-11985813D01*
X71460465Y-11956838D01*
X71427349Y-11923722D01*
X71424634Y-11920273D01*
X71418064Y-11896916D01*
X71408779Y-11874499D01*
X71410553Y-11870215D01*
X71409298Y-11865752D01*
X71421167Y-11844590D01*
X71430454Y-11822173D01*
X71434737Y-11820398D01*
X71437006Y-11816355D01*
X71460360Y-11809785D01*
X71482779Y-11800500D01*
X71569746Y-11800500D01*
X71569748Y-11800500D01*
X71628231Y-11788867D01*
X71694552Y-11744552D01*
X71738867Y-11678231D01*
X71750500Y-11619748D01*
X71750500Y-10380252D01*
X74249500Y-10380252D01*
X74249500Y-11619748D01*
X74253783Y-11641279D01*
X74261133Y-11678232D01*
X74290608Y-11722343D01*
X74305448Y-11744552D01*
X74328648Y-11760054D01*
X74371767Y-11788866D01*
X74371768Y-11788866D01*
X74371769Y-11788867D01*
X74430252Y-11800500D01*
X74600500Y-11800500D01*
X74652826Y-11822174D01*
X74674500Y-11874499D01*
X74674500Y-12325447D01*
X74674500Y-12411153D01*
X74696682Y-12493939D01*
X74696683Y-12493941D01*
X74696684Y-12493943D01*
X74739532Y-12568158D01*
X74739533Y-12568159D01*
X74739535Y-12568162D01*
X75559187Y-13387814D01*
X76369547Y-14198174D01*
X76391221Y-14250500D01*
X76369547Y-14302826D01*
X76317221Y-14324500D01*
X76305252Y-14324500D01*
X76276010Y-14330316D01*
X76246767Y-14336133D01*
X76180449Y-14380447D01*
X76180447Y-14380449D01*
X76136133Y-14446767D01*
X76129611Y-14479556D01*
X76124500Y-14505252D01*
X76124500Y-15494748D01*
X76126431Y-15504455D01*
X76136133Y-15553232D01*
X76165608Y-15597343D01*
X76180448Y-15619552D01*
X76202469Y-15634266D01*
X76246767Y-15663866D01*
X76246768Y-15663866D01*
X76246769Y-15663867D01*
X76305252Y-15675500D01*
X76305254Y-15675500D01*
X77294746Y-15675500D01*
X77294748Y-15675500D01*
X77353231Y-15663867D01*
X77419552Y-15619552D01*
X77463867Y-15553231D01*
X77475500Y-15494748D01*
X77475500Y-14505252D01*
X77463867Y-14446769D01*
X77419552Y-14380448D01*
X77397343Y-14365608D01*
X77353232Y-14336133D01*
X77353233Y-14336133D01*
X77323989Y-14330316D01*
X77294748Y-14324500D01*
X77294746Y-14324500D01*
X77199500Y-14324500D01*
X77147174Y-14302826D01*
X77125500Y-14250500D01*
X77125500Y-14125445D01*
X77125499Y-14125444D01*
X77103318Y-14042663D01*
X77103318Y-14042662D01*
X77060465Y-13968438D01*
X76999862Y-13907835D01*
X75347174Y-12255147D01*
X75325500Y-12202821D01*
X75325500Y-11874500D01*
X75347174Y-11822174D01*
X75399500Y-11800500D01*
X75569746Y-11800500D01*
X75569748Y-11800500D01*
X75628231Y-11788867D01*
X75694552Y-11744552D01*
X75738867Y-11678231D01*
X75750500Y-11619748D01*
X75750500Y-10380252D01*
X75738867Y-10321769D01*
X75694552Y-10255448D01*
X75652687Y-10227474D01*
X75628232Y-10211133D01*
X75628233Y-10211133D01*
X75598989Y-10205316D01*
X75569748Y-10199500D01*
X74430252Y-10199500D01*
X74401010Y-10205316D01*
X74371767Y-10211133D01*
X74305449Y-10255447D01*
X74305447Y-10255449D01*
X74261133Y-10321767D01*
X74261133Y-10321769D01*
X74249500Y-10380252D01*
X71750500Y-10380252D01*
X71738867Y-10321769D01*
X71694552Y-10255448D01*
X71652687Y-10227474D01*
X71628232Y-10211133D01*
X71628233Y-10211133D01*
X71598989Y-10205316D01*
X71569748Y-10199500D01*
X70430252Y-10199500D01*
X70401010Y-10205316D01*
X70371767Y-10211133D01*
X70305449Y-10255447D01*
X70305447Y-10255449D01*
X70261133Y-10321767D01*
X70261133Y-10321769D01*
X70249500Y-10380252D01*
X70249500Y-11619748D01*
X70253783Y-11641279D01*
X70261133Y-11678232D01*
X70290608Y-11722343D01*
X70305448Y-11744552D01*
X70328648Y-11760054D01*
X70371767Y-11788866D01*
X70371768Y-11788866D01*
X70371769Y-11788867D01*
X70430252Y-11800500D01*
X70600500Y-11800500D01*
X70652826Y-11822174D01*
X70674500Y-11874499D01*
X70674500Y-11913847D01*
X70674500Y-11999553D01*
X70694583Y-12074505D01*
X70696683Y-12082341D01*
X70696684Y-12082343D01*
X70739532Y-12156558D01*
X70739533Y-12156559D01*
X70739535Y-12156562D01*
X70816447Y-12233473D01*
X70852826Y-12269852D01*
X70874500Y-12322178D01*
X70874500Y-14250500D01*
X70852826Y-14302826D01*
X70800500Y-14324500D01*
X70705252Y-14324500D01*
X70676010Y-14330316D01*
X70646767Y-14336133D01*
X70580449Y-14380447D01*
X70580447Y-14380449D01*
X70536133Y-14446767D01*
X70524500Y-14505253D01*
X70524500Y-15160321D01*
X70502826Y-15212647D01*
X70450500Y-15234321D01*
X70398174Y-15212647D01*
X66597174Y-11411647D01*
X66575500Y-11359321D01*
X66575500Y-4533546D01*
X66575499Y-4533544D01*
X66573501Y-4526084D01*
X66573501Y-4526083D01*
X66553319Y-4450765D01*
X66553318Y-4450761D01*
X66510465Y-4376538D01*
X65694462Y-3560535D01*
X65694459Y-3560533D01*
X65694458Y-3560532D01*
X65620243Y-3517684D01*
X65620241Y-3517683D01*
X65620240Y-3517682D01*
X65620239Y-3517682D01*
X65537453Y-3495500D01*
X63721853Y-3495500D01*
X63636147Y-3495500D01*
X63553361Y-3517682D01*
X63553360Y-3517682D01*
X63553358Y-3517683D01*
X63553356Y-3517684D01*
X63516249Y-3539107D01*
X63516250Y-3539108D01*
X63479140Y-3560533D01*
X63479137Y-3560535D01*
X63418534Y-3621137D01*
X63418535Y-3621138D01*
X63418533Y-3621140D01*
X62975211Y-4064460D01*
X62922885Y-4086134D01*
X62894567Y-4080501D01*
X62791839Y-4037950D01*
X62791829Y-4037947D01*
X62662388Y-4012200D01*
X62598541Y-3999500D01*
X62401459Y-3999500D01*
X62346662Y-4010399D01*
X62208170Y-4037947D01*
X62208160Y-4037950D01*
X62026086Y-4113367D01*
X61862218Y-4222860D01*
X61862217Y-4222862D01*
X61722862Y-4362217D01*
X61722860Y-4362218D01*
X61657074Y-4460675D01*
X61613368Y-4526086D01*
X61610279Y-4533544D01*
X61537950Y-4708160D01*
X61537947Y-4708170D01*
X61505850Y-4869535D01*
X61499500Y-4901459D01*
X61499500Y-5098541D01*
X61512200Y-5162388D01*
X61537947Y-5291829D01*
X61537950Y-5291839D01*
X61613367Y-5473913D01*
X61697387Y-5599657D01*
X61722861Y-5637782D01*
X61862218Y-5777139D01*
X62026086Y-5886632D01*
X62128818Y-5929184D01*
X62168867Y-5969232D01*
X62174500Y-5997551D01*
X62174500Y-7702821D01*
X62152826Y-7755147D01*
X53939532Y-15968441D01*
X53896684Y-16042656D01*
X53896680Y-16042665D01*
X53885819Y-16083198D01*
X53885820Y-16083199D01*
X53874500Y-16125447D01*
X53874500Y-16250500D01*
X53852826Y-16302826D01*
X53800500Y-16324500D01*
X53754700Y-16324500D01*
X53702374Y-16302826D01*
X53680700Y-16250500D01*
X53680700Y-14562347D01*
X53676159Y-14545400D01*
X53671587Y-14528338D01*
X53658518Y-14479561D01*
X53615665Y-14405338D01*
X44685538Y-5475211D01*
X44663864Y-5422885D01*
X44669495Y-5394572D01*
X44712051Y-5291835D01*
X44750500Y-5098541D01*
X44750500Y-4901459D01*
X44712051Y-4708165D01*
X44636632Y-4526086D01*
X44586301Y-4450761D01*
X44527139Y-4362218D01*
X44432547Y-4267626D01*
X44410873Y-4215300D01*
X44432547Y-4162974D01*
X44484873Y-4141300D01*
X44900321Y-4141300D01*
X44952647Y-4162974D01*
X45314460Y-4524787D01*
X45336134Y-4577113D01*
X45330501Y-4605430D01*
X45287950Y-4708164D01*
X45287948Y-4708168D01*
X45287947Y-4708170D01*
X45255850Y-4869535D01*
X45249500Y-4901459D01*
X45249500Y-5098541D01*
X45262200Y-5162388D01*
X45287947Y-5291829D01*
X45287950Y-5291839D01*
X45363367Y-5473913D01*
X45472860Y-5637781D01*
X45612218Y-5777139D01*
X45776086Y-5886632D01*
X45945579Y-5956838D01*
X45958165Y-5962051D01*
X46151459Y-6000500D01*
X46151461Y-6000500D01*
X46348539Y-6000500D01*
X46348541Y-6000500D01*
X46541835Y-5962051D01*
X46723914Y-5886632D01*
X46887782Y-5777139D01*
X47027139Y-5637782D01*
X47136632Y-5473914D01*
X47212051Y-5291835D01*
X47250500Y-5098541D01*
X47250500Y-4901459D01*
X47212051Y-4708165D01*
X47136632Y-4526086D01*
X47086301Y-4450761D01*
X47027139Y-4362218D01*
X46887781Y-4222860D01*
X46723913Y-4113367D01*
X46541839Y-4037950D01*
X46541829Y-4037947D01*
X46412388Y-4012200D01*
X46348541Y-3999500D01*
X46151459Y-3999500D01*
X46096662Y-4010399D01*
X45958170Y-4037947D01*
X45958168Y-4037948D01*
X45958166Y-4037948D01*
X45958165Y-4037949D01*
X45900277Y-4061925D01*
X45855433Y-4080501D01*
X45855430Y-4080502D01*
X45798793Y-4080501D01*
X45774787Y-4064460D01*
X45603944Y-3893617D01*
X45265662Y-3555335D01*
X45265659Y-3555333D01*
X45265658Y-3555332D01*
X45191443Y-3512484D01*
X45191441Y-3512483D01*
X45191440Y-3512482D01*
X45191439Y-3512482D01*
X45108653Y-3490300D01*
X43297553Y-3490300D01*
X43211847Y-3490300D01*
X43129061Y-3512482D01*
X43129060Y-3512482D01*
X43129058Y-3512483D01*
X43129056Y-3512484D01*
X43054841Y-3555332D01*
X42239533Y-4370640D01*
X42203189Y-4433590D01*
X42158255Y-4468068D01*
X42102102Y-4460675D01*
X42077576Y-4437703D01*
X42027139Y-4362218D01*
X41887782Y-4222861D01*
X41876467Y-4215300D01*
X41723913Y-4113367D01*
X41541839Y-4037950D01*
X41541829Y-4037947D01*
X41412388Y-4012200D01*
X41348541Y-3999500D01*
X41151459Y-3999500D01*
X41096662Y-4010399D01*
X40958170Y-4037947D01*
X40958160Y-4037950D01*
X40776086Y-4113367D01*
X40612218Y-4222860D01*
X40612217Y-4222862D01*
X40472862Y-4362217D01*
X40472860Y-4362218D01*
X40407074Y-4460675D01*
X40363368Y-4526086D01*
X40360279Y-4533544D01*
X40287950Y-4708160D01*
X40287947Y-4708170D01*
X40255850Y-4869535D01*
X40249500Y-4901459D01*
X40249500Y-5098541D01*
X40262200Y-5162388D01*
X40287947Y-5291829D01*
X40287950Y-5291839D01*
X40330501Y-5394567D01*
X40330501Y-5451204D01*
X40314460Y-5475211D01*
X34833747Y-10955926D01*
X34781421Y-10977600D01*
X34254479Y-10977600D01*
X34202153Y-10955926D01*
X34180479Y-10903600D01*
X34202153Y-10851274D01*
X34210972Y-10843740D01*
X34216928Y-10839414D01*
X34339414Y-10716928D01*
X34441232Y-10576788D01*
X34519873Y-10422445D01*
X34533582Y-10380253D01*
X34573399Y-10257711D01*
X34573399Y-10257708D01*
X34573402Y-10257701D01*
X34600500Y-10086611D01*
X34600500Y-9913389D01*
X34573402Y-9742299D01*
X34573400Y-9742294D01*
X34573399Y-9742288D01*
X34519874Y-9577557D01*
X34519872Y-9577553D01*
X34441232Y-9423212D01*
X34339417Y-9283076D01*
X34339416Y-9283075D01*
X34339414Y-9283072D01*
X34216928Y-9160586D01*
X34216925Y-9160583D01*
X34216923Y-9160582D01*
X34076787Y-9058767D01*
X33922446Y-8980127D01*
X33922442Y-8980125D01*
X33757711Y-8926600D01*
X33757698Y-8926597D01*
X33586612Y-8899500D01*
X33586611Y-8899500D01*
X33413389Y-8899500D01*
X33413388Y-8899500D01*
X33242301Y-8926597D01*
X33242288Y-8926600D01*
X33077560Y-8980124D01*
X33077549Y-8980129D01*
X33034633Y-9001995D01*
X32978170Y-9006438D01*
X32948713Y-8988386D01*
X32886924Y-8926597D01*
X32818462Y-8858135D01*
X32818459Y-8858133D01*
X32818458Y-8858132D01*
X32744243Y-8815284D01*
X32744241Y-8815283D01*
X32744240Y-8815282D01*
X32744239Y-8815282D01*
X32661453Y-8793100D01*
X28605153Y-8793100D01*
X28519447Y-8793100D01*
X28436661Y-8815282D01*
X28436660Y-8815282D01*
X28436658Y-8815283D01*
X28436656Y-8815284D01*
X28362441Y-8858132D01*
X26037616Y-11182957D01*
X25985290Y-11204631D01*
X25932964Y-11182957D01*
X25911290Y-11130631D01*
X25913812Y-11111478D01*
X25932199Y-11042855D01*
X25932200Y-11042855D01*
X25932200Y-9781379D01*
X25953874Y-9729053D01*
X28000953Y-7681974D01*
X28053279Y-7660300D01*
X28128694Y-7660300D01*
X28128694Y-7660299D01*
X28255986Y-7626192D01*
X28370114Y-7560300D01*
X28463300Y-7467114D01*
X28529192Y-7352986D01*
X28563299Y-7225694D01*
X28563300Y-7225694D01*
X28563300Y-7093906D01*
X28563299Y-7093905D01*
X28529193Y-6966618D01*
X28529192Y-6966614D01*
X28463300Y-6852486D01*
X28370114Y-6759300D01*
X28255990Y-6693410D01*
X28255981Y-6693406D01*
X28128694Y-6659300D01*
X28128692Y-6659300D01*
X27996908Y-6659300D01*
X27996906Y-6659300D01*
X27869618Y-6693406D01*
X27869609Y-6693410D01*
X27755485Y-6759300D01*
X27662300Y-6852485D01*
X27596410Y-6966609D01*
X27596406Y-6966618D01*
X27562300Y-7093905D01*
X27562300Y-7169320D01*
X27540626Y-7221646D01*
X25444851Y-9317420D01*
X25392525Y-9339094D01*
X25351412Y-9326622D01*
X25328232Y-9311133D01*
X25328233Y-9311133D01*
X25298989Y-9305316D01*
X25269748Y-9299500D01*
X22730252Y-9299500D01*
X22701010Y-9305316D01*
X22671767Y-9311133D01*
X22605449Y-9355447D01*
X22605447Y-9355449D01*
X22561133Y-9421767D01*
X22549500Y-9480253D01*
X22549500Y-10600500D01*
X22527826Y-10652826D01*
X22475500Y-10674500D01*
X22350445Y-10674500D01*
X22267666Y-10696680D01*
X22267660Y-10696683D01*
X22193437Y-10739535D01*
X22132835Y-10800137D01*
X22089983Y-10874360D01*
X22089980Y-10874366D01*
X22067800Y-10957144D01*
X22067800Y-11221521D01*
X22046126Y-11273847D01*
X21701747Y-11618226D01*
X21649421Y-11639900D01*
X21574006Y-11639900D01*
X21446718Y-11674006D01*
X21446709Y-11674010D01*
X21332585Y-11739900D01*
X21239400Y-11833085D01*
X21173510Y-11947209D01*
X21173506Y-11947218D01*
X21139400Y-12074505D01*
X21139400Y-12206294D01*
X21173506Y-12333581D01*
X21173510Y-12333590D01*
X21218290Y-12411150D01*
X21239400Y-12447714D01*
X21332586Y-12540900D01*
X21446714Y-12606792D01*
X21574005Y-12640899D01*
X21574006Y-12640900D01*
X21574008Y-12640900D01*
X21705794Y-12640900D01*
X21705794Y-12640899D01*
X21833086Y-12606792D01*
X21947214Y-12540900D01*
X22040400Y-12447714D01*
X22106292Y-12333586D01*
X22140399Y-12206294D01*
X22140400Y-12206294D01*
X22140400Y-12130879D01*
X22162074Y-12078553D01*
X22423174Y-11817453D01*
X22475500Y-11795779D01*
X22527826Y-11817453D01*
X22549500Y-11869779D01*
X22549500Y-12519748D01*
X22557255Y-12558736D01*
X22561133Y-12578232D01*
X22580215Y-12606789D01*
X22605448Y-12644552D01*
X22649560Y-12674027D01*
X22671767Y-12688866D01*
X22671768Y-12688866D01*
X22671769Y-12688867D01*
X22730252Y-12700500D01*
X24986222Y-12700500D01*
X25038548Y-12722174D01*
X25060222Y-12774500D01*
X25038548Y-12826826D01*
X23212547Y-14652826D01*
X23160221Y-14674500D01*
X19474500Y-14674500D01*
X19422174Y-14652826D01*
X19400500Y-14600500D01*
X19400500Y-14580253D01*
X19399356Y-14574500D01*
X19388867Y-14521769D01*
X19344552Y-14455448D01*
X19307591Y-14430751D01*
X19278232Y-14411133D01*
X19278233Y-14411133D01*
X19248989Y-14405316D01*
X19219748Y-14399500D01*
X19219746Y-14399500D01*
X18390479Y-14399500D01*
X18338153Y-14377826D01*
X18158501Y-14198174D01*
X17919762Y-13959435D01*
X17919759Y-13959433D01*
X17919758Y-13959432D01*
X17845543Y-13916584D01*
X17845541Y-13916583D01*
X17845540Y-13916582D01*
X17845539Y-13916582D01*
X17762753Y-13894400D01*
X12322953Y-13894400D01*
X12237247Y-13894400D01*
X12154461Y-13916582D01*
X12154460Y-13916582D01*
X12154458Y-13916583D01*
X12154456Y-13916584D01*
X12080241Y-13959432D01*
X11661847Y-14377826D01*
X11609521Y-14399500D01*
X10780252Y-14399500D01*
X10751010Y-14405316D01*
X10721767Y-14411133D01*
X10655449Y-14455447D01*
X10655447Y-14455449D01*
X10611133Y-14521767D01*
X10599500Y-14580253D01*
X10599500Y-14600500D01*
X10577826Y-14652826D01*
X10525500Y-14674500D01*
X10486153Y-14674500D01*
X10400447Y-14674500D01*
X10317661Y-14696682D01*
X10317660Y-14696682D01*
X10317658Y-14696683D01*
X10317656Y-14696684D01*
X10243441Y-14739532D01*
X9196232Y-15786741D01*
X9153384Y-15860956D01*
X9153380Y-15860965D01*
X9132676Y-15938233D01*
X9132677Y-15938234D01*
X9131200Y-15943747D01*
X9131200Y-16674899D01*
X9109526Y-16727225D01*
X9057200Y-16748899D01*
X9016088Y-16736428D01*
X8978231Y-16711133D01*
X8978233Y-16711133D01*
X8948989Y-16705316D01*
X8919748Y-16699500D01*
X8919746Y-16699500D01*
X8399500Y-16699500D01*
X8347174Y-16677826D01*
X8325500Y-16625500D01*
X8325500Y-7165478D01*
X8347173Y-7113153D01*
X9188490Y-6271835D01*
X9240815Y-6250162D01*
X9274410Y-6258228D01*
X9443198Y-6344230D01*
X9443204Y-6344232D01*
X9660329Y-6414781D01*
X9660335Y-6414782D01*
X9660340Y-6414784D01*
X9810675Y-6438594D01*
X9885842Y-6450500D01*
X9885843Y-6450500D01*
X10114158Y-6450500D01*
X10170532Y-6441571D01*
X10339660Y-6414784D01*
X10339667Y-6414781D01*
X10339670Y-6414781D01*
X10556793Y-6344233D01*
X10556793Y-6344232D01*
X10556799Y-6344231D01*
X10760228Y-6240579D01*
X10944937Y-6106379D01*
X11106379Y-5944937D01*
X11240579Y-5760228D01*
X11344231Y-5556799D01*
X11371162Y-5473914D01*
X11414781Y-5339670D01*
X11414781Y-5339667D01*
X11414784Y-5339660D01*
X11450500Y-5114157D01*
X11450500Y-4901459D01*
X20249500Y-4901459D01*
X20249500Y-5098541D01*
X20262200Y-5162388D01*
X20287947Y-5291829D01*
X20287950Y-5291839D01*
X20363367Y-5473913D01*
X20472860Y-5637781D01*
X20612218Y-5777139D01*
X20776086Y-5886632D01*
X20945579Y-5956838D01*
X20958165Y-5962051D01*
X21151459Y-6000500D01*
X21151461Y-6000500D01*
X21348539Y-6000500D01*
X21348541Y-6000500D01*
X21541835Y-5962051D01*
X21723914Y-5886632D01*
X21887782Y-5777139D01*
X22027139Y-5637782D01*
X22136632Y-5473914D01*
X22212051Y-5291835D01*
X22250500Y-5098541D01*
X22250500Y-4901459D01*
X22749500Y-4901459D01*
X22749500Y-5098541D01*
X22762200Y-5162388D01*
X22787947Y-5291829D01*
X22787950Y-5291839D01*
X22863367Y-5473913D01*
X22972860Y-5637781D01*
X23112218Y-5777139D01*
X23276086Y-5886632D01*
X23445579Y-5956838D01*
X23458165Y-5962051D01*
X23651459Y-6000500D01*
X23651461Y-6000500D01*
X23848539Y-6000500D01*
X23848541Y-6000500D01*
X24041835Y-5962051D01*
X24223914Y-5886632D01*
X24387782Y-5777139D01*
X24527139Y-5637782D01*
X24636632Y-5473914D01*
X24712051Y-5291835D01*
X24750500Y-5098541D01*
X24750500Y-4901459D01*
X25249500Y-4901459D01*
X25249500Y-5098541D01*
X25262200Y-5162388D01*
X25287947Y-5291829D01*
X25287950Y-5291839D01*
X25363367Y-5473913D01*
X25472860Y-5637781D01*
X25612218Y-5777139D01*
X25776086Y-5886632D01*
X25945579Y-5956838D01*
X25958165Y-5962051D01*
X26151459Y-6000500D01*
X26151461Y-6000500D01*
X26348539Y-6000500D01*
X26348541Y-6000500D01*
X26541835Y-5962051D01*
X26723914Y-5886632D01*
X26887782Y-5777139D01*
X27027139Y-5637782D01*
X27136632Y-5473914D01*
X27212051Y-5291835D01*
X27250500Y-5098541D01*
X27250500Y-4901459D01*
X27212051Y-4708165D01*
X27136632Y-4526086D01*
X27086301Y-4450761D01*
X27027139Y-4362218D01*
X26887781Y-4222860D01*
X26723913Y-4113367D01*
X26541839Y-4037950D01*
X26541829Y-4037947D01*
X26412388Y-4012200D01*
X26348541Y-3999500D01*
X26151459Y-3999500D01*
X26096662Y-4010399D01*
X25958170Y-4037947D01*
X25958160Y-4037950D01*
X25776086Y-4113367D01*
X25612218Y-4222860D01*
X25612217Y-4222862D01*
X25472862Y-4362217D01*
X25472860Y-4362218D01*
X25407074Y-4460675D01*
X25363368Y-4526086D01*
X25360279Y-4533544D01*
X25287950Y-4708160D01*
X25287947Y-4708170D01*
X25255850Y-4869535D01*
X25249500Y-4901459D01*
X24750500Y-4901459D01*
X24712051Y-4708165D01*
X24636632Y-4526086D01*
X24586301Y-4450761D01*
X24527139Y-4362218D01*
X24387781Y-4222860D01*
X24223913Y-4113367D01*
X24041839Y-4037950D01*
X24041829Y-4037947D01*
X23912388Y-4012200D01*
X23848541Y-3999500D01*
X23651459Y-3999500D01*
X23596662Y-4010399D01*
X23458170Y-4037947D01*
X23458160Y-4037950D01*
X23276086Y-4113367D01*
X23112218Y-4222860D01*
X23112217Y-4222862D01*
X22972862Y-4362217D01*
X22972860Y-4362218D01*
X22907074Y-4460675D01*
X22863368Y-4526086D01*
X22860279Y-4533544D01*
X22787950Y-4708160D01*
X22787947Y-4708170D01*
X22755850Y-4869535D01*
X22749500Y-4901459D01*
X22250500Y-4901459D01*
X22212051Y-4708165D01*
X22136632Y-4526086D01*
X22086301Y-4450761D01*
X22027139Y-4362218D01*
X21887781Y-4222860D01*
X21723913Y-4113367D01*
X21541839Y-4037950D01*
X21541829Y-4037947D01*
X21412388Y-4012200D01*
X21348541Y-3999500D01*
X21151459Y-3999500D01*
X21096662Y-4010399D01*
X20958170Y-4037947D01*
X20958160Y-4037950D01*
X20776086Y-4113367D01*
X20612218Y-4222860D01*
X20612217Y-4222862D01*
X20472862Y-4362217D01*
X20472860Y-4362218D01*
X20407074Y-4460675D01*
X20363368Y-4526086D01*
X20360279Y-4533544D01*
X20287950Y-4708160D01*
X20287947Y-4708170D01*
X20255850Y-4869535D01*
X20249500Y-4901459D01*
X11450500Y-4901459D01*
X11450500Y-4885843D01*
X11414784Y-4660340D01*
X11414782Y-4660335D01*
X11414781Y-4660329D01*
X11344233Y-4443206D01*
X11344231Y-4443203D01*
X11344231Y-4443201D01*
X11240579Y-4239772D01*
X11106379Y-4055063D01*
X10944937Y-3893621D01*
X10944934Y-3893618D01*
X10944932Y-3893617D01*
X10760227Y-3759420D01*
X10556793Y-3655766D01*
X10339670Y-3585218D01*
X10339657Y-3585215D01*
X10114158Y-3549500D01*
X10114157Y-3549500D01*
X9885843Y-3549500D01*
X9885842Y-3549500D01*
X9660342Y-3585215D01*
X9660329Y-3585218D01*
X9443206Y-3655766D01*
X9239772Y-3759420D01*
X9055067Y-3893617D01*
X8893617Y-4055067D01*
X8759420Y-4239772D01*
X8655766Y-4443206D01*
X8585218Y-4660329D01*
X8585215Y-4660342D01*
X8549500Y-4885842D01*
X8549500Y-5114157D01*
X8585215Y-5339657D01*
X8585218Y-5339670D01*
X8655766Y-5556793D01*
X8655768Y-5556798D01*
X8655769Y-5556799D01*
X8681579Y-5607454D01*
X8741771Y-5725588D01*
X8746214Y-5782051D01*
X8728162Y-5811509D01*
X7739532Y-6800141D01*
X7696682Y-6874359D01*
X7696680Y-6874364D01*
X7686090Y-6913885D01*
X7686091Y-6913886D01*
X7674500Y-6957146D01*
X7674500Y-16625500D01*
X7652826Y-16677826D01*
X7600500Y-16699500D01*
X7080252Y-16699500D01*
X7051010Y-16705316D01*
X7021767Y-16711133D01*
X6955449Y-16755447D01*
X6955447Y-16755449D01*
X6911133Y-16821767D01*
X6899500Y-16880253D01*
X6899500Y-19119746D01*
X6911133Y-19178232D01*
X6926180Y-19200750D01*
X6955448Y-19244552D01*
X6969238Y-19253766D01*
X7021767Y-19288866D01*
X7021768Y-19288866D01*
X7021769Y-19288867D01*
X7080252Y-19300500D01*
X7080254Y-19300500D01*
X8803820Y-19300500D01*
X8856146Y-19322174D01*
X8877820Y-19374500D01*
X8856146Y-19426826D01*
X7739532Y-20543441D01*
X7696684Y-20617656D01*
X7696681Y-20617663D01*
X7689449Y-20644654D01*
X7654970Y-20689586D01*
X7617971Y-20699500D01*
X7080252Y-20699500D01*
X7051010Y-20705316D01*
X7021767Y-20711133D01*
X6955449Y-20755447D01*
X6955447Y-20755449D01*
X6911133Y-20821767D01*
X6899500Y-20880253D01*
X6899500Y-21981121D01*
X6877826Y-22033447D01*
X6282832Y-22628441D01*
X6239984Y-22702656D01*
X6239983Y-22702658D01*
X6239982Y-22702660D01*
X6239982Y-22702661D01*
X6217800Y-22785447D01*
X500500Y-22785447D01*
X500500Y-574500D01*
X522174Y-522174D01*
X574500Y-500500D01*
X99425500Y-500500D01*
X99477826Y-522174D01*
G37*
G04 #@! TD.AperFunction*
G04 #@! TD*
M02*
