%TF.GenerationSoftware,KiCad,Pcbnew,9.0.7*%
%TF.CreationDate,2026-03-03T14:47:43-07:00*%
%TF.ProjectId,lamp_v1,6c616d70-5f76-4312-9e6b-696361645f70,rev?*%
%TF.SameCoordinates,Original*%
%TF.FileFunction,Soldermask,Top*%
%TF.FilePolarity,Negative*%
%FSLAX46Y46*%
G04 Gerber Fmt 4.6, Leading zero omitted, Abs format (unit mm)*
G04 Created by KiCad (PCBNEW 9.0.7) date 2026-03-03 14:47:43*
%MOMM*%
%LPD*%
G01*
G04 APERTURE LIST*
G04 Aperture macros list*
%AMRoundRect*
0 Rectangle with rounded corners*
0 $1 Rounding radius*
0 $2 $3 $4 $5 $6 $7 $8 $9 X,Y pos of 4 corners*
0 Add a 4 corners polygon primitive as box body*
4,1,4,$2,$3,$4,$5,$6,$7,$8,$9,$2,$3,0*
0 Add four circle primitives for the rounded corners*
1,1,$1+$1,$2,$3*
1,1,$1+$1,$4,$5*
1,1,$1+$1,$6,$7*
1,1,$1+$1,$8,$9*
0 Add four rect primitives between the rounded corners*
20,1,$1+$1,$2,$3,$4,$5,0*
20,1,$1+$1,$4,$5,$6,$7,0*
20,1,$1+$1,$6,$7,$8,$9,0*
20,1,$1+$1,$8,$9,$2,$3,0*%
G04 Aperture macros list end*
%ADD10C,6.350000*%
%ADD11R,1.500000X0.900000*%
%ADD12R,6.000000X6.000000*%
%ADD13R,1.000000X0.300000*%
%ADD14R,1.500000X0.600000*%
%ADD15R,0.900000X0.800000*%
%ADD16R,1.000000X1.200000*%
%ADD17R,1.200000X1.000000*%
%ADD18RoundRect,0.250000X-0.250000X-0.350000X0.250000X-0.350000X0.250000X0.350000X-0.250000X0.350000X0*%
%ADD19RoundRect,0.200000X-0.200000X-0.275000X0.200000X-0.275000X0.200000X0.275000X-0.200000X0.275000X0*%
%ADD20R,1.500000X2.300000*%
%ADD21R,0.600000X1.000000*%
%ADD22R,0.300000X1.000000*%
%ADD23R,1.000000X2.000000*%
%ADD24R,2.500000X2.000000*%
%ADD25R,2.000000X2.000000*%
%ADD26C,1.700000*%
%ADD27R,1.000000X1.500000*%
%ADD28R,3.000000X2.000000*%
%ADD29R,0.600000X0.700000*%
%ADD30RoundRect,0.300000X-0.300000X-0.600000X0.300000X-0.600000X0.300000X0.600000X-0.300000X0.600000X0*%
%ADD31R,1.500000X1.000000*%
G04 APERTURE END LIST*
D10*
%TO.C,H1*%
X5000000Y-5000000D03*
%TD*%
%TO.C,H2*%
X95000000Y-5000000D03*
%TD*%
%TO.C,H3*%
X5000000Y-75000000D03*
%TD*%
%TO.C,H4*%
X95000000Y-75000000D03*
%TD*%
D11*
%TO.C,U1*%
X12000000Y-10000000D03*
X12000000Y-11270000D03*
X12000000Y-23830000D03*
X12000000Y-25100000D03*
X12000000Y-26370000D03*
X12000000Y-27640000D03*
X12000000Y-28910000D03*
X12000000Y-30180000D03*
X12000000Y-31450000D03*
X12000000Y-32720000D03*
X28000000Y-10000000D03*
X28000000Y-11270000D03*
X28000000Y-12540000D03*
X28000000Y-13810000D03*
X28000000Y-15080000D03*
X28000000Y-16350000D03*
X28000000Y-17620000D03*
X28000000Y-18890000D03*
X28000000Y-21430000D03*
X28000000Y-27780000D03*
X28000000Y-29050000D03*
X28000000Y-30320000D03*
D12*
X20000000Y-20000000D03*
%TD*%
D13*
%TO.C,U2*%
X48500000Y-14000000D03*
X48500000Y-14500000D03*
X48500000Y-15000000D03*
X48500000Y-15500000D03*
X48500000Y-16000000D03*
X51500000Y-16000000D03*
X51500000Y-15500000D03*
X51500000Y-15000000D03*
X51500000Y-14500000D03*
X51500000Y-14000000D03*
%TD*%
D14*
%TO.C,U3*%
X45200000Y-25555000D03*
X45200000Y-26825000D03*
X45200000Y-28095000D03*
X45200000Y-29365000D03*
X45200000Y-30635000D03*
X45200000Y-31905000D03*
X45200000Y-33175000D03*
X45200000Y-34445000D03*
X54800000Y-34445000D03*
X54800000Y-33175000D03*
X54800000Y-31905000D03*
X54800000Y-30635000D03*
X54800000Y-29365000D03*
X54800000Y-28095000D03*
X54800000Y-26825000D03*
X54800000Y-25555000D03*
%TD*%
%TO.C,U4*%
X69300000Y-13095000D03*
X69300000Y-14365000D03*
X69300000Y-15635000D03*
X69300000Y-16905000D03*
X74700000Y-16905000D03*
X74700000Y-15635000D03*
X74700000Y-14365000D03*
X74700000Y-13095000D03*
%TD*%
D15*
%TO.C,Q1*%
X84050000Y-16000000D03*
X85950000Y-16000000D03*
X85000000Y-14000000D03*
%TD*%
%TO.C,Q2*%
X11050000Y-43000000D03*
X12950000Y-43000000D03*
X12000000Y-41000000D03*
%TD*%
%TO.C,Q3*%
X20550000Y-43000000D03*
X22450000Y-43000000D03*
X21500000Y-41000000D03*
%TD*%
%TO.C,Q4*%
X30050000Y-43000000D03*
X31950000Y-43000000D03*
X31000000Y-41000000D03*
%TD*%
%TO.C,Q5*%
X39550000Y-43000000D03*
X41450000Y-43000000D03*
X40500000Y-41000000D03*
%TD*%
%TO.C,Q6*%
X49050000Y-43000000D03*
X50950000Y-43000000D03*
X50000000Y-41000000D03*
%TD*%
%TO.C,Q7*%
X58550000Y-43000000D03*
X60450000Y-43000000D03*
X59500000Y-41000000D03*
%TD*%
%TO.C,Q8*%
X68050000Y-43000000D03*
X69950000Y-43000000D03*
X69000000Y-41000000D03*
%TD*%
%TO.C,Q9*%
X77550000Y-43000000D03*
X79450000Y-43000000D03*
X78500000Y-41000000D03*
%TD*%
D16*
%TO.C,D1*%
X11000000Y-61950000D03*
X11000000Y-60050000D03*
%TD*%
%TO.C,D2*%
X21000000Y-61950000D03*
X21000000Y-60050000D03*
%TD*%
%TO.C,D3*%
X31000000Y-61950000D03*
X31000000Y-60050000D03*
%TD*%
%TO.C,D4*%
X41000000Y-61950000D03*
X41000000Y-60050000D03*
%TD*%
%TO.C,D5*%
X51000000Y-61950000D03*
X51000000Y-60050000D03*
%TD*%
%TO.C,D6*%
X61000000Y-61950000D03*
X61000000Y-60050000D03*
%TD*%
%TO.C,D7*%
X71000000Y-61950000D03*
X71000000Y-60050000D03*
%TD*%
%TO.C,D8*%
X81000000Y-61950000D03*
X81000000Y-60050000D03*
%TD*%
D17*
%TO.C,PD1*%
X19000000Y-59900000D03*
X19000000Y-62100000D03*
%TD*%
%TO.C,PD2*%
X29000000Y-59900000D03*
X29000000Y-62100000D03*
%TD*%
%TO.C,PD3*%
X39000000Y-59900000D03*
X39000000Y-62100000D03*
%TD*%
%TO.C,PD4*%
X49000000Y-59900000D03*
X49000000Y-62100000D03*
%TD*%
%TO.C,PD5*%
X59000000Y-59900000D03*
X59000000Y-62100000D03*
%TD*%
%TO.C,PD6*%
X69000000Y-59900000D03*
X69000000Y-62100000D03*
%TD*%
%TO.C,PD7*%
X79000000Y-59900000D03*
X79000000Y-62100000D03*
%TD*%
%TO.C,PD8*%
X89000000Y-59900000D03*
X89000000Y-62100000D03*
%TD*%
D18*
%TO.C,R1*%
X11050000Y-38000000D03*
X12950000Y-38000000D03*
%TD*%
%TO.C,R2*%
X20550000Y-38000000D03*
X22450000Y-38000000D03*
%TD*%
%TO.C,R3*%
X30050000Y-38000000D03*
X31950000Y-38000000D03*
%TD*%
%TO.C,R4*%
X39550000Y-38000000D03*
X41450000Y-38000000D03*
%TD*%
%TO.C,R5*%
X49050000Y-38000000D03*
X50950000Y-38000000D03*
%TD*%
%TO.C,R6*%
X58550000Y-38000000D03*
X60450000Y-38000000D03*
%TD*%
%TO.C,R7*%
X68050000Y-38000000D03*
X69950000Y-38000000D03*
%TD*%
%TO.C,R8*%
X77550000Y-38000000D03*
X79450000Y-38000000D03*
%TD*%
%TO.C,R9*%
X11050000Y-46000000D03*
X12950000Y-46000000D03*
%TD*%
%TO.C,R10*%
X20550000Y-46000000D03*
X22450000Y-46000000D03*
%TD*%
%TO.C,R11*%
X30050000Y-46000000D03*
X31950000Y-46000000D03*
%TD*%
%TO.C,R12*%
X39550000Y-46000000D03*
X41450000Y-46000000D03*
%TD*%
%TO.C,R13*%
X49050000Y-46000000D03*
X50950000Y-46000000D03*
%TD*%
%TO.C,R14*%
X58550000Y-46000000D03*
X60450000Y-46000000D03*
%TD*%
%TO.C,R15*%
X68050000Y-46000000D03*
X69950000Y-46000000D03*
%TD*%
%TO.C,R16*%
X77550000Y-46000000D03*
X79450000Y-46000000D03*
%TD*%
%TO.C,R17*%
X44050000Y-10000000D03*
X45950000Y-10000000D03*
%TD*%
%TO.C,R18*%
X50050000Y-10000000D03*
X51950000Y-10000000D03*
%TD*%
%TO.C,R19*%
X54050000Y-10000000D03*
X55950000Y-10000000D03*
%TD*%
%TO.C,R20*%
X18050000Y-58000000D03*
X19950000Y-58000000D03*
%TD*%
%TO.C,R21*%
X28050000Y-58000000D03*
X29950000Y-58000000D03*
%TD*%
%TO.C,R22*%
X38050000Y-58000000D03*
X39950000Y-58000000D03*
%TD*%
%TO.C,R23*%
X48050000Y-58000000D03*
X49950000Y-58000000D03*
%TD*%
%TO.C,R24*%
X58050000Y-58000000D03*
X59950000Y-58000000D03*
%TD*%
%TO.C,R25*%
X68050000Y-58000000D03*
X69950000Y-58000000D03*
%TD*%
%TO.C,R26*%
X78050000Y-58000000D03*
X79950000Y-58000000D03*
%TD*%
%TO.C,R27*%
X88050000Y-58000000D03*
X89950000Y-58000000D03*
%TD*%
%TO.C,R28*%
X2550000Y-15000000D03*
X4450000Y-15000000D03*
%TD*%
%TO.C,R29*%
X2550000Y-18000000D03*
X4450000Y-18000000D03*
%TD*%
D19*
%TO.C,R30*%
X11000000Y-6250000D03*
X11000000Y-7750000D03*
%TD*%
%TO.C,R31*%
X18250000Y-5000000D03*
X19750000Y-5000000D03*
%TD*%
D18*
%TO.C,R32*%
X5000000Y-35950000D03*
X5000000Y-34050000D03*
%TD*%
%TO.C,R33*%
X5000000Y-40950000D03*
X5000000Y-39050000D03*
%TD*%
D19*
%TO.C,C1*%
X24250000Y-8000000D03*
X25750000Y-8000000D03*
%TD*%
%TO.C,C2*%
X51250000Y-12000000D03*
X52750000Y-12000000D03*
%TD*%
%TO.C,C3*%
X51250000Y-27000000D03*
X52750000Y-27000000D03*
%TD*%
%TO.C,C4*%
X73250000Y-12000000D03*
X74750000Y-12000000D03*
%TD*%
%TO.C,C5*%
X86250000Y-12000000D03*
X87750000Y-12000000D03*
%TD*%
D20*
%TO.C,D9*%
X88000000Y-30000000D03*
X92000000Y-30000000D03*
%TD*%
%TO.C,D10*%
X88000000Y-16000000D03*
X92000000Y-16000000D03*
%TD*%
D16*
%TO.C,D11*%
X5000000Y-44950000D03*
X5000000Y-43050000D03*
%TD*%
%TO.C,D12*%
X5000000Y-48950000D03*
X5000000Y-47050000D03*
%TD*%
D21*
%TO.C,J1*%
X12750000Y-5000000D03*
D22*
X10750000Y-5000000D03*
X10250000Y-5000000D03*
X9750000Y-5000000D03*
X9250000Y-5000000D03*
D21*
X7250000Y-5000000D03*
D22*
X9500000Y-3800000D03*
D23*
X14320000Y-6500000D03*
X5680000Y-6500000D03*
%TD*%
D24*
%TO.C,J2*%
X90000000Y-4000000D03*
X90000000Y-12000000D03*
D25*
X95000000Y-8000000D03*
%TD*%
D26*
%TO.C,J3*%
X60000000Y-8730000D03*
X60000000Y-11270000D03*
%TD*%
%TO.C,J4*%
X65000000Y-8730000D03*
X65000000Y-11270000D03*
%TD*%
%TO.C,J5*%
X3500000Y-26190000D03*
X3500000Y-28730000D03*
X3500000Y-31270000D03*
X3500000Y-33810000D03*
%TD*%
D27*
%TO.C,U6*%
X32700000Y-5000000D03*
X35000000Y-5000000D03*
X37300000Y-5000000D03*
D28*
X35000000Y-2500000D03*
%TD*%
D29*
%TO.C,U7*%
X16050000Y-8000000D03*
X17000000Y-8000000D03*
X17950000Y-8000000D03*
X17950000Y-6000000D03*
X17000000Y-6000000D03*
X16050000Y-6000000D03*
%TD*%
D30*
%TO.C,C6*%
X70500000Y-5000000D03*
X73500000Y-5000000D03*
%TD*%
%TO.C,C7*%
X79000000Y-5000000D03*
X82000000Y-5000000D03*
%TD*%
%TO.C,C8*%
X30500000Y-5000000D03*
X33500000Y-5000000D03*
%TD*%
%TO.C,C9*%
X39000000Y-5000000D03*
X42000000Y-5000000D03*
%TD*%
%TO.C,C10*%
X91500000Y-16000000D03*
X94500000Y-16000000D03*
%TD*%
D19*
%TO.C,C11*%
X2750000Y-13000000D03*
X4250000Y-13000000D03*
%TD*%
%TO.C,C12*%
X13250000Y-1500000D03*
X14750000Y-1500000D03*
%TD*%
D31*
%TO.C,SW1*%
X1750000Y-22000000D03*
X8250000Y-22000000D03*
%TD*%
%TO.C,SW2*%
X1750000Y-26000000D03*
X8250000Y-26000000D03*
%TD*%
D18*
%TO.C,R34*%
X79050000Y-18000000D03*
X80950000Y-18000000D03*
%TD*%
%TO.C,R35*%
X83050000Y-20000000D03*
X84950000Y-20000000D03*
%TD*%
D20*
%TO.C,D14*%
X73000000Y-2000000D03*
X77000000Y-2000000D03*
%TD*%
M02*
