%TF.GenerationSoftware,KiCad,Pcbnew,9.0.7*%
%TF.CreationDate,2026-03-03T14:47:43-07:00*%
%TF.ProjectId,lamp_v1,6c616d70-5f76-4312-9e6b-696361645f70,rev?*%
%TF.SameCoordinates,Original*%
%TF.FileFunction,Legend,Top*%
%TF.FilePolarity,Positive*%
%FSLAX46Y46*%
G04 Gerber Fmt 4.6, Leading zero omitted, Abs format (unit mm)*
G04 Created by KiCad (PCBNEW 9.0.7) date 2026-03-03 14:47:43*
%MOMM*%
%LPD*%
G01*
G04 APERTURE LIST*
%ADD10C,0.150000*%
%ADD11C,0.120000*%
%ADD12C,0.200000*%
G04 APERTURE END LIST*
D10*
X8000000Y-50000000D02*
X92000000Y-50000000D01*
X92000000Y-72000000D01*
X8000000Y-72000000D01*
X8000000Y-50000000D01*
D11*
X74733333Y-47563855D02*
X75266667Y-47563855D01*
X75266667Y-47563855D02*
X74923809Y-48363855D01*
X50726566Y-76287664D02*
X50688470Y-76325760D01*
X50688470Y-76325760D02*
X50574185Y-76363855D01*
X50574185Y-76363855D02*
X50497994Y-76363855D01*
X50497994Y-76363855D02*
X50383708Y-76325760D01*
X50383708Y-76325760D02*
X50307518Y-76249569D01*
X50307518Y-76249569D02*
X50269423Y-76173379D01*
X50269423Y-76173379D02*
X50231327Y-76020998D01*
X50231327Y-76020998D02*
X50231327Y-75906712D01*
X50231327Y-75906712D02*
X50269423Y-75754331D01*
X50269423Y-75754331D02*
X50307518Y-75678140D01*
X50307518Y-75678140D02*
X50383708Y-75601950D01*
X50383708Y-75601950D02*
X50497994Y-75563855D01*
X50497994Y-75563855D02*
X50574185Y-75563855D01*
X50574185Y-75563855D02*
X50688470Y-75601950D01*
X50688470Y-75601950D02*
X50726566Y-75640045D01*
X51069423Y-75944807D02*
X51336089Y-75944807D01*
X51450375Y-76363855D02*
X51069423Y-76363855D01*
X51069423Y-76363855D02*
X51069423Y-75563855D01*
X51069423Y-75563855D02*
X51450375Y-75563855D01*
X52250376Y-76363855D02*
X51983709Y-75982902D01*
X51793233Y-76363855D02*
X51793233Y-75563855D01*
X51793233Y-75563855D02*
X52097995Y-75563855D01*
X52097995Y-75563855D02*
X52174185Y-75601950D01*
X52174185Y-75601950D02*
X52212280Y-75640045D01*
X52212280Y-75640045D02*
X52250376Y-75716236D01*
X52250376Y-75716236D02*
X52250376Y-75830521D01*
X52250376Y-75830521D02*
X52212280Y-75906712D01*
X52212280Y-75906712D02*
X52174185Y-75944807D01*
X52174185Y-75944807D02*
X52097995Y-75982902D01*
X52097995Y-75982902D02*
X51793233Y-75982902D01*
X52593233Y-76363855D02*
X52593233Y-75563855D01*
X52593233Y-75563855D02*
X53050376Y-76363855D01*
X53050376Y-76363855D02*
X53050376Y-75563855D01*
X53431328Y-76059093D02*
X54040852Y-76059093D01*
X54574185Y-75563855D02*
X54726566Y-75563855D01*
X54726566Y-75563855D02*
X54802756Y-75601950D01*
X54802756Y-75601950D02*
X54878947Y-75678140D01*
X54878947Y-75678140D02*
X54917042Y-75830521D01*
X54917042Y-75830521D02*
X54917042Y-76097188D01*
X54917042Y-76097188D02*
X54878947Y-76249569D01*
X54878947Y-76249569D02*
X54802756Y-76325760D01*
X54802756Y-76325760D02*
X54726566Y-76363855D01*
X54726566Y-76363855D02*
X54574185Y-76363855D01*
X54574185Y-76363855D02*
X54497994Y-76325760D01*
X54497994Y-76325760D02*
X54421804Y-76249569D01*
X54421804Y-76249569D02*
X54383708Y-76097188D01*
X54383708Y-76097188D02*
X54383708Y-75830521D01*
X54383708Y-75830521D02*
X54421804Y-75678140D01*
X54421804Y-75678140D02*
X54497994Y-75601950D01*
X54497994Y-75601950D02*
X54574185Y-75563855D01*
X55259899Y-76363855D02*
X55259899Y-75563855D01*
X55259899Y-75944807D02*
X55717042Y-75944807D01*
X55717042Y-76363855D02*
X55717042Y-75563855D01*
X56478946Y-76363855D02*
X56097994Y-76363855D01*
X56097994Y-76363855D02*
X56097994Y-75563855D01*
X56745613Y-76059093D02*
X57355137Y-76059093D01*
X57697993Y-76325760D02*
X57812279Y-76363855D01*
X57812279Y-76363855D02*
X58002755Y-76363855D01*
X58002755Y-76363855D02*
X58078946Y-76325760D01*
X58078946Y-76325760D02*
X58117041Y-76287664D01*
X58117041Y-76287664D02*
X58155136Y-76211474D01*
X58155136Y-76211474D02*
X58155136Y-76135283D01*
X58155136Y-76135283D02*
X58117041Y-76059093D01*
X58117041Y-76059093D02*
X58078946Y-76020998D01*
X58078946Y-76020998D02*
X58002755Y-75982902D01*
X58002755Y-75982902D02*
X57850374Y-75944807D01*
X57850374Y-75944807D02*
X57774184Y-75906712D01*
X57774184Y-75906712D02*
X57736089Y-75868617D01*
X57736089Y-75868617D02*
X57697993Y-75792426D01*
X57697993Y-75792426D02*
X57697993Y-75716236D01*
X57697993Y-75716236D02*
X57736089Y-75640045D01*
X57736089Y-75640045D02*
X57774184Y-75601950D01*
X57774184Y-75601950D02*
X57850374Y-75563855D01*
X57850374Y-75563855D02*
X58040851Y-75563855D01*
X58040851Y-75563855D02*
X58155136Y-75601950D01*
X59031327Y-75830521D02*
X59221803Y-76363855D01*
X59221803Y-76363855D02*
X59412280Y-75830521D01*
X59678946Y-75640045D02*
X59717042Y-75601950D01*
X59717042Y-75601950D02*
X59793232Y-75563855D01*
X59793232Y-75563855D02*
X59983708Y-75563855D01*
X59983708Y-75563855D02*
X60059899Y-75601950D01*
X60059899Y-75601950D02*
X60097994Y-75640045D01*
X60097994Y-75640045D02*
X60136089Y-75716236D01*
X60136089Y-75716236D02*
X60136089Y-75792426D01*
X60136089Y-75792426D02*
X60097994Y-75906712D01*
X60097994Y-75906712D02*
X59640851Y-76363855D01*
X59640851Y-76363855D02*
X60136089Y-76363855D01*
X24771428Y-47640045D02*
X24809524Y-47601950D01*
X24809524Y-47601950D02*
X24885714Y-47563855D01*
X24885714Y-47563855D02*
X25076190Y-47563855D01*
X25076190Y-47563855D02*
X25152381Y-47601950D01*
X25152381Y-47601950D02*
X25190476Y-47640045D01*
X25190476Y-47640045D02*
X25228571Y-47716236D01*
X25228571Y-47716236D02*
X25228571Y-47792426D01*
X25228571Y-47792426D02*
X25190476Y-47906712D01*
X25190476Y-47906712D02*
X24733333Y-48363855D01*
X24733333Y-48363855D02*
X25228571Y-48363855D01*
X84923809Y-47906712D02*
X84847619Y-47868617D01*
X84847619Y-47868617D02*
X84809524Y-47830521D01*
X84809524Y-47830521D02*
X84771428Y-47754331D01*
X84771428Y-47754331D02*
X84771428Y-47716236D01*
X84771428Y-47716236D02*
X84809524Y-47640045D01*
X84809524Y-47640045D02*
X84847619Y-47601950D01*
X84847619Y-47601950D02*
X84923809Y-47563855D01*
X84923809Y-47563855D02*
X85076190Y-47563855D01*
X85076190Y-47563855D02*
X85152381Y-47601950D01*
X85152381Y-47601950D02*
X85190476Y-47640045D01*
X85190476Y-47640045D02*
X85228571Y-47716236D01*
X85228571Y-47716236D02*
X85228571Y-47754331D01*
X85228571Y-47754331D02*
X85190476Y-47830521D01*
X85190476Y-47830521D02*
X85152381Y-47868617D01*
X85152381Y-47868617D02*
X85076190Y-47906712D01*
X85076190Y-47906712D02*
X84923809Y-47906712D01*
X84923809Y-47906712D02*
X84847619Y-47944807D01*
X84847619Y-47944807D02*
X84809524Y-47982902D01*
X84809524Y-47982902D02*
X84771428Y-48059093D01*
X84771428Y-48059093D02*
X84771428Y-48211474D01*
X84771428Y-48211474D02*
X84809524Y-48287664D01*
X84809524Y-48287664D02*
X84847619Y-48325760D01*
X84847619Y-48325760D02*
X84923809Y-48363855D01*
X84923809Y-48363855D02*
X85076190Y-48363855D01*
X85076190Y-48363855D02*
X85152381Y-48325760D01*
X85152381Y-48325760D02*
X85190476Y-48287664D01*
X85190476Y-48287664D02*
X85228571Y-48211474D01*
X85228571Y-48211474D02*
X85228571Y-48059093D01*
X85228571Y-48059093D02*
X85190476Y-47982902D01*
X85190476Y-47982902D02*
X85152381Y-47944807D01*
X85152381Y-47944807D02*
X85076190Y-47906712D01*
D12*
X51203006Y-78683528D02*
X50488720Y-78683528D01*
X50488720Y-78683528D02*
X50488720Y-77183528D01*
X52345864Y-78683528D02*
X52345864Y-77897814D01*
X52345864Y-77897814D02*
X52274435Y-77754957D01*
X52274435Y-77754957D02*
X52131578Y-77683528D01*
X52131578Y-77683528D02*
X51845864Y-77683528D01*
X51845864Y-77683528D02*
X51703006Y-77754957D01*
X52345864Y-78612100D02*
X52203006Y-78683528D01*
X52203006Y-78683528D02*
X51845864Y-78683528D01*
X51845864Y-78683528D02*
X51703006Y-78612100D01*
X51703006Y-78612100D02*
X51631578Y-78469242D01*
X51631578Y-78469242D02*
X51631578Y-78326385D01*
X51631578Y-78326385D02*
X51703006Y-78183528D01*
X51703006Y-78183528D02*
X51845864Y-78112100D01*
X51845864Y-78112100D02*
X52203006Y-78112100D01*
X52203006Y-78112100D02*
X52345864Y-78040671D01*
X53060149Y-78683528D02*
X53060149Y-77683528D01*
X53060149Y-77826385D02*
X53131578Y-77754957D01*
X53131578Y-77754957D02*
X53274435Y-77683528D01*
X53274435Y-77683528D02*
X53488721Y-77683528D01*
X53488721Y-77683528D02*
X53631578Y-77754957D01*
X53631578Y-77754957D02*
X53703007Y-77897814D01*
X53703007Y-77897814D02*
X53703007Y-78683528D01*
X53703007Y-77897814D02*
X53774435Y-77754957D01*
X53774435Y-77754957D02*
X53917292Y-77683528D01*
X53917292Y-77683528D02*
X54131578Y-77683528D01*
X54131578Y-77683528D02*
X54274435Y-77754957D01*
X54274435Y-77754957D02*
X54345864Y-77897814D01*
X54345864Y-77897814D02*
X54345864Y-78683528D01*
X55060149Y-78683528D02*
X55060149Y-77683528D01*
X55060149Y-77183528D02*
X54988721Y-77254957D01*
X54988721Y-77254957D02*
X55060149Y-77326385D01*
X55060149Y-77326385D02*
X55131578Y-77254957D01*
X55131578Y-77254957D02*
X55060149Y-77183528D01*
X55060149Y-77183528D02*
X55060149Y-77326385D01*
X55774435Y-77683528D02*
X55774435Y-78683528D01*
X55774435Y-77826385D02*
X55845864Y-77754957D01*
X55845864Y-77754957D02*
X55988721Y-77683528D01*
X55988721Y-77683528D02*
X56203007Y-77683528D01*
X56203007Y-77683528D02*
X56345864Y-77754957D01*
X56345864Y-77754957D02*
X56417293Y-77897814D01*
X56417293Y-77897814D02*
X56417293Y-78683528D01*
X57774436Y-78683528D02*
X57774436Y-77897814D01*
X57774436Y-77897814D02*
X57703007Y-77754957D01*
X57703007Y-77754957D02*
X57560150Y-77683528D01*
X57560150Y-77683528D02*
X57274436Y-77683528D01*
X57274436Y-77683528D02*
X57131578Y-77754957D01*
X57774436Y-78612100D02*
X57631578Y-78683528D01*
X57631578Y-78683528D02*
X57274436Y-78683528D01*
X57274436Y-78683528D02*
X57131578Y-78612100D01*
X57131578Y-78612100D02*
X57060150Y-78469242D01*
X57060150Y-78469242D02*
X57060150Y-78326385D01*
X57060150Y-78326385D02*
X57131578Y-78183528D01*
X57131578Y-78183528D02*
X57274436Y-78112100D01*
X57274436Y-78112100D02*
X57631578Y-78112100D01*
X57631578Y-78112100D02*
X57774436Y-78040671D01*
X58488721Y-78683528D02*
X58488721Y-77683528D01*
X58488721Y-77969242D02*
X58560150Y-77826385D01*
X58560150Y-77826385D02*
X58631579Y-77754957D01*
X58631579Y-77754957D02*
X58774436Y-77683528D01*
X58774436Y-77683528D02*
X58917293Y-77683528D01*
X59917292Y-77897814D02*
X59417292Y-77897814D01*
X59417292Y-78683528D02*
X59417292Y-77183528D01*
X59417292Y-77183528D02*
X60131578Y-77183528D01*
X60917292Y-78683528D02*
X60774435Y-78612100D01*
X60774435Y-78612100D02*
X60703006Y-78540671D01*
X60703006Y-78540671D02*
X60631578Y-78397814D01*
X60631578Y-78397814D02*
X60631578Y-77969242D01*
X60631578Y-77969242D02*
X60703006Y-77826385D01*
X60703006Y-77826385D02*
X60774435Y-77754957D01*
X60774435Y-77754957D02*
X60917292Y-77683528D01*
X60917292Y-77683528D02*
X61131578Y-77683528D01*
X61131578Y-77683528D02*
X61274435Y-77754957D01*
X61274435Y-77754957D02*
X61345864Y-77826385D01*
X61345864Y-77826385D02*
X61417292Y-77969242D01*
X61417292Y-77969242D02*
X61417292Y-78397814D01*
X61417292Y-78397814D02*
X61345864Y-78540671D01*
X61345864Y-78540671D02*
X61274435Y-78612100D01*
X61274435Y-78612100D02*
X61131578Y-78683528D01*
X61131578Y-78683528D02*
X60917292Y-78683528D01*
X62060149Y-78683528D02*
X62060149Y-77683528D01*
X62060149Y-77969242D02*
X62131578Y-77826385D01*
X62131578Y-77826385D02*
X62203007Y-77754957D01*
X62203007Y-77754957D02*
X62345864Y-77683528D01*
X62345864Y-77683528D02*
X62488721Y-77683528D01*
X63631578Y-77683528D02*
X63631578Y-78897814D01*
X63631578Y-78897814D02*
X63560149Y-79040671D01*
X63560149Y-79040671D02*
X63488720Y-79112100D01*
X63488720Y-79112100D02*
X63345863Y-79183528D01*
X63345863Y-79183528D02*
X63131578Y-79183528D01*
X63131578Y-79183528D02*
X62988720Y-79112100D01*
X63631578Y-78612100D02*
X63488720Y-78683528D01*
X63488720Y-78683528D02*
X63203006Y-78683528D01*
X63203006Y-78683528D02*
X63060149Y-78612100D01*
X63060149Y-78612100D02*
X62988720Y-78540671D01*
X62988720Y-78540671D02*
X62917292Y-78397814D01*
X62917292Y-78397814D02*
X62917292Y-77969242D01*
X62917292Y-77969242D02*
X62988720Y-77826385D01*
X62988720Y-77826385D02*
X63060149Y-77754957D01*
X63060149Y-77754957D02*
X63203006Y-77683528D01*
X63203006Y-77683528D02*
X63488720Y-77683528D01*
X63488720Y-77683528D02*
X63631578Y-77754957D01*
X64917292Y-78612100D02*
X64774435Y-78683528D01*
X64774435Y-78683528D02*
X64488721Y-78683528D01*
X64488721Y-78683528D02*
X64345863Y-78612100D01*
X64345863Y-78612100D02*
X64274435Y-78469242D01*
X64274435Y-78469242D02*
X64274435Y-77897814D01*
X64274435Y-77897814D02*
X64345863Y-77754957D01*
X64345863Y-77754957D02*
X64488721Y-77683528D01*
X64488721Y-77683528D02*
X64774435Y-77683528D01*
X64774435Y-77683528D02*
X64917292Y-77754957D01*
X64917292Y-77754957D02*
X64988721Y-77897814D01*
X64988721Y-77897814D02*
X64988721Y-78040671D01*
X64988721Y-78040671D02*
X64274435Y-78183528D01*
X67488720Y-78683528D02*
X66774434Y-78683528D01*
X66774434Y-78683528D02*
X66774434Y-77183528D01*
X67917292Y-78254957D02*
X68631578Y-78254957D01*
X67774435Y-78683528D02*
X68274435Y-77183528D01*
X68274435Y-77183528D02*
X68774435Y-78683528D01*
X69274434Y-78683528D02*
X69274434Y-77183528D01*
X69274434Y-77183528D02*
X69774434Y-78254957D01*
X69774434Y-78254957D02*
X70274434Y-77183528D01*
X70274434Y-77183528D02*
X70274434Y-78683528D01*
X70988720Y-78683528D02*
X70988720Y-77183528D01*
X70988720Y-77183528D02*
X71560149Y-77183528D01*
X71560149Y-77183528D02*
X71703006Y-77254957D01*
X71703006Y-77254957D02*
X71774435Y-77326385D01*
X71774435Y-77326385D02*
X71845863Y-77469242D01*
X71845863Y-77469242D02*
X71845863Y-77683528D01*
X71845863Y-77683528D02*
X71774435Y-77826385D01*
X71774435Y-77826385D02*
X71703006Y-77897814D01*
X71703006Y-77897814D02*
X71560149Y-77969242D01*
X71560149Y-77969242D02*
X70988720Y-77969242D01*
X73488720Y-77683528D02*
X73845863Y-78683528D01*
X73845863Y-78683528D02*
X74203006Y-77683528D01*
X75560149Y-78683528D02*
X74703006Y-78683528D01*
X75131577Y-78683528D02*
X75131577Y-77183528D01*
X75131577Y-77183528D02*
X74988720Y-77397814D01*
X74988720Y-77397814D02*
X74845863Y-77540671D01*
X74845863Y-77540671D02*
X74703006Y-77612100D01*
D11*
X55190476Y-47563855D02*
X54809524Y-47563855D01*
X54809524Y-47563855D02*
X54771428Y-47944807D01*
X54771428Y-47944807D02*
X54809524Y-47906712D01*
X54809524Y-47906712D02*
X54885714Y-47868617D01*
X54885714Y-47868617D02*
X55076190Y-47868617D01*
X55076190Y-47868617D02*
X55152381Y-47906712D01*
X55152381Y-47906712D02*
X55190476Y-47944807D01*
X55190476Y-47944807D02*
X55228571Y-48020998D01*
X55228571Y-48020998D02*
X55228571Y-48211474D01*
X55228571Y-48211474D02*
X55190476Y-48287664D01*
X55190476Y-48287664D02*
X55152381Y-48325760D01*
X55152381Y-48325760D02*
X55076190Y-48363855D01*
X55076190Y-48363855D02*
X54885714Y-48363855D01*
X54885714Y-48363855D02*
X54809524Y-48325760D01*
X54809524Y-48325760D02*
X54771428Y-48287664D01*
X34733333Y-47563855D02*
X35228571Y-47563855D01*
X35228571Y-47563855D02*
X34961905Y-47868617D01*
X34961905Y-47868617D02*
X35076190Y-47868617D01*
X35076190Y-47868617D02*
X35152381Y-47906712D01*
X35152381Y-47906712D02*
X35190476Y-47944807D01*
X35190476Y-47944807D02*
X35228571Y-48020998D01*
X35228571Y-48020998D02*
X35228571Y-48211474D01*
X35228571Y-48211474D02*
X35190476Y-48287664D01*
X35190476Y-48287664D02*
X35152381Y-48325760D01*
X35152381Y-48325760D02*
X35076190Y-48363855D01*
X35076190Y-48363855D02*
X34847619Y-48363855D01*
X34847619Y-48363855D02*
X34771428Y-48325760D01*
X34771428Y-48325760D02*
X34733333Y-48287664D01*
X65152381Y-47563855D02*
X65000000Y-47563855D01*
X65000000Y-47563855D02*
X64923809Y-47601950D01*
X64923809Y-47601950D02*
X64885714Y-47640045D01*
X64885714Y-47640045D02*
X64809524Y-47754331D01*
X64809524Y-47754331D02*
X64771428Y-47906712D01*
X64771428Y-47906712D02*
X64771428Y-48211474D01*
X64771428Y-48211474D02*
X64809524Y-48287664D01*
X64809524Y-48287664D02*
X64847619Y-48325760D01*
X64847619Y-48325760D02*
X64923809Y-48363855D01*
X64923809Y-48363855D02*
X65076190Y-48363855D01*
X65076190Y-48363855D02*
X65152381Y-48325760D01*
X65152381Y-48325760D02*
X65190476Y-48287664D01*
X65190476Y-48287664D02*
X65228571Y-48211474D01*
X65228571Y-48211474D02*
X65228571Y-48020998D01*
X65228571Y-48020998D02*
X65190476Y-47944807D01*
X65190476Y-47944807D02*
X65152381Y-47906712D01*
X65152381Y-47906712D02*
X65076190Y-47868617D01*
X65076190Y-47868617D02*
X64923809Y-47868617D01*
X64923809Y-47868617D02*
X64847619Y-47906712D01*
X64847619Y-47906712D02*
X64809524Y-47944807D01*
X64809524Y-47944807D02*
X64771428Y-48020998D01*
X15228571Y-48363855D02*
X14771428Y-48363855D01*
X15000000Y-48363855D02*
X15000000Y-47563855D01*
X15000000Y-47563855D02*
X14923809Y-47678140D01*
X14923809Y-47678140D02*
X14847619Y-47754331D01*
X14847619Y-47754331D02*
X14771428Y-47792426D01*
X45152381Y-47830521D02*
X45152381Y-48363855D01*
X44961905Y-47525760D02*
X44771428Y-48097188D01*
X44771428Y-48097188D02*
X45266667Y-48097188D01*
M02*
