M48
; DRILL file {KiCad 9.0.7} date 2026-03-03T14:47:43-0700
; FORMAT={-:-/ absolute / metric / decimal}
; #@! TF.CreationDate,2026-03-03T14:47:43-07:00
; #@! TF.GenerationSoftware,Kicad,Pcbnew,9.0.7
; #@! TF.FileFunction,MixedPlating,1,2
FMAT,2
METRIC
; #@! TA.AperFunction,Plated,PTH,ViaDrill
T1C0.300
; #@! TA.AperFunction,Plated,PTH,ComponentDrill
T2C1.000
; #@! TA.AperFunction,Plated,PTH,ComponentDrill
T3C3.200
%
G90
G05
T1
X1.5Y-1.5
X1.5Y-7.5
X1.5Y-9.5
X1.5Y-11.5
X1.5Y-15.5
X1.5Y-17.5
X1.5Y-27.5
X1.5Y-29.5
X1.5Y-31.5
X1.5Y-33.5
X1.5Y-35.5
X1.5Y-37.5
X1.5Y-39.5
X1.5Y-41.5
X1.5Y-43.5
X1.5Y-45.5
X1.5Y-47.5
X1.5Y-49.5
X1.5Y-51.5
X1.5Y-53.5
X1.5Y-55.5
X1.5Y-57.5
X1.5Y-59.5
X1.5Y-61.5
X1.5Y-63.5
X1.5Y-65.5
X1.5Y-67.5
X1.5Y-69.5
X1.5Y-71.5
X1.5Y-77.5
X1.674Y-24.581
X2.449Y-19.646
X3.5Y-9.5
X3.5Y-21.5
X3.5Y-23.5
X3.5Y-35.5
X3.5Y-37.5
X3.5Y-39.5
X3.5Y-41.5
X3.5Y-43.5
X3.5Y-45.5
X3.5Y-47.5
X3.5Y-49.5
X3.5Y-51.5
X3.5Y-53.5
X3.5Y-55.5
X3.5Y-57.5
X3.5Y-59.5
X3.5Y-61.5
X3.5Y-63.5
X3.5Y-65.5
X3.5Y-67.5
X3.5Y-69.5
X4.314Y-16.493
X5.5Y-13.5
X5.5Y-15.5
X5.5Y-19.5
X5.5Y-21.5
X5.5Y-23.5
X5.5Y-25.5
X5.5Y-29.5
X5.5Y-37.5
X5.5Y-51.5
X5.5Y-53.5
X5.5Y-55.5
X5.5Y-57.5
X5.5Y-59.5
X5.5Y-61.5
X5.5Y-63.5
X5.5Y-65.5
X5.5Y-67.5
X5.5Y-69.5
X6.357Y-39.077
X7.268Y-37.028
X7.268Y-48.911
X7.5Y-1.5
X7.5Y-13.5
X7.5Y-15.5
X7.5Y-17.5
X7.5Y-19.5
X7.5Y-23.5
X7.5Y-27.5
X7.5Y-41.5
X7.5Y-43.5
X7.5Y-45.5
X7.5Y-47.5
X7.5Y-51.5
X7.5Y-53.5
X7.5Y-55.5
X7.5Y-57.5
X7.5Y-59.5
X7.5Y-61.5
X7.5Y-63.5
X7.5Y-65.5
X7.5Y-67.5
X7.5Y-69.5
X7.5Y-71.5
X9.5Y-1.5
X9.5Y-7.5
X9.5Y-13.5
X9.5Y-15.5
X9.5Y-17.5
X9.5Y-19.5
X9.5Y-21.5
X9.5Y-23.5
X9.5Y-25.5
X9.5Y-27.5
X9.5Y-29.5
X9.5Y-31.5
X9.5Y-35.5
X9.5Y-39.5
X9.5Y-41.5
X9.5Y-43.5
X9.5Y-45.5
X9.5Y-47.5
X9.5Y-49.5
X9.5Y-51.5
X9.5Y-53.5
X9.5Y-55.5
X9.5Y-57.5
X9.5Y-59.5
X9.5Y-61.5
X9.5Y-63.5
X9.5Y-65.5
X9.5Y-67.5
X9.5Y-69.5
X9.5Y-71.5
X9.5Y-73.5
X9.5Y-75.5
X9.5Y-77.5
X11.5Y-1.5
X11.5Y-13.5
X11.5Y-15.5
X11.5Y-17.5
X11.5Y-19.5
X11.5Y-21.5
X11.5Y-47.5
X11.5Y-49.5
X11.5Y-51.5
X11.5Y-53.5
X11.5Y-55.5
X11.5Y-57.5
X11.5Y-63.5
X11.5Y-65.5
X11.5Y-67.5
X11.5Y-69.5
X11.5Y-71.5
X11.5Y-73.5
X11.5Y-75.5
X11.5Y-77.5
X12.269Y-1.933
X12.754Y-7.077
X13.162Y-36.472
X13.5Y-39.5
X13.5Y-41.5
X13.5Y-47.5
X13.5Y-49.5
X13.5Y-51.5
X13.5Y-53.5
X13.5Y-55.5
X13.5Y-57.5
X13.5Y-59.5
X13.5Y-61.5
X13.5Y-63.5
X13.5Y-65.5
X13.5Y-67.5
X13.5Y-69.5
X13.5Y-71.5
X13.5Y-73.5
X13.5Y-75.5
X13.5Y-77.5
X13.627Y-28.635
X13.693Y-25.281
X14.226Y-34.486
X14.228Y-8.155
X15.199Y-11.074
X15.5Y-9.5
X15.5Y-23.5
X15.5Y-25.5
X15.5Y-27.5
X15.5Y-39.5
X15.5Y-41.5
X15.5Y-43.5
X15.5Y-47.5
X15.5Y-49.5
X15.5Y-51.5
X15.5Y-53.5
X15.5Y-55.5
X15.5Y-57.5
X15.5Y-59.5
X15.5Y-61.5
X15.5Y-63.5
X15.5Y-65.5
X15.5Y-67.5
X15.5Y-69.5
X15.5Y-71.5
X15.5Y-73.5
X15.5Y-75.5
X15.5Y-77.5
X15.519Y-31.175
X15.818Y-22.177
X16.736Y-34.572
X17.139Y-30.401
X17.5Y-1.5
X17.5Y-39.5
X17.5Y-41.5
X17.5Y-43.5
X17.5Y-47.5
X17.5Y-49.5
X17.5Y-51.5
X17.5Y-53.5
X17.5Y-55.5
X17.5Y-59.5
X17.5Y-61.5
X17.5Y-63.5
X17.5Y-65.5
X17.5Y-67.5
X17.5Y-69.5
X17.5Y-71.5
X17.5Y-73.5
X17.5Y-75.5
X17.5Y-77.5
X18.008Y-27.623
X18.149Y-34.507
X18.816Y-37.031
X19.39Y-7.58
X19.5Y-1.5
X19.5Y-3.5
X19.5Y-13.5
X19.5Y-15.5
X19.5Y-23.5
X19.5Y-25.5
X19.5Y-29.5
X19.5Y-39.5
X19.5Y-41.5
X19.5Y-43.5
X19.5Y-47.5
X19.5Y-49.5
X19.5Y-51.5
X19.5Y-53.5
X19.5Y-55.5
X19.5Y-65.5
X19.5Y-67.5
X19.5Y-69.5
X19.5Y-71.5
X19.5Y-73.5
X19.5Y-75.5
X19.5Y-77.5
X19.925Y-31.871
X20.044Y-8.202
X21.5Y-1.5
X21.5Y-3.5
X21.5Y-5.5
X21.5Y-11.5
X21.5Y-13.5
X21.5Y-23.5
X21.5Y-27.5
X21.5Y-37.5
X21.5Y-39.5
X21.5Y-43.5
X21.5Y-47.5
X21.5Y-49.5
X21.5Y-51.5
X21.5Y-53.5
X21.5Y-55.5
X21.5Y-63.5
X21.5Y-65.5
X21.5Y-67.5
X21.5Y-69.5
X21.5Y-71.5
X21.5Y-73.5
X21.5Y-75.5
X21.5Y-77.5
X22.003Y-15.876
X22.003Y-57.822
X22.713Y-41.042
X23.5Y-1.5
X23.5Y-3.5
X23.5Y-5.5
X23.5Y-9.5
X23.5Y-11.5
X23.5Y-13.5
X23.5Y-15.5
X23.5Y-17.5
X23.5Y-19.5
X23.5Y-21.5
X23.5Y-25.5
X23.5Y-27.5
X23.5Y-37.5
X23.5Y-39.5
X23.5Y-41.5
X23.5Y-43.5
X23.5Y-47.5
X23.5Y-49.5
X23.5Y-51.5
X23.5Y-53.5
X23.5Y-55.5
X23.5Y-57.5
X23.5Y-59.5
X23.5Y-61.5
X23.5Y-63.5
X23.5Y-65.5
X23.5Y-67.5
X23.5Y-69.5
X23.5Y-71.5
X23.5Y-73.5
X23.5Y-75.5
X23.5Y-77.5
X24.892Y-10.237
X24.95Y-1.935
X25.5Y-3.5
X25.5Y-5.5
X25.5Y-9.5
X25.5Y-11.5
X25.5Y-13.5
X25.5Y-15.5
X25.5Y-19.5
X25.5Y-23.5
X25.5Y-25.5
X25.5Y-27.5
X25.5Y-37.5
X25.5Y-39.5
X25.5Y-41.5
X25.5Y-43.5
X25.5Y-47.5
X25.5Y-49.5
X25.5Y-51.5
X25.5Y-53.5
X25.5Y-55.5
X25.5Y-57.5
X25.5Y-59.5
X25.5Y-61.5
X25.5Y-63.5
X25.5Y-65.5
X25.5Y-67.5
X25.5Y-69.5
X25.5Y-71.5
X25.5Y-73.5
X25.5Y-75.5
X25.5Y-77.5
X27.5Y-3.5
X27.5Y-5.5
X27.5Y-7.5
X27.5Y-39.5
X27.5Y-41.5
X27.5Y-43.5
X27.5Y-47.5
X27.5Y-49.5
X27.5Y-51.5
X27.5Y-53.5
X27.5Y-55.5
X27.5Y-59.5
X27.5Y-63.5
X27.5Y-65.5
X27.5Y-67.5
X27.5Y-69.5
X27.5Y-71.5
X27.5Y-73.5
X27.5Y-75.5
X27.5Y-77.5
X27.642Y-37.029
X28.96Y-56.868
X29.5Y-3.5
X29.5Y-7.5
X29.5Y-11.5
X29.5Y-17.5
X29.5Y-23.5
X29.5Y-25.5
X29.5Y-63.5
X29.5Y-65.5
X29.5Y-67.5
X29.5Y-69.5
X29.5Y-71.5
X29.5Y-73.5
X29.5Y-75.5
X29.5Y-77.5
X29.851Y-12.704
X29.95Y-61.0
X30.435Y-42.042
X31.148Y-57.818
X31.312Y-27.776
X31.5Y-3.5
X31.5Y-9.5
X31.5Y-11.5
X31.5Y-13.5
X31.5Y-17.5
X31.5Y-23.5
X31.5Y-25.5
X31.5Y-31.5
X31.5Y-33.5
X31.5Y-39.5
X31.5Y-63.5
X31.5Y-65.5
X31.5Y-67.5
X31.5Y-69.5
X31.5Y-71.5
X31.5Y-73.5
X31.5Y-75.5
X31.5Y-77.5
X33.5Y-11.5
X33.5Y-13.5
X33.5Y-17.5
X33.5Y-23.5
X33.5Y-25.5
X33.5Y-29.5
X33.5Y-33.5
X33.5Y-37.5
X33.5Y-39.5
X33.5Y-41.5
X33.5Y-43.5
X33.5Y-47.5
X33.5Y-49.5
X33.5Y-51.5
X33.5Y-53.5
X33.5Y-55.5
X33.5Y-59.5
X33.5Y-61.5
X33.5Y-63.5
X33.5Y-65.5
X33.5Y-67.5
X33.5Y-69.5
X33.5Y-71.5
X33.5Y-73.5
X33.5Y-75.5
X33.5Y-77.5
X33.792Y-10.309
X34.152Y-30.666
X35.5Y-9.5
X35.5Y-13.5
X35.5Y-23.5
X35.5Y-25.5
X35.5Y-31.5
X35.5Y-33.5
X35.5Y-37.5
X35.5Y-39.5
X35.5Y-41.5
X35.5Y-43.5
X35.5Y-47.5
X35.5Y-49.5
X35.5Y-51.5
X35.5Y-53.5
X35.5Y-55.5
X35.5Y-57.5
X35.5Y-59.5
X35.5Y-61.5
X35.5Y-63.5
X35.5Y-65.5
X35.5Y-67.5
X35.5Y-69.5
X35.5Y-71.5
X35.5Y-73.5
X35.5Y-75.5
X35.5Y-77.5
X36.739Y-37.046
X37.356Y-1.935
X37.5Y-9.5
X37.5Y-13.5
X37.5Y-17.5
X37.5Y-23.5
X37.5Y-25.5
X37.5Y-29.5
X37.5Y-31.5
X37.5Y-33.5
X37.5Y-39.5
X37.5Y-41.5
X37.5Y-43.5
X37.5Y-47.5
X37.5Y-61.5
X37.5Y-63.5
X37.5Y-65.5
X37.5Y-67.5
X37.5Y-69.5
X37.5Y-71.5
X37.5Y-73.5
X37.5Y-75.5
X37.5Y-77.5
X37.723Y-6.743
X39.5Y-9.5
X39.5Y-13.5
X39.5Y-17.5
X39.5Y-23.5
X39.5Y-25.5
X39.5Y-29.5
X39.5Y-31.5
X39.5Y-49.5
X39.5Y-51.5
X39.5Y-53.5
X39.5Y-55.5
X39.5Y-63.5
X39.5Y-65.5
X39.5Y-67.5
X39.5Y-69.5
X39.5Y-71.5
X39.5Y-73.5
X39.5Y-75.5
X39.5Y-77.5
X39.633Y-7.408
X39.686Y-1.935
X41.5Y-7.5
X41.5Y-9.5
X41.5Y-13.5
X41.5Y-17.5
X41.5Y-23.5
X41.5Y-25.5
X41.5Y-29.5
X41.5Y-31.5
X41.5Y-41.5
X41.5Y-47.5
X41.5Y-49.5
X41.5Y-51.5
X41.5Y-53.5
X41.5Y-57.5
X41.5Y-63.5
X41.5Y-65.5
X41.5Y-67.5
X41.5Y-69.5
X41.5Y-71.5
X41.5Y-73.5
X41.5Y-75.5
X41.5Y-77.5
X42.633Y-16.168
X42.633Y-40.042
X42.633Y-57.822
X43.42Y-19.469
X43.42Y-37.029
X43.5Y-5.5
X43.5Y-7.5
X43.5Y-13.5
X43.5Y-15.5
X43.5Y-17.5
X43.5Y-39.5
X43.5Y-41.5
X43.5Y-43.5
X43.5Y-47.5
X43.5Y-49.5
X43.5Y-51.5
X43.5Y-53.5
X43.5Y-55.5
X43.5Y-57.5
X43.5Y-59.5
X43.5Y-61.5
X43.5Y-63.5
X43.5Y-65.5
X43.5Y-67.5
X43.5Y-69.5
X43.5Y-71.5
X43.5Y-73.5
X43.5Y-75.5
X43.5Y-77.5
X43.741Y-21.274
X44.7Y-36.43
X45.5Y-5.5
X45.5Y-7.5
X45.5Y-13.5
X45.5Y-15.5
X45.5Y-17.5
X45.5Y-19.5
X45.5Y-21.5
X45.5Y-39.5
X45.5Y-41.5
X45.5Y-43.5
X45.5Y-47.5
X45.5Y-49.5
X45.5Y-51.5
X45.5Y-53.5
X45.5Y-55.5
X45.5Y-57.5
X45.5Y-59.5
X45.5Y-61.5
X45.5Y-63.5
X45.5Y-65.5
X45.5Y-67.5
X45.5Y-69.5
X45.5Y-71.5
X45.5Y-73.5
X45.5Y-75.5
X45.5Y-77.5
X45.578Y-36.237
X46.023Y-37.219
X47.5Y-5.5
X47.5Y-7.5
X47.5Y-39.5
X47.5Y-41.5
X47.5Y-43.5
X47.5Y-47.5
X47.5Y-49.5
X47.5Y-51.5
X47.5Y-53.5
X47.5Y-55.5
X47.5Y-59.5
X47.5Y-61.5
X47.5Y-63.5
X47.5Y-65.5
X47.5Y-67.5
X47.5Y-69.5
X47.5Y-71.5
X47.5Y-73.5
X47.5Y-75.5
X47.5Y-77.5
X47.636Y-16.936
X48.302Y-9.821
X48.319Y-28.472
X48.527Y-31.018
X48.527Y-55.644
X49.255Y-19.212
X49.348Y-31.812
X49.5Y-5.5
X49.5Y-7.5
X49.5Y-39.5
X49.5Y-47.5
X49.5Y-49.5
X49.5Y-51.5
X49.5Y-53.5
X49.5Y-55.5
X49.5Y-63.5
X49.5Y-65.5
X49.5Y-67.5
X49.5Y-69.5
X49.5Y-71.5
X49.5Y-73.5
X49.5Y-75.5
X49.5Y-77.5
X49.546Y-12.804
X49.56Y-16.968
X50.35Y-48.911
X50.8Y-55.644
X51.175Y-28.051
X51.5Y-5.5
X51.5Y-7.5
X51.5Y-19.5
X51.5Y-21.5
X51.5Y-23.5
X51.5Y-25.5
X51.5Y-63.5
X51.5Y-65.5
X51.5Y-67.5
X51.5Y-69.5
X51.5Y-71.5
X51.5Y-73.5
X51.5Y-75.5
X51.5Y-77.5
X51.699Y-40.042
X51.699Y-57.822
X51.847Y-36.868
X52.274Y-61.414
X52.444Y-28.054
X52.502Y-56.93
X52.775Y-54.852
X53.22Y-14.924
X53.499Y-25.766
X53.5Y-5.5
X53.5Y-7.5
X53.5Y-39.5
X53.5Y-41.5
X53.5Y-43.5
X53.5Y-47.5
X53.5Y-49.5
X53.5Y-51.5
X53.5Y-53.5
X53.5Y-57.5
X53.5Y-59.5
X53.5Y-61.5
X53.5Y-63.5
X53.5Y-65.5
X53.5Y-67.5
X53.5Y-69.5
X53.5Y-71.5
X53.5Y-73.5
X53.5Y-75.5
X53.5Y-77.5
X54.8Y-11.19
X55.5Y-5.5
X55.5Y-7.5
X55.5Y-11.5
X55.5Y-13.5
X55.5Y-17.5
X55.5Y-19.5
X55.5Y-21.5
X55.5Y-23.5
X55.5Y-39.5
X55.5Y-41.5
X55.5Y-43.5
X55.5Y-47.5
X55.5Y-49.5
X55.5Y-51.5
X55.5Y-53.5
X55.5Y-57.5
X55.5Y-59.5
X55.5Y-61.5
X55.5Y-63.5
X55.5Y-65.5
X55.5Y-67.5
X55.5Y-69.5
X55.5Y-71.5
X55.5Y-73.5
X55.5Y-75.5
X55.5Y-77.5
X57.5Y-5.5
X57.5Y-7.5
X57.5Y-11.5
X57.5Y-13.5
X57.5Y-17.5
X57.5Y-19.5
X57.5Y-21.5
X57.5Y-23.5
X57.5Y-25.5
X57.5Y-27.5
X57.5Y-31.5
X57.5Y-33.5
X57.5Y-39.5
X57.5Y-41.5
X57.5Y-43.5
X57.5Y-47.5
X57.5Y-49.5
X57.5Y-51.5
X57.5Y-53.5
X57.5Y-59.5
X57.5Y-61.5
X57.5Y-63.5
X57.5Y-65.5
X57.5Y-67.5
X57.5Y-69.5
X57.5Y-71.5
X57.5Y-73.5
X57.5Y-75.5
X57.5Y-77.5
X59.421Y-42.042
X59.5Y-5.5
X59.5Y-7.5
X59.5Y-13.5
X59.5Y-17.5
X59.5Y-19.5
X59.5Y-21.5
X59.5Y-23.5
X59.5Y-25.5
X59.5Y-27.5
X59.5Y-31.5
X59.5Y-33.5
X59.5Y-37.5
X59.5Y-39.5
X59.5Y-63.5
X59.5Y-65.5
X59.5Y-67.5
X59.5Y-69.5
X59.5Y-71.5
X59.5Y-73.5
X59.5Y-75.5
X59.5Y-77.5
X59.95Y-61.0
X60.316Y-63.974
X60.92Y-48.911
X61.5Y-3.5
X61.5Y-7.5
X61.5Y-9.5
X61.5Y-11.5
X61.5Y-13.5
X61.5Y-17.5
X61.5Y-19.5
X61.5Y-21.5
X61.5Y-23.5
X61.5Y-25.5
X61.5Y-27.5
X61.5Y-31.5
X61.5Y-33.5
X61.5Y-37.5
X61.5Y-39.5
X61.5Y-41.5
X61.5Y-43.5
X61.5Y-47.5
X61.5Y-49.5
X61.5Y-51.5
X61.5Y-53.5
X61.5Y-57.5
X61.5Y-65.5
X61.5Y-67.5
X61.5Y-69.5
X61.5Y-71.5
X61.5Y-73.5
X61.5Y-75.5
X61.5Y-77.5
X63.5Y-3.5
X63.5Y-5.5
X63.5Y-13.5
X63.5Y-17.5
X63.5Y-19.5
X63.5Y-21.5
X63.5Y-23.5
X63.5Y-25.5
X63.5Y-27.5
X63.5Y-31.5
X63.5Y-33.5
X63.5Y-37.5
X63.5Y-39.5
X63.5Y-41.5
X63.5Y-43.5
X63.5Y-47.5
X63.5Y-49.5
X63.5Y-51.5
X63.5Y-53.5
X63.5Y-57.5
X63.5Y-59.5
X63.5Y-61.5
X63.5Y-63.5
X63.5Y-65.5
X63.5Y-67.5
X63.5Y-69.5
X63.5Y-71.5
X63.5Y-73.5
X63.5Y-75.5
X63.5Y-77.5
X65.5Y-3.5
X65.5Y-5.5
X65.5Y-7.5
X65.5Y-13.5
X65.5Y-17.5
X65.5Y-19.5
X65.5Y-21.5
X65.5Y-23.5
X65.5Y-25.5
X65.5Y-27.5
X65.5Y-31.5
X65.5Y-33.5
X65.5Y-37.5
X65.5Y-39.5
X65.5Y-41.5
X65.5Y-43.5
X65.5Y-47.5
X65.5Y-49.5
X65.5Y-51.5
X65.5Y-53.5
X65.5Y-55.5
X65.5Y-57.5
X65.5Y-59.5
X65.5Y-61.5
X65.5Y-63.5
X65.5Y-65.5
X65.5Y-67.5
X65.5Y-69.5
X65.5Y-71.5
X65.5Y-73.5
X65.5Y-75.5
X65.5Y-77.5
X67.5Y-3.5
X67.5Y-7.5
X67.5Y-9.5
X67.5Y-13.5
X67.5Y-17.5
X67.5Y-19.5
X67.5Y-21.5
X67.5Y-23.5
X67.5Y-25.5
X67.5Y-27.5
X67.5Y-31.5
X67.5Y-33.5
X67.5Y-47.5
X67.5Y-49.5
X67.5Y-51.5
X67.5Y-53.5
X67.5Y-55.5
X67.5Y-61.5
X67.5Y-63.5
X67.5Y-65.5
X67.5Y-67.5
X67.5Y-69.5
X67.5Y-71.5
X67.5Y-73.5
X67.5Y-75.5
X67.5Y-77.5
X69.5Y-3.5
X69.5Y-7.5
X69.5Y-9.5
X69.5Y-19.5
X69.5Y-21.5
X69.5Y-23.5
X69.5Y-25.5
X69.5Y-27.5
X69.5Y-31.5
X69.5Y-33.5
X69.5Y-39.5
X69.5Y-47.5
X69.5Y-49.5
X69.5Y-51.5
X69.5Y-53.5
X69.5Y-55.5
X69.5Y-63.5
X69.5Y-65.5
X69.5Y-67.5
X69.5Y-69.5
X69.5Y-71.5
X69.5Y-73.5
X69.5Y-75.5
X69.5Y-77.5
X70.04Y-41.042
X71.5Y-3.5
X71.5Y-7.5
X71.5Y-9.5
X71.5Y-15.5
X71.5Y-17.5
X71.5Y-19.5
X71.5Y-21.5
X71.5Y-23.5
X71.5Y-25.5
X71.5Y-27.5
X71.5Y-31.5
X71.5Y-33.5
X71.5Y-37.5
X71.5Y-39.5
X71.5Y-41.5
X71.5Y-43.5
X71.5Y-47.5
X71.5Y-49.5
X71.5Y-51.5
X71.5Y-53.5
X71.5Y-55.5
X71.5Y-63.5
X71.5Y-65.5
X71.5Y-67.5
X71.5Y-69.5
X71.5Y-71.5
X71.5Y-73.5
X71.5Y-75.5
X71.5Y-77.5
X72.104Y-57.822
X73.5Y-7.5
X73.5Y-9.5
X73.5Y-17.5
X73.5Y-19.5
X73.5Y-21.5
X73.5Y-23.5
X73.5Y-25.5
X73.5Y-27.5
X73.5Y-31.5
X73.5Y-33.5
X73.5Y-37.5
X73.5Y-39.5
X73.5Y-41.5
X73.5Y-43.5
X73.5Y-47.5
X73.5Y-49.5
X73.5Y-51.5
X73.5Y-53.5
X73.5Y-55.5
X73.5Y-57.5
X73.5Y-59.5
X73.5Y-61.5
X73.5Y-63.5
X73.5Y-65.5
X73.5Y-67.5
X73.5Y-69.5
X73.5Y-71.5
X73.5Y-73.5
X73.5Y-75.5
X73.5Y-77.5
X75.051Y-45.94
X75.5Y-5.5
X75.5Y-7.5
X75.5Y-9.5
X75.5Y-47.5
X75.5Y-49.5
X75.5Y-51.5
X75.5Y-53.5
X75.5Y-55.5
X75.5Y-57.5
X75.5Y-59.5
X75.5Y-61.5
X75.5Y-63.5
X75.5Y-65.5
X75.5Y-67.5
X75.5Y-69.5
X75.5Y-71.5
X75.5Y-73.5
X75.5Y-75.5
X75.5Y-77.5
X77.5Y-5.5
X77.5Y-7.5
X77.5Y-9.5
X77.5Y-13.5
X77.5Y-19.5
X77.5Y-21.5
X77.5Y-23.5
X77.5Y-25.5
X77.5Y-59.5
X77.5Y-61.5
X77.5Y-63.5
X77.5Y-65.5
X77.5Y-67.5
X77.5Y-69.5
X77.5Y-71.5
X77.5Y-73.5
X77.5Y-75.5
X77.5Y-77.5
X77.998Y-16.076
X77.998Y-28.118
X77.998Y-54.852
X79.5Y-1.5
X79.5Y-3.5
X79.5Y-7.5
X79.5Y-9.5
X79.5Y-13.5
X79.5Y-15.5
X79.5Y-19.5
X79.5Y-21.5
X79.5Y-23.5
X79.5Y-25.5
X79.5Y-27.5
X79.5Y-31.5
X79.5Y-33.5
X79.5Y-35.5
X79.5Y-39.5
X79.5Y-41.5
X79.5Y-47.5
X79.5Y-51.5
X79.5Y-53.5
X79.5Y-55.5
X79.5Y-63.5
X79.5Y-65.5
X79.5Y-67.5
X79.5Y-69.5
X79.5Y-71.5
X79.5Y-73.5
X79.5Y-75.5
X79.5Y-77.5
X80.945Y-31.088
X81.5Y-1.5
X81.5Y-3.5
X81.5Y-13.5
X81.5Y-15.5
X81.5Y-19.5
X81.5Y-21.5
X81.5Y-23.5
X81.5Y-25.5
X81.5Y-27.5
X81.5Y-29.5
X81.5Y-33.5
X81.5Y-35.5
X81.5Y-37.5
X81.5Y-39.5
X81.5Y-41.5
X81.5Y-43.5
X81.5Y-45.5
X81.5Y-63.5
X81.5Y-65.5
X81.5Y-67.5
X81.5Y-69.5
X81.5Y-71.5
X81.5Y-73.5
X81.5Y-75.5
X81.5Y-77.5
X83.5Y-1.5
X83.5Y-3.5
X83.5Y-5.5
X83.5Y-7.5
X83.5Y-13.5
X83.5Y-17.5
X83.5Y-21.5
X83.5Y-23.5
X83.5Y-25.5
X83.5Y-27.5
X83.5Y-29.5
X83.5Y-31.5
X83.5Y-33.5
X83.5Y-35.5
X83.5Y-37.5
X83.5Y-39.5
X83.5Y-41.5
X83.5Y-43.5
X83.5Y-45.5
X83.5Y-47.5
X83.5Y-49.5
X83.5Y-51.5
X83.5Y-53.5
X83.5Y-55.5
X83.5Y-59.5
X83.5Y-61.5
X83.5Y-63.5
X83.5Y-65.5
X83.5Y-67.5
X83.5Y-69.5
X83.5Y-71.5
X83.5Y-73.5
X83.5Y-75.5
X83.5Y-77.5
X83.892Y-57.822
X85.5Y-1.5
X85.5Y-3.5
X85.5Y-5.5
X85.5Y-7.5
X85.5Y-9.5
X85.5Y-21.5
X85.5Y-23.5
X85.5Y-25.5
X85.5Y-27.5
X85.5Y-29.5
X85.5Y-31.5
X85.5Y-33.5
X85.5Y-35.5
X85.5Y-37.5
X85.5Y-39.5
X85.5Y-41.5
X85.5Y-43.5
X85.5Y-45.5
X85.5Y-47.5
X85.5Y-49.5
X85.5Y-51.5
X85.5Y-53.5
X85.5Y-55.5
X85.5Y-59.5
X85.5Y-61.5
X85.5Y-63.5
X85.5Y-65.5
X85.5Y-67.5
X85.5Y-69.5
X85.5Y-71.5
X85.5Y-73.5
X85.5Y-75.5
X85.5Y-77.5
X87.5Y-1.5
X87.5Y-3.5
X87.5Y-5.5
X87.5Y-33.5
X87.5Y-35.5
X87.5Y-37.5
X87.5Y-39.5
X87.5Y-41.5
X87.5Y-43.5
X87.5Y-45.5
X87.5Y-47.5
X87.5Y-49.5
X87.5Y-51.5
X87.5Y-53.5
X87.5Y-55.5
X87.5Y-59.5
X87.5Y-61.5
X87.5Y-63.5
X87.5Y-65.5
X87.5Y-67.5
X87.5Y-69.5
X87.5Y-71.5
X87.5Y-73.5
X87.5Y-75.5
X87.5Y-77.5
X89.5Y-1.5
X89.5Y-7.5
X89.5Y-9.5
X89.5Y-19.5
X89.5Y-21.5
X89.5Y-23.5
X89.5Y-25.5
X89.5Y-27.5
X89.5Y-31.5
X89.5Y-33.5
X89.5Y-35.5
X89.5Y-37.5
X89.5Y-39.5
X89.5Y-41.5
X89.5Y-43.5
X89.5Y-45.5
X89.5Y-47.5
X89.5Y-49.5
X89.5Y-51.5
X89.5Y-53.5
X89.5Y-55.5
X89.5Y-63.5
X89.5Y-65.5
X89.5Y-67.5
X89.5Y-69.5
X89.5Y-71.5
X89.5Y-73.5
X89.5Y-75.5
X89.5Y-77.5
X91.5Y-1.5
X91.5Y-7.5
X91.5Y-9.5
X91.5Y-13.5
X91.5Y-33.5
X91.5Y-35.5
X91.5Y-37.5
X91.5Y-39.5
X91.5Y-41.5
X91.5Y-43.5
X91.5Y-45.5
X91.5Y-47.5
X91.5Y-49.5
X91.5Y-51.5
X91.5Y-53.5
X91.5Y-55.5
X91.5Y-57.5
X91.5Y-59.5
X91.5Y-61.5
X91.5Y-63.5
X91.5Y-65.5
X91.5Y-67.5
X91.5Y-69.5
X91.5Y-71.5
X91.5Y-77.5
X93.5Y-9.5
X93.5Y-11.5
X93.5Y-13.5
X93.5Y-17.5
X93.5Y-19.5
X93.5Y-21.5
X93.5Y-23.5
X93.5Y-25.5
X93.5Y-27.5
X93.5Y-31.5
X93.5Y-33.5
X93.5Y-35.5
X93.5Y-37.5
X93.5Y-39.5
X93.5Y-41.5
X93.5Y-43.5
X93.5Y-45.5
X93.5Y-47.5
X93.5Y-49.5
X93.5Y-51.5
X93.5Y-53.5
X93.5Y-55.5
X93.5Y-57.5
X93.5Y-59.5
X93.5Y-61.5
X93.5Y-63.5
X93.5Y-65.5
X93.5Y-67.5
X93.5Y-69.5
X95.5Y-9.5
X95.5Y-11.5
X95.5Y-13.5
X95.5Y-17.5
X95.5Y-19.5
X95.5Y-21.5
X95.5Y-23.5
X95.5Y-25.5
X95.5Y-27.5
X95.5Y-29.5
X95.5Y-31.5
X95.5Y-33.5
X95.5Y-35.5
X95.5Y-37.5
X95.5Y-39.5
X95.5Y-41.5
X95.5Y-43.5
X95.5Y-45.5
X95.5Y-47.5
X95.5Y-49.5
X95.5Y-51.5
X95.5Y-53.5
X95.5Y-55.5
X95.5Y-57.5
X95.5Y-59.5
X95.5Y-61.5
X95.5Y-63.5
X95.5Y-65.5
X95.5Y-67.5
X95.5Y-69.5
X97.5Y-1.5
X97.5Y-9.5
X97.5Y-11.5
X97.5Y-13.5
X97.5Y-15.5
X97.5Y-17.5
X97.5Y-19.5
X97.5Y-21.5
X97.5Y-23.5
X97.5Y-25.5
X97.5Y-27.5
X97.5Y-29.5
X97.5Y-31.5
X97.5Y-33.5
X97.5Y-35.5
X97.5Y-37.5
X97.5Y-39.5
X97.5Y-41.5
X97.5Y-43.5
X97.5Y-45.5
X97.5Y-47.5
X97.5Y-49.5
X97.5Y-51.5
X97.5Y-53.5
X97.5Y-55.5
X97.5Y-57.5
X97.5Y-59.5
X97.5Y-61.5
X97.5Y-63.5
X97.5Y-65.5
X97.5Y-67.5
X97.5Y-69.5
X97.5Y-71.5
T2
X3.5Y-26.19
X3.5Y-28.73
X3.5Y-31.27
X3.5Y-33.81
X60.0Y-8.73
X60.0Y-11.27
X65.0Y-8.73
X65.0Y-11.27
T3
X5.0Y-5.0
X5.0Y-75.0
X95.0Y-5.0
X95.0Y-75.0
M30
