G04 #@! TF.GenerationSoftware,KiCad,Pcbnew,9.0.7*
G04 #@! TF.CreationDate,2026-04-22T01:26:52-05:00*
G04 #@! TF.ProjectId,teer_readout,74656572-5f72-4656-9164-6f75742e6b69,rev?*
G04 #@! TF.SameCoordinates,Original*
G04 #@! TF.FileFunction,Soldermask,Top*
G04 #@! TF.FilePolarity,Negative*
%FSLAX46Y46*%
G04 Gerber Fmt 4.6, Leading zero omitted, Abs format (unit mm)*
G04 Created by KiCad (PCBNEW 9.0.7) date 2026-04-22 01:26:52*
%MOMM*%
%LPD*%
G01*
G04 APERTURE LIST*
%ADD10C,6.350000*%
%ADD11R,0.550000X0.300000*%
%ADD12R,0.300000X0.550000*%
%ADD13R,3.100000X3.100000*%
%ADD14R,1.300000X0.300000*%
%ADD15R,0.300000X1.300000*%
%ADD16R,0.600000X0.350000*%
%ADD17R,0.350000X0.600000*%
%ADD18R,0.950000X0.950000*%
%ADD19R,1.200000X1.400000*%
%ADD20C,1.700000*%
%ADD21C,0.900000*%
G04 APERTURE END LIST*
D10*
G04 #@! TO.C,H1*
X18000000Y-4000000D03*
G04 #@! TD*
G04 #@! TO.C,H2*
X76000000Y-4000000D03*
G04 #@! TD*
G04 #@! TO.C,H3*
X18000000Y-56000000D03*
G04 #@! TD*
G04 #@! TO.C,H4*
X76000000Y-56000000D03*
G04 #@! TD*
D11*
G04 #@! TO.C,U1*
X37600000Y-28250000D03*
X37600000Y-28750000D03*
X37600000Y-29250000D03*
X37600000Y-29750000D03*
X37600000Y-30250000D03*
X37600000Y-30750000D03*
X37600000Y-31250000D03*
X37600000Y-31750000D03*
D12*
X38250000Y-32400000D03*
X38750000Y-32400000D03*
X39250000Y-32400000D03*
X39750000Y-32400000D03*
X40250000Y-32400000D03*
X40750000Y-32400000D03*
X41250000Y-32400000D03*
X41750000Y-32400000D03*
D11*
X42400000Y-31750000D03*
X42400000Y-31250000D03*
X42400000Y-30750000D03*
X42400000Y-30250000D03*
X42400000Y-29750000D03*
X42400000Y-29250000D03*
X42400000Y-28750000D03*
X42400000Y-28250000D03*
D12*
X41750000Y-27600000D03*
X41250000Y-27600000D03*
X40750000Y-27600000D03*
X40250000Y-27600000D03*
X39750000Y-27600000D03*
X39250000Y-27600000D03*
X38750000Y-27600000D03*
X38250000Y-27600000D03*
D13*
X40000000Y-30000000D03*
G04 #@! TD*
D14*
G04 #@! TO.C,U2*
X16300000Y-12250000D03*
X16300000Y-12750000D03*
X16300000Y-13250000D03*
X16300000Y-13750000D03*
X16300000Y-14250000D03*
X16300000Y-14750000D03*
X16300000Y-15250000D03*
X16300000Y-15750000D03*
X16300000Y-16250000D03*
X16300000Y-16750000D03*
X16300000Y-17250000D03*
X16300000Y-17750000D03*
D15*
X17250000Y-18700000D03*
X17750000Y-18700000D03*
X18250000Y-18700000D03*
X18750000Y-18700000D03*
X19250000Y-18700000D03*
X19750000Y-18700000D03*
X20250000Y-18700000D03*
X20750000Y-18700000D03*
X21250000Y-18700000D03*
X21750000Y-18700000D03*
X22250000Y-18700000D03*
X22750000Y-18700000D03*
D14*
X23700000Y-17750000D03*
X23700000Y-17250000D03*
X23700000Y-16750000D03*
X23700000Y-16250000D03*
X23700000Y-15750000D03*
X23700000Y-15250000D03*
X23700000Y-14750000D03*
X23700000Y-14250000D03*
X23700000Y-13750000D03*
X23700000Y-13250000D03*
X23700000Y-12750000D03*
X23700000Y-12250000D03*
D15*
X22750000Y-11300000D03*
X22250000Y-11300000D03*
X21750000Y-11300000D03*
X21250000Y-11300000D03*
X20750000Y-11300000D03*
X20250000Y-11300000D03*
X19750000Y-11300000D03*
X19250000Y-11300000D03*
X18750000Y-11300000D03*
X18250000Y-11300000D03*
X17750000Y-11300000D03*
X17250000Y-11300000D03*
G04 #@! TD*
D14*
G04 #@! TO.C,U3*
X16300000Y-42250000D03*
X16300000Y-42750000D03*
X16300000Y-43250000D03*
X16300000Y-43750000D03*
X16300000Y-44250000D03*
X16300000Y-44750000D03*
X16300000Y-45250000D03*
X16300000Y-45750000D03*
X16300000Y-46250000D03*
X16300000Y-46750000D03*
X16300000Y-47250000D03*
X16300000Y-47750000D03*
D15*
X17250000Y-48700000D03*
X17750000Y-48700000D03*
X18250000Y-48700000D03*
X18750000Y-48700000D03*
X19250000Y-48700000D03*
X19750000Y-48700000D03*
X20250000Y-48700000D03*
X20750000Y-48700000D03*
X21250000Y-48700000D03*
X21750000Y-48700000D03*
X22250000Y-48700000D03*
X22750000Y-48700000D03*
D14*
X23700000Y-47750000D03*
X23700000Y-47250000D03*
X23700000Y-46750000D03*
X23700000Y-46250000D03*
X23700000Y-45750000D03*
X23700000Y-45250000D03*
X23700000Y-44750000D03*
X23700000Y-44250000D03*
X23700000Y-43750000D03*
X23700000Y-43250000D03*
X23700000Y-42750000D03*
X23700000Y-42250000D03*
D15*
X22750000Y-41300000D03*
X22250000Y-41300000D03*
X21750000Y-41300000D03*
X21250000Y-41300000D03*
X20750000Y-41300000D03*
X20250000Y-41300000D03*
X19750000Y-41300000D03*
X19250000Y-41300000D03*
X18750000Y-41300000D03*
X18250000Y-41300000D03*
X17750000Y-41300000D03*
X17250000Y-41300000D03*
G04 #@! TD*
D16*
G04 #@! TO.C,U4*
X57600000Y-28700000D03*
X57600000Y-29350000D03*
X57600000Y-30000000D03*
X57600000Y-30650000D03*
X57600000Y-31300000D03*
D17*
X58700000Y-32400000D03*
X59350000Y-32400000D03*
X60000000Y-32400000D03*
X60650000Y-32400000D03*
X61300000Y-32400000D03*
D16*
X62400000Y-31300000D03*
X62400000Y-30650000D03*
X62400000Y-30000000D03*
X62400000Y-29350000D03*
X62400000Y-28700000D03*
D17*
X61300000Y-27600000D03*
X60650000Y-27600000D03*
X60000000Y-27600000D03*
X59350000Y-27600000D03*
X58700000Y-27600000D03*
D13*
X60000000Y-30000000D03*
G04 #@! TD*
D18*
G04 #@! TO.C,R1*
X64200000Y-36000000D03*
X65800000Y-36000000D03*
G04 #@! TD*
G04 #@! TO.C,R2*
X64200000Y-26000000D03*
X65800000Y-26000000D03*
G04 #@! TD*
G04 #@! TO.C,R3*
X44200000Y-26000000D03*
X45800000Y-26000000D03*
G04 #@! TD*
G04 #@! TO.C,C1*
X37200000Y-24000000D03*
X38800000Y-24000000D03*
G04 #@! TD*
G04 #@! TO.C,C2*
X41200000Y-24000000D03*
X42800000Y-24000000D03*
G04 #@! TD*
G04 #@! TO.C,C3*
X37200000Y-36000000D03*
X38800000Y-36000000D03*
G04 #@! TD*
D19*
G04 #@! TO.C,C4*
X41000000Y-36000000D03*
X43000000Y-36000000D03*
G04 #@! TD*
D18*
G04 #@! TO.C,C5*
X45200000Y-30000000D03*
X46800000Y-30000000D03*
G04 #@! TD*
G04 #@! TO.C,C6*
X15200000Y-8000000D03*
X16800000Y-8000000D03*
G04 #@! TD*
D19*
G04 #@! TO.C,C7*
X23000000Y-8000000D03*
X25000000Y-8000000D03*
G04 #@! TD*
D18*
G04 #@! TO.C,C8*
X15200000Y-52000000D03*
X16800000Y-52000000D03*
G04 #@! TD*
D19*
G04 #@! TO.C,C9*
X23000000Y-52000000D03*
X25000000Y-52000000D03*
G04 #@! TD*
D18*
G04 #@! TO.C,C10*
X57200000Y-24000000D03*
X58800000Y-24000000D03*
G04 #@! TD*
G04 #@! TO.C,C11*
X61200000Y-24000000D03*
X62800000Y-24000000D03*
G04 #@! TD*
G04 #@! TO.C,C12*
X61200000Y-36000000D03*
X62800000Y-36000000D03*
G04 #@! TD*
G04 #@! TO.C,C13*
X65200000Y-32000000D03*
X66800000Y-32000000D03*
G04 #@! TD*
G04 #@! TO.C,FB1*
X69200000Y-10000000D03*
X70800000Y-10000000D03*
G04 #@! TD*
G04 #@! TO.C,FB2*
X69200000Y-14000000D03*
X70800000Y-14000000D03*
G04 #@! TD*
D20*
G04 #@! TO.C,J1*
X73730000Y-24920000D03*
X76270000Y-24920000D03*
X73730000Y-27460000D03*
X76270000Y-27460000D03*
X73730000Y-30000000D03*
X76270000Y-30000000D03*
X73730000Y-32540000D03*
X76270000Y-32540000D03*
X73730000Y-35080000D03*
X76270000Y-35080000D03*
G04 #@! TD*
D21*
G04 #@! TO.C,PP1_0*
X6000000Y-6000000D03*
G04 #@! TD*
G04 #@! TO.C,PP1_1*
X6000000Y-7270000D03*
G04 #@! TD*
G04 #@! TO.C,PP1_2*
X6000000Y-8540000D03*
G04 #@! TD*
G04 #@! TO.C,PP1_3*
X6000000Y-9810000D03*
G04 #@! TD*
G04 #@! TO.C,PP1_4*
X6000000Y-11080000D03*
G04 #@! TD*
G04 #@! TO.C,PP1_5*
X6000000Y-12350000D03*
G04 #@! TD*
G04 #@! TO.C,PP1_6*
X6000000Y-13620000D03*
G04 #@! TD*
G04 #@! TO.C,PP1_7*
X6000000Y-14890000D03*
G04 #@! TD*
G04 #@! TO.C,PP1_8*
X6000000Y-16160000D03*
G04 #@! TD*
G04 #@! TO.C,PP1_9*
X6000000Y-17430000D03*
G04 #@! TD*
G04 #@! TO.C,PP1_10*
X6000000Y-18700000D03*
G04 #@! TD*
G04 #@! TO.C,PP1_11*
X6000000Y-19970000D03*
G04 #@! TD*
G04 #@! TO.C,PP1_12*
X6000000Y-21240000D03*
G04 #@! TD*
G04 #@! TO.C,PP1_13*
X6000000Y-22510000D03*
G04 #@! TD*
G04 #@! TO.C,PP1_14*
X6000000Y-23780000D03*
G04 #@! TD*
G04 #@! TO.C,PP1_15*
X6000000Y-25050000D03*
G04 #@! TD*
G04 #@! TO.C,PP1_16*
X6000000Y-26320000D03*
G04 #@! TD*
G04 #@! TO.C,PP1_17*
X6000000Y-27590000D03*
G04 #@! TD*
G04 #@! TO.C,PP1_18*
X6000000Y-28860000D03*
G04 #@! TD*
G04 #@! TO.C,PP1_19*
X6000000Y-30130000D03*
G04 #@! TD*
G04 #@! TO.C,PP2_0*
X6000000Y-31400000D03*
G04 #@! TD*
G04 #@! TO.C,PP2_1*
X6000000Y-32670000D03*
G04 #@! TD*
G04 #@! TO.C,PP2_2*
X6000000Y-33940000D03*
G04 #@! TD*
G04 #@! TO.C,PP2_3*
X6000000Y-35210000D03*
G04 #@! TD*
G04 #@! TO.C,PP2_4*
X6000000Y-36480000D03*
G04 #@! TD*
G04 #@! TO.C,PP2_5*
X7500000Y-6000000D03*
G04 #@! TD*
G04 #@! TO.C,PP2_6*
X7500000Y-7270000D03*
G04 #@! TD*
G04 #@! TO.C,PP2_7*
X7500000Y-8540000D03*
G04 #@! TD*
G04 #@! TO.C,PP2_8*
X7500000Y-9810000D03*
G04 #@! TD*
G04 #@! TO.C,PP2_9*
X7500000Y-11080000D03*
G04 #@! TD*
G04 #@! TO.C,PP2_10*
X7500000Y-12350000D03*
G04 #@! TD*
G04 #@! TO.C,PP2_11*
X7500000Y-13620000D03*
G04 #@! TD*
G04 #@! TO.C,PP2_12*
X7500000Y-14890000D03*
G04 #@! TD*
G04 #@! TO.C,PP2_13*
X7500000Y-16160000D03*
G04 #@! TD*
G04 #@! TO.C,PP2_14*
X7500000Y-17430000D03*
G04 #@! TD*
G04 #@! TO.C,PP2_15*
X7500000Y-18700000D03*
G04 #@! TD*
G04 #@! TO.C,PP2_16*
X7500000Y-19970000D03*
G04 #@! TD*
G04 #@! TO.C,PP2_17*
X7500000Y-21240000D03*
G04 #@! TD*
G04 #@! TO.C,PP2_18*
X7500000Y-22510000D03*
G04 #@! TD*
G04 #@! TO.C,PP2_19*
X7500000Y-23780000D03*
G04 #@! TD*
G04 #@! TO.C,PP3_0*
X7500000Y-25050000D03*
G04 #@! TD*
G04 #@! TO.C,PP3_1*
X7500000Y-26320000D03*
G04 #@! TD*
G04 #@! TO.C,PP3_2*
X7500000Y-27590000D03*
G04 #@! TD*
G04 #@! TO.C,PP3_3*
X7500000Y-28860000D03*
G04 #@! TD*
G04 #@! TO.C,PP3_4*
X7500000Y-30130000D03*
G04 #@! TD*
G04 #@! TO.C,PP3_5*
X7500000Y-31400000D03*
G04 #@! TD*
G04 #@! TO.C,PP3_6*
X7500000Y-32670000D03*
G04 #@! TD*
G04 #@! TO.C,PP3_7*
X7500000Y-33940000D03*
G04 #@! TD*
G04 #@! TO.C,PP3_8*
X7500000Y-35210000D03*
G04 #@! TD*
G04 #@! TO.C,PP3_9*
X7500000Y-36480000D03*
G04 #@! TD*
G04 #@! TO.C,PP3_10*
X9000000Y-6000000D03*
G04 #@! TD*
G04 #@! TO.C,PP3_11*
X9000000Y-7270000D03*
G04 #@! TD*
G04 #@! TO.C,PP3_12*
X9000000Y-8540000D03*
G04 #@! TD*
G04 #@! TO.C,PP3_13*
X9000000Y-9810000D03*
G04 #@! TD*
G04 #@! TO.C,PP3_14*
X9000000Y-11080000D03*
G04 #@! TD*
G04 #@! TO.C,PP3_15*
X9000000Y-12350000D03*
G04 #@! TD*
G04 #@! TO.C,PP3_16*
X9000000Y-13620000D03*
G04 #@! TD*
G04 #@! TO.C,PP3_17*
X9000000Y-14890000D03*
G04 #@! TD*
G04 #@! TO.C,PP3_18*
X9000000Y-16160000D03*
G04 #@! TD*
G04 #@! TO.C,PP3_19*
X9000000Y-17430000D03*
G04 #@! TD*
G04 #@! TO.C,PP4_0*
X9000000Y-18700000D03*
G04 #@! TD*
G04 #@! TO.C,PP4_1*
X9000000Y-19970000D03*
G04 #@! TD*
G04 #@! TO.C,PP4_2*
X9000000Y-21240000D03*
G04 #@! TD*
G04 #@! TO.C,PP4_3*
X9000000Y-22510000D03*
G04 #@! TD*
G04 #@! TO.C,PP4_4*
X9000000Y-23780000D03*
G04 #@! TD*
G04 #@! TO.C,PP4_5*
X9000000Y-25050000D03*
G04 #@! TD*
G04 #@! TO.C,PP4_6*
X9000000Y-26320000D03*
G04 #@! TD*
G04 #@! TO.C,PP4_7*
X9000000Y-27590000D03*
G04 #@! TD*
G04 #@! TO.C,PP4_8*
X9000000Y-28860000D03*
G04 #@! TD*
G04 #@! TO.C,PP4_9*
X9000000Y-30130000D03*
G04 #@! TD*
G04 #@! TO.C,PP4_10*
X9000000Y-31400000D03*
G04 #@! TD*
G04 #@! TO.C,PP4_11*
X9000000Y-32670000D03*
G04 #@! TD*
G04 #@! TO.C,PP4_12*
X9000000Y-33940000D03*
G04 #@! TD*
G04 #@! TO.C,PP4_13*
X9000000Y-35210000D03*
G04 #@! TD*
G04 #@! TO.C,PP4_14*
X9000000Y-36480000D03*
G04 #@! TD*
G04 #@! TO.C,PP4_15*
X10500000Y-6000000D03*
G04 #@! TD*
G04 #@! TO.C,PP4_16*
X10500000Y-7270000D03*
G04 #@! TD*
G04 #@! TO.C,PP4_17*
X10500000Y-8540000D03*
G04 #@! TD*
G04 #@! TO.C,PP4_18*
X10500000Y-9810000D03*
G04 #@! TD*
G04 #@! TO.C,PP4_19*
X10500000Y-11080000D03*
G04 #@! TD*
G04 #@! TO.C,PP5_0*
X10500000Y-12350000D03*
G04 #@! TD*
G04 #@! TO.C,PP5_1*
X10500000Y-13620000D03*
G04 #@! TD*
G04 #@! TO.C,PP5_2*
X10500000Y-14890000D03*
G04 #@! TD*
G04 #@! TO.C,PP5_3*
X10500000Y-16160000D03*
G04 #@! TD*
G04 #@! TO.C,PP5_4*
X10500000Y-17430000D03*
G04 #@! TD*
G04 #@! TO.C,PP5_5*
X10500000Y-18700000D03*
G04 #@! TD*
G04 #@! TO.C,PP5_6*
X10500000Y-19970000D03*
G04 #@! TD*
G04 #@! TO.C,PP5_7*
X10500000Y-21240000D03*
G04 #@! TD*
G04 #@! TO.C,PP5_8*
X10500000Y-22510000D03*
G04 #@! TD*
G04 #@! TO.C,PP5_9*
X10500000Y-23780000D03*
G04 #@! TD*
G04 #@! TO.C,PP5_10*
X10500000Y-25050000D03*
G04 #@! TD*
G04 #@! TO.C,PP5_11*
X10500000Y-26320000D03*
G04 #@! TD*
G04 #@! TO.C,PP5_12*
X10500000Y-27590000D03*
G04 #@! TD*
G04 #@! TO.C,PP5_13*
X10500000Y-28860000D03*
G04 #@! TD*
G04 #@! TO.C,PP5_14*
X10500000Y-30130000D03*
G04 #@! TD*
G04 #@! TO.C,PP5_15*
X10500000Y-31400000D03*
G04 #@! TD*
G04 #@! TO.C,PP5_16*
X10500000Y-32670000D03*
G04 #@! TD*
G04 #@! TO.C,PP5_17*
X10500000Y-33940000D03*
G04 #@! TD*
G04 #@! TO.C,PP5_18*
X10500000Y-35210000D03*
G04 #@! TD*
G04 #@! TO.C,PP5_19*
X10500000Y-36480000D03*
G04 #@! TD*
M02*
