M48
; DRILL file {KiCad 9.0.7} date 2026-04-22T01:26:53-0500
; FORMAT={-:-/ absolute / metric / decimal}
; #@! TF.CreationDate,2026-04-22T01:26:53-05:00
; #@! TF.GenerationSoftware,Kicad,Pcbnew,9.0.7
; #@! TF.FileFunction,Plated,1,2,PTH
FMAT,2
METRIC
; #@! TA.AperFunction,Plated,PTH,ComponentDrill
T1C0.550
; #@! TA.AperFunction,Plated,PTH,ComponentDrill
T2C1.000
; #@! TA.AperFunction,Plated,PTH,ComponentDrill
T3C3.200
%
G90
G05
T1
X6.0Y-6.0
X6.0Y-7.27
X6.0Y-8.54
X6.0Y-9.81
X6.0Y-11.08
X6.0Y-12.35
X6.0Y-13.62
X6.0Y-14.89
X6.0Y-16.16
X6.0Y-17.43
X6.0Y-18.7
X6.0Y-19.97
X6.0Y-21.24
X6.0Y-22.51
X6.0Y-23.78
X6.0Y-25.05
X6.0Y-26.32
X6.0Y-27.59
X6.0Y-28.86
X6.0Y-30.13
X6.0Y-31.4
X6.0Y-32.67
X6.0Y-33.94
X6.0Y-35.21
X6.0Y-36.48
X7.5Y-6.0
X7.5Y-7.27
X7.5Y-8.54
X7.5Y-9.81
X7.5Y-11.08
X7.5Y-12.35
X7.5Y-13.62
X7.5Y-14.89
X7.5Y-16.16
X7.5Y-17.43
X7.5Y-18.7
X7.5Y-19.97
X7.5Y-21.24
X7.5Y-22.51
X7.5Y-23.78
X7.5Y-25.05
X7.5Y-26.32
X7.5Y-27.59
X7.5Y-28.86
X7.5Y-30.13
X7.5Y-31.4
X7.5Y-32.67
X7.5Y-33.94
X7.5Y-35.21
X7.5Y-36.48
X9.0Y-6.0
X9.0Y-7.27
X9.0Y-8.54
X9.0Y-9.81
X9.0Y-11.08
X9.0Y-12.35
X9.0Y-13.62
X9.0Y-14.89
X9.0Y-16.16
X9.0Y-17.43
X9.0Y-18.7
X9.0Y-19.97
X9.0Y-21.24
X9.0Y-22.51
X9.0Y-23.78
X9.0Y-25.05
X9.0Y-26.32
X9.0Y-27.59
X9.0Y-28.86
X9.0Y-30.13
X9.0Y-31.4
X9.0Y-32.67
X9.0Y-33.94
X9.0Y-35.21
X9.0Y-36.48
X10.5Y-6.0
X10.5Y-7.27
X10.5Y-8.54
X10.5Y-9.81
X10.5Y-11.08
X10.5Y-12.35
X10.5Y-13.62
X10.5Y-14.89
X10.5Y-16.16
X10.5Y-17.43
X10.5Y-18.7
X10.5Y-19.97
X10.5Y-21.24
X10.5Y-22.51
X10.5Y-23.78
X10.5Y-25.05
X10.5Y-26.32
X10.5Y-27.59
X10.5Y-28.86
X10.5Y-30.13
X10.5Y-31.4
X10.5Y-32.67
X10.5Y-33.94
X10.5Y-35.21
X10.5Y-36.48
T2
X73.73Y-24.92
X73.73Y-27.46
X73.73Y-30.0
X73.73Y-32.54
X73.73Y-35.08
X76.27Y-24.92
X76.27Y-27.46
X76.27Y-30.0
X76.27Y-32.54
X76.27Y-35.08
T3
X18.0Y-4.0
X18.0Y-56.0
X76.0Y-4.0
X76.0Y-56.0
M30
