M48
; DRILL file {KiCad 9.0.7} date 2026-04-22T00:19:40-0500
; FORMAT={-:-/ absolute / metric / decimal}
; #@! TF.CreationDate,2026-04-22T00:19:40-05:00
; #@! TF.GenerationSoftware,Kicad,Pcbnew,9.0.7
; #@! TF.FileFunction,Plated,1,2,PTH
FMAT,2
METRIC
; #@! TA.AperFunction,Plated,PTH,ViaDrill
T1C0.300
; #@! TA.AperFunction,Plated,PTH,ComponentDrill
T2C0.700
; #@! TA.AperFunction,Plated,PTH,ComponentDrill
T3C0.800
; #@! TA.AperFunction,Plated,PTH,ComponentDrill
T4C0.900
; #@! TA.AperFunction,Plated,PTH,ComponentDrill
T5C1.000
; #@! TA.AperFunction,Plated,PTH,ComponentDrill
T6C1.100
; #@! TA.AperFunction,Plated,PTH,ComponentDrill
T7C1.200
; #@! TA.AperFunction,Plated,PTH,ComponentDrill
T8C1.300
; #@! TA.AperFunction,Plated,PTH,ComponentDrill
T9C1.500
; #@! TA.AperFunction,Plated,PTH,ComponentDrill
T10C3.200
%
G90
G05
T1
X12.994Y-16.561
X21.64Y-12.14
X21.696Y-46.247
X27.849Y-13.08
X28.063Y-7.16
X30.843Y-42.97
X36.592Y-22.177
X39.731Y-38.267
X39.946Y-22.961
X39.977Y-23.894
X40.21Y-25.409
X42.739Y-37.727
X42.9Y-26.052
X42.959Y-63.644
X43.181Y-28.909
X43.181Y-31.663
X44.565Y-26.103
X44.931Y-30.422
X50.962Y-22.386
X53.237Y-26.343
X53.358Y-34.207
X56.539Y-65.923
X57.308Y-66.897
X58.084Y-42.005
X60.115Y-29.176
X60.316Y-25.953
X60.52Y-37.029
X60.52Y-40.097
X60.671Y-35.158
X63.261Y-37.319
X63.575Y-42.436
X64.398Y-40.227
X69.157Y-25.148
X71.95Y-16.445
X80.487Y-35.414
X80.945Y-25.148
X83.139Y-36.669
X84.158Y-36.98
X84.846Y-41.721
X86.158Y-40.575
T2
X95.0Y-35.0
X95.0Y-37.0
X95.0Y-39.0
X95.0Y-45.0
T3
X21.25Y-5.0
X23.0Y-28.0
X23.75Y-5.0
X26.25Y-5.0
X27.0Y-28.0
X28.75Y-5.0
X41.25Y-5.0
X43.75Y-5.0
X46.25Y-5.0
X48.75Y-5.0
X62.5Y-5.0
X65.0Y-5.0
X67.5Y-5.0
X80.75Y-5.0
X83.25Y-5.0
T4
X33.5Y-10.0
X38.5Y-10.0
X75.46Y-61.19
X75.46Y-65.0
X75.46Y-68.81
X80.54Y-61.19
X80.54Y-65.0
X80.54Y-68.81
X95.0Y-41.0
X95.0Y-43.0
T5
X18.65Y-72.0
X21.19Y-72.0
X23.73Y-72.0
X26.27Y-72.0
X28.81Y-72.0
X31.35Y-72.0
X74.5Y-55.0
X84.19Y-25.0
X86.73Y-25.0
X89.27Y-25.0
X89.5Y-55.0
X91.81Y-25.0
T6
X47.46Y-65.0
X50.0Y-65.0
X52.54Y-65.0
X59.46Y-65.0
X62.0Y-65.0
X64.54Y-65.0
T7
X92.5Y-33.5
X92.5Y-46.5
T8
X47.46Y-75.0
X52.54Y-75.0
X59.46Y-75.0
X64.54Y-75.0
X90.46Y-65.0
X95.54Y-65.0
T9
X5.5Y-10.7
X10.0Y-5.0
X14.5Y-10.7
T10
X4.0Y-4.0
X4.0Y-76.0
X96.0Y-4.0
X96.0Y-76.0
M30
